<?xml version="1.0" encoding="UTF-8" standalone="no"?>
<!DOCTYPE svg  PUBLIC '-//W3C//DTD SVG 1.1//EN'  'http://www.w3.org/Graphics/SVG/1.1/DTD/svg11.dtd'>
<svg xmlns="http://www.w3.org/2000/svg" version="1.1">
<defs>
<font id="Aileron-Italic" horiz-adv-x="580">
<font-face unicode-range="U+0020-FB02" x-height="526" bbox="-105 -210 1020 874" underline-thickness="50" cap-height="690" panose-1="0 0 5 0 0 0 0 0 0 0" font-weight="400" units-per-em="1000" font-family="Aileron" font-style="italic" underline-position="-150" descent="-200" ascent="800" slope="-10"/>
<missing-glyph/>
<glyph unicode=" " horiz-adv-x="196" glyph-name="space"/>
<glyph d="M103 114q25 0 39.5 -14t14.5 -37q0 -33 -22.5 -55t-53.5 -22q-25 0 -39.5 14t-14.5 37q0 33 22.5 55t53.5 22zM153 180h-78l88 510h102z" unicode="!" horiz-adv-x="260" glyph-name="exclam"/>
<glyph d="M251 485h-70l34 250h90zM111 485h-70l34 250h90z" unicode='&quot;' horiz-adv-x="277" glyph-name="quotedbl"/>
<glyph d="M379 415h-91l-55 -140h91zM437 415l-55 -140h102l-10 -56h-114l-85 -219h-58l85 219h-91l-85 -219h-58l85 219h-89l10 56h101l55 140h-102l10 56h114l85 219h58l-85 -219h91l85 219h58l-85 -219h89l-10 -56h-101z" unicode="#" glyph-name="numbersign"/>
<glyph d="M307 301l-44 -247q142 8 142 131q0 44 -23.5 71t-74.5 45zM179 504q0 -70 88 -99l40 230q-62 -5 -95 -42.5t-33 -88.5zM365 631l-43 -240q90 -30 133.5 -78.5t43.5 -122.5q0 -91 -68 -145.5t-181 -58.5l-13 -76h-58l14 79q-169 20 -179 197h92q8 -109 99 -128l45 255 q-81 24 -123 64.5t-42 116.5q0 81 60.5 143.5t174.5 66.5l13 76h58l-14 -79q77 -12 117.5 -64.5t42.5 -127.5h-92q-3 98 -80 122z" unicode="$" glyph-name="dollar"/>
<glyph d="M518 46q36 0 58.5 36.5t22.5 96.5q0 65 -52 65q-36 0 -58.5 -36.5t-22.5 -96.5q0 -65 52 -65zM554 304q59 0 94.5 -36t35.5 -94q0 -76 -45 -132t-128 -56q-59 0 -94.5 36t-35.5 94q0 76 45 132t128 56zM250 644q-36 0 -58.5 -36.5t-22.5 -96.5q0 -65 52 -65 q36 0 58.5 36.5t22.5 96.5q0 65 -52 65zM714 690l-567 -690h-93l567 690h93zM214 386q-59 0 -94.5 36t-35.5 94q0 76 45 132t128 56q59 0 94.5 -36t35.5 -94q0 -76 -45 -132t-128 -56z" unicode="%" horiz-adv-x="740" glyph-name="percent"/>
<glyph d="M438 315h-60q-41 0 -61 -2q-95 -9 -140 -50t-45 -105q0 -56 38 -80t121 -24q57 0 102 9zM633 385l-13 -70h-96l-54 -308q-95 -21 -193 -21q-244 0 -244 163q0 76 53 131.5t140 72.5q-49 13 -77 48.5t-28 90.5q0 94 80.5 153t201.5 59q65 0 118 -10l-12 -69 q-55 11 -121 11q-79 0 -124.5 -39t-45.5 -113q0 -51 29 -73t82 -25q18 -1 62 -1h60l19 112h86l-19 -112h96z" unicode="&amp;" horiz-adv-x="659" glyph-name="ampersand"/>
<glyph d="M111 485h-70l34 250h90z" unicode="&apos;" horiz-adv-x="137" glyph-name="quotesingle"/>
<glyph d="M218 -80h-58q-59 121 -59 282q0 142 54 299t157 279h58q-103 -134 -154 -284.5t-51 -291.5q0 -155 53 -284z" unicode="(" horiz-adv-x="315" glyph-name="parenleft"/>
<glyph d="M127 780h58q59 -121 59 -282q0 -142 -54 -299t-157 -279h-58q103 134 154 284.5t51 291.5q0 155 -53 284z" unicode=")" horiz-adv-x="315" glyph-name="parenright"/>
<glyph d="M291 298l164 59l8 -59l-165 -42l88 -137l-57 -37l-72 150l-126 -150l-43 37l135 137l-150 42l30 59l143 -60l23 178h62z" unicode="*" horiz-adv-x="530" glyph-name="asterisk"/>
<glyph d="M485 287h-181l-36 -202h-58l36 202h-181l10 56h181l36 206h58l-36 -206h181z" unicode="+" glyph-name="plus"/>
<glyph d="M122 88l-128 -208h-81l117 220h94z" unicode="," horiz-adv-x="233" glyph-name="comma"/>
<glyph d="M237 255h-210l10 56h210z" unicode="-" horiz-adv-x="274" glyph-name="hyphen"/>
<glyph d="M75 114q24 0 38.5 -15t14.5 -38q0 -32 -22 -53.5t-53 -21.5q-24 0 -38.5 15t-14.5 38q0 32 22 53.5t53 21.5z" unicode="." horiz-adv-x="233" glyph-name="period"/>
<glyph d="M5 -30h-62l383 750h62z" unicode="/" horiz-adv-x="303" glyph-name="slash"/>
<glyph d="M253 54q57 0 99 43.5t63 109.5t30.5 126t9.5 111q0 89 -32 140.5t-98 51.5q-57 0 -99 -43t-63 -109t-30.5 -126t-9.5 -111q0 -89 32 -141t98 -52zM327 704q112 0 168 -71.5t56 -187.5q0 -59 -9 -118.5t-31 -122t-55 -110t-86 -78t-119 -30.5q-112 0 -168 72t-56 188 q0 59 9 118.5t31 121.5t55 109.5t86 78t119 30.5z" unicode="0" glyph-name="zero"/>
<glyph d="M464 690l-122 -690h-86l106 600l-210 -114l16 91l162 91q39 22 79 22h55z" unicode="1" glyph-name="one"/>
<glyph d="M151 70h337l-12 -70h-463l9 49l295 255q88 77 123 125.5t35 104.5q0 102 -104 102q-67 0 -108.5 -36.5t-60.5 -115.5l-2 -10h-86l2 10q54 220 277 220q89 0 134.5 -44.5t45.5 -114.5q0 -66 -49 -134t-171 -170z" unicode="2" glyph-name="two"/>
<glyph d="M415 366q53 -16 82 -53t29 -91q0 -107 -84 -171.5t-206 -64.5q-202 0 -202 182q0 17 1 26l1 10h86l-1 -10q0 -2 -0.5 -7t-0.5 -8q0 -62 37 -93.5t99 -31.5q74 0 123 42.5t49 113.5q0 104 -144 104h-17l13 70h17q72 0 123 42t51 112q0 44 -28 71t-76 27q-64 0 -108 -34 t-58 -101l-2 -10h-86l2 10q19 96 91 149.5t184 53.5q84 0 131.5 -40.5t47.5 -107.5q0 -68 -43.5 -119.5t-110.5 -70.5z" unicode="3" glyph-name="three"/>
<glyph d="M374 244l63 329q-33 -43 -72 -86l-223 -243h232zM534 174h-88l-30 -174h-86l31 174h-342l7 43l432 473h86l-85 -446h87z" unicode="4" glyph-name="four"/>
<glyph d="M242 620l-72 -240l50 46q54 29 114 29q96 0 145 -51.5t49 -136.5q0 -129 -85.5 -205t-206.5 -76q-90 0 -145 46t-55 131q0 13 1 20l1 10h86v-10q2 -66 30.5 -97.5t92.5 -31.5q81 0 132.5 54.5t51.5 145.5q0 62 -32 97.5t-90 35.5q-98 0 -161 -98h-82l119 401h392l-13 -70 h-322z" unicode="5" glyph-name="five"/>
<glyph d="M313 398q-72 0 -125 -56t-53 -150q0 -61 32 -99.5t88 -38.5q74 0 127 58.5t53 149.5q0 61 -30 98.5t-92 37.5zM390 704q83 0 132 -45t49 -122q0 -13 -1 -19l-1 -10h-92v10q-3 118 -106 118q-81 0 -143 -73.5t-83 -209.5l61 69q61 44 134 44q92 0 142.5 -52.5t50.5 -138.5 q0 -124 -84.5 -206.5t-199.5 -82.5q-96 0 -151 58t-55 176q0 114 29.5 208t79 153t111 91t127.5 32z" unicode="6" glyph-name="six"/>
<glyph d="M613 690l-7 -40l-459 -650h-100l440 620h-375l13 70h488z" unicode="7" glyph-name="seven"/>
<glyph d="M254 53q84 0 129.5 45t45.5 115q0 48 -31.5 79.5t-96.5 31.5q-87 0 -132.5 -47t-45.5 -112q0 -51 33.5 -81.5t97.5 -30.5zM361 636q-72 0 -112.5 -41.5t-40.5 -101.5q0 -45 28 -73t81 -28q72 0 113 41.5t41 102.5q0 44 -28 72t-82 28zM421 364q47 -16 75.5 -55t28.5 -91 q0 -78 -44 -132.5t-106.5 -77.5t-134.5 -23q-95 0 -154 42t-59 129q0 76 50 132t121 77q-38 16 -60.5 49.5t-22.5 78.5q0 94 72 152.5t186 58.5q90 0 141 -42.5t51 -114.5q0 -66 -41 -114t-103 -69z" unicode="8" glyph-name="eight"/>
<glyph d="M285 292q72 0 125 56t53 150q0 61 -32 99.5t-88 38.5q-74 0 -127 -58.5t-53 -149.5q0 -61 30 -98.5t92 -37.5zM349 704q96 0 151 -58t55 -176q0 -114 -29.5 -208t-79 -153t-111 -91t-127.5 -32q-83 0 -132 45t-49 122q0 13 1 19l1 10h92v-10q3 -118 106 -118 q81 0 143 73.5t83 209.5l-61 -69q-61 -44 -134 -44q-92 0 -142.5 52.5t-50.5 138.5q0 124 84.5 206.5t199.5 82.5z" unicode="9" glyph-name="nine"/>
<glyph d="M75 114q24 0 38.5 -15t14.5 -38q0 -32 -22 -53.5t-53 -21.5q-24 0 -38.5 15t-14.5 38q0 32 22 53.5t53 21.5zM150 544q24 0 38.5 -15t14.5 -38q0 -32 -22 -53.5t-53 -21.5q-24 0 -38.5 15t-14.5 38q0 32 22 53.5t53 21.5z" unicode=":" horiz-adv-x="233" glyph-name="colon"/>
<glyph d="M121 88l-127 -208h-81l117 220h93zM150 544q24 0 38.5 -15t14.5 -38q0 -32 -22 -53.5t-53 -21.5q-24 0 -38.5 15t-14.5 38q0 32 22 53.5t53 21.5z" unicode=";" horiz-adv-x="233" glyph-name="semicolon"/>
<glyph d="M532 427l-371 -166l313 -166l-12 -65l-366 201l12 68l436 201z" unicode="&lt;" glyph-name="less"/>
<glyph d="M467 187h-420l10 56h420zM503 387h-420l10 56h420z" unicode="=" glyph-name="equal"/>
<glyph d="M486 299l-12 -68l-436 -201l12 73l371 166l-313 166l12 65z" unicode="&gt;" glyph-name="greater"/>
<glyph d="M262 114q25 0 39.5 -14t14.5 -37q0 -33 -22.5 -55t-53.5 -22q-25 0 -39.5 14t-14.5 37q0 33 22.5 55t53.5 22zM374 704q87 0 137 -41.5t50 -107.5q0 -61 -31.5 -113.5t-113.5 -124.5q-48 -42 -69 -71t-32 -66h-86q8 41 29.5 73.5t79.5 89.5q76 74 102.5 117.5t26.5 86.5 t-28 66t-76 23q-59 0 -99.5 -35.5t-52.5 -106.5h-90q15 97 84.5 153.5t168.5 56.5z" unicode="?" horiz-adv-x="589" glyph-name="question"/>
<glyph d="M498 251l9 39q7 28 7 51q0 76 -69 76q-58 0 -93 -55t-35 -128q0 -101 68 -101q39 0 70.5 35t42.5 83zM634 465l-63 -264q-4 -17 -4 -32q0 -36 38 -36q50 0 86.5 51t36.5 145q0 132 -75 204.5t-187 72.5q-64 0 -126 -24.5t-112 -69t-81 -115t-31 -153.5q0 -139 80 -214.5 t203 -75.5q64 0 131 20.5t120 59.5l24 -49q-131 -89 -278 -89q-143 0 -242.5 90.5t-99.5 256.5q0 96 36 177t95 133.5t132.5 81.5t151.5 29q142 0 231.5 -92t89.5 -241q0 -126 -62 -191t-143 -65q-89 0 -100 72l-21 -41q-46 -39 -100 -39q-57 0 -99 38.5t-42 122.5 q0 102 61.5 178.5t154.5 76.5q60 0 88 -31l9 -48l17 61h81z" unicode="@" horiz-adv-x="852" glyph-name="at"/>
<glyph d="M449 314l-47 308l-159 -308h206zM460 244h-253l-126 -244h-98l370 690h122l116 -690h-93z" unicode="A" horiz-adv-x="646" glyph-name="A"/>
<glyph d="M342 72q62 6 103 44.5t41 104.5q0 84 -94 98q-29 4 -54 4h-143l-45 -253h144q22 0 48 2zM247 620l-40 -227h133q28 0 56 4q119 18 119 133q0 78 -89 88q-18 2 -54 2h-125zM460 366q120 -33 120 -152q0 -93 -63 -144t-154 -65q-35 -5 -89 -5h-222l122 690h203q57 0 89 -4 q144 -20 144 -139q0 -138 -150 -181z" unicode="B" horiz-adv-x="647" glyph-name="B"/>
<glyph d="M444 704q121 0 186 -58.5t65 -154.5q0 -14 -1 -21l-1 -10h-86v10q0 87 -44 126.5t-133 39.5q-122 0 -199 -102.5t-77 -251.5q0 -113 48.5 -170.5t135.5 -57.5q155 0 219 166l4 10h86l-3 -10q-30 -107 -111 -170.5t-212 -63.5q-127 0 -196 76.5t-68 208.5 q-1 184 109 308.5t278 124.5z" unicode="C" horiz-adv-x="717" glyph-name="C"/>
<glyph d="M334 74q88 12 148 60.5t86 113.5t26 142q0 102 -47 159t-123 67q-29 4 -76 4h-101l-97 -550h106q49 0 78 4zM438 687q110 -10 180.5 -85.5t70.5 -209.5q0 -69 -23 -133.5t-66.5 -119t-114 -91.5t-158.5 -45q-36 -3 -89 -3h-186l122 690h177q53 0 87 -3z" unicode="D" horiz-adv-x="711" glyph-name="D"/>
<glyph d="M248 620l-43 -240h333l-12 -70h-333l-43 -240h374l-13 -70h-459l122 690h449l-13 -70h-362z" unicode="E" horiz-adv-x="593" glyph-name="E"/>
<glyph d="M248 620l-43 -240h323l-12 -70h-323l-55 -310h-86l122 690h449l-13 -70h-362z" unicode="F" horiz-adv-x="576" glyph-name="F"/>
<glyph d="M454 704q119 0 180 -57.5t61 -153.5q0 -15 -1 -23l-1 -10h-86v10q0 89 -40 127.5t-127 38.5q-123 0 -204.5 -103t-81.5 -251q0 -103 46.5 -165.5t130.5 -62.5q85 0 150.5 58.5t81.5 150.5h-161l13 70h247l-59 -333h-76l21 119l-42 -63q-75 -70 -192 -70q-124 0 -191 79 t-67 206q0 183 114.5 308t283.5 125z" unicode="G" horiz-adv-x="757" glyph-name="G"/>
<glyph d="M726 690l-122 -690h-86l53 302h-380l-53 -302h-86l122 690h86l-56 -316h380l56 316h86z" unicode="H" horiz-adv-x="729" glyph-name="H"/>
<glyph d="M138 0h-86l122 690h86z" unicode="I" horiz-adv-x="263" glyph-name="I"/>
<glyph d="M541 690l-75 -426q-11 -59 -17 -83q-45 -195 -247 -195q-85 0 -134 44.5t-49 122.5q0 20 3 41l6 41h86l-5 -41q-2 -24 -2 -33q0 -107 109 -107q117 0 149 132q1 5 16 81l74 423h86z" unicode="J" horiz-adv-x="527" glyph-name="J"/>
<glyph d="M298 345l268 -345h-105l-226 298l-52 -46l-45 -252h-86l122 690h86l-60 -339l397 339h105z" unicode="K" horiz-adv-x="629" glyph-name="K"/>
<glyph d="M524 70l-13 -70h-459l122 690h86l-110 -620h374z" unicode="L" horiz-adv-x="578" glyph-name="L"/>
<glyph d="M862 690l-122 -690h-86l108 600l-312 -600h-108l-98 609l-106 -609h-86l122 690h142l97 -600l307 600h142z" unicode="M" horiz-adv-x="865" glyph-name="M"/>
<glyph d="M714 690l-122 -690h-132l-217 608l-105 -608h-86l122 690h132l215 -608l107 608h86z" unicode="N" horiz-adv-x="717" glyph-name="N"/>
<glyph d="M355 54q68 0 122.5 32.5t87 84.5t49.5 112.5t17 121.5q0 105 -54 168t-148 63q-68 0 -122.5 -32.5t-87 -84.5t-49.5 -112.5t-17 -121.5q0 -105 54 -168t148 -63zM447 704q132 0 205 -85t73 -214q0 -80 -23.5 -153t-69 -133.5t-122 -96.5t-173.5 -36q-132 0 -205 85 t-73 214q0 80 23.5 153t69 133.5t122 96.5t173.5 36z" unicode="O" horiz-adv-x="747" glyph-name="O"/>
<glyph d="M414 359q51 11 84.5 49t33.5 105q0 84 -73 100q-23 5 -76 5h-135l-47 -264h135q53 0 78 5zM477 686q70 -9 109 -51t39 -112q0 -99 -63 -162t-156 -75q-32 -4 -90 -4h-128l-50 -282h-86l122 690h214q59 0 89 -4z" unicode="P" horiz-adv-x="605" glyph-name="P"/>
<glyph d="M152 285q0 -105 54 -168t148 -63q68 0 122.5 32.5t87 84.5t49.5 112.5t17 121.5q0 105 -54 168t-148 63q-68 0 -122.5 -32.5t-87 -84.5t-49.5 -112.5t-17 -121.5zM724 405q0 -99 -38.5 -188.5t-113.5 -146.5q54 -12 105 -63l-59 -59q-53 35 -78 45.5t-53 10.5 q-34 0 -75 -10q-31 -8 -66 -8q-144 0 -216 84t-72 215q0 60 14 119t44.5 113.5t74 95.5t107 66t138.5 25q144 0 216 -84t72 -215z" unicode="Q" horiz-adv-x="756" glyph-name="Q"/>
<glyph d="M403 369q59 6 97.5 45t38.5 107q0 82 -83 95q-25 4 -68 4h-140l-45 -253h132q48 0 68 2zM633 536q0 -87 -53 -138t-126 -64q47 -5 63.5 -48.5t16.5 -174.5q0 -79 18 -111h-93q-9 39 -11 189q-1 50 -18.5 77t-59.5 30q-16 1 -49 1h-130l-53 -297h-86l122 690h226 q59 0 90 -4q67 -9 105 -46t38 -104z" unicode="R" horiz-adv-x="618" glyph-name="R"/>
<glyph d="M360 704q99 0 151.5 -52t52.5 -137v-16h-92q0 3 0.5 8t0.5 8q0 57 -35 89t-97 32q-63 0 -103.5 -34.5t-40.5 -93.5q0 -43 30 -68t98 -41q99 -24 146.5 -69t47.5 -121q0 -101 -78 -162t-198 -61q-103 0 -164.5 51.5t-61.5 142.5v16h92q3 -68 41.5 -105t106.5 -37 q72 0 119 37.5t47 102.5q0 49 -34 77.5t-111 47.5q-85 21 -131 59t-46 104q0 101 74.5 161.5t184.5 60.5z" unicode="S" horiz-adv-x="565" glyph-name="S"/>
<glyph d="M675 620h-245l-110 -620h-86l110 620h-247l13 70h578z" unicode="T" horiz-adv-x="613" glyph-name="T"/>
<glyph d="M688 690l-77 -435q-7 -37 -13 -62q-50 -207 -293 -207q-109 0 -164 49.5t-55 143.5q0 40 8 83l76 428h86l-74 -420q-10 -57 -10 -88q0 -60 36.5 -94t108.5 -34q80 0 127.5 35t69.5 113q6 20 13 61l75 427h86z" unicode="U" horiz-adv-x="683" glyph-name="U"/>
<glyph d="M345 0h-122l-116 690h93l95 -625l322 625h98z" unicode="V" horiz-adv-x="652" glyph-name="V"/>
<glyph d="M1020 690l-314 -690h-113l-50 595l-268 -595h-114l-60 690h95l39 -601l261 591h122l49 -592l258 602h95z" unicode="W" horiz-adv-x="953" glyph-name="W"/>
<glyph d="M388 351l190 -351h-104l-148 291l-247 -291h-101l308 353l-169 337h97l135 -276l237 276h102z" unicode="X" horiz-adv-x="627" glyph-name="X"/>
<glyph d="M349 268l-47 -268h-86l48 272l-170 418h91l134 -340l248 340h101z" unicode="Y" horiz-adv-x="581" glyph-name="Y"/>
<glyph d="M626 621l-503 -551h412l-13 -70h-523l12 66l506 554h-381l13 70h489z" unicode="Z" horiz-adv-x="591" glyph-name="Z"/>
<glyph d="M170 780h163l-10 -56h-105l-132 -748h105l-10 -56h-163z" unicode="[" horiz-adv-x="307" glyph-name="bracketleft"/>
<glyph d="M256 -30h-62l-119 750h62z" unicode="\" horiz-adv-x="303" glyph-name="backslash"/>
<glyph d="M148 -80h-163l10 56h105l132 748h-105l10 56h163z" unicode="]" horiz-adv-x="307" glyph-name="bracketright"/>
<glyph d="M398 215l-80 345l-202 -345h-71l246 401h69l106 -401h-68z" unicode="^" glyph-name="asciicircum"/>
<glyph d="M445 -86h-400l10 56h400z" unicode="_" horiz-adv-x="500" glyph-name="underscore"/>
<glyph d="M172 580h-56l-65 110h80z" unicode="`" horiz-adv-x="300" glyph-name="grave"/>
<glyph d="M197 52q52 0 99.5 43t59.5 106l10 55q-30 3 -57 3q-90 0 -146.5 -32t-56.5 -95q0 -38 25 -59t66 -21zM304 544q86 0 128 -35t42 -96q0 -27 -9 -79l-35 -199q-10 -57 -14 -135h-86l4 76l-38 -48q-43 -42 -139 -42q-60 0 -102.5 35.5t-42.5 101.5q0 99 82.5 149t219.5 50 q30 0 63 -3l2 14q9 50 9 71q0 33 -20.5 53.5t-64.5 20.5q-65 0 -98 -27.5t-46 -84.5h-90q17 84 79.5 131t155.5 47z" unicode="a" horiz-adv-x="506" glyph-name="a"/>
<glyph d="M286 52q95 0 151.5 81.5t56.5 190.5q0 70 -32.5 112t-95.5 42q-73 0 -129 -50.5t-75 -157.5l-5 -29q-4 -20 -4 -44q0 -64 33.5 -104.5t99.5 -40.5zM390 544q95 0 146.5 -60.5t51.5 -155.5q0 -50 -12 -98.5t-37.5 -92.5t-61.5 -77.5t-88.5 -53.5t-114.5 -20 q-34 0 -69 12.5t-52 31.5l-24 52l-15 -82h-86l130 735h86l-51 -290l50 57q57 42 147 42z" unicode="b" horiz-adv-x="614" glyph-name="b"/>
<glyph d="M328 544q93 0 139.5 -51t47.5 -141h-90q-6 126 -113 126q-83 0 -138 -78t-55 -202q0 -73 32 -109.5t84 -36.5q114 0 161 117h90q-39 -93 -103 -138t-161 -45q-88 0 -142.5 54t-54.5 155q0 91 33.5 169t104 129t165.5 51z" unicode="c" horiz-adv-x="531" glyph-name="c"/>
<glyph d="M452 260l5 29q4 20 4 44q0 64 -33.5 104.5t-99.5 40.5q-95 0 -151.5 -81.5t-56.5 -190.5q0 -70 32.5 -112t95.5 -42q73 0 129 50.5t75 157.5zM622 735l-130 -735h-86l15 85l-50 -57q-57 -42 -147 -42q-95 0 -146.5 60.5t-51.5 155.5q0 50 12 98.5t37.5 92.5t61.5 77.5 t88.5 53.5t114.5 20q34 0 69 -12.5t52 -31.5l24 -52l51 287h86z" unicode="d" horiz-adv-x="612" glyph-name="d"/>
<glyph d="M307 478q-72 0 -115 -48.5t-61 -124.5h300q2 26 2 37q0 65 -34 100.5t-92 35.5zM504 239h-383q-2 -28 -2 -42q0 -73 32.5 -109t87.5 -36q53 0 96.5 31.5t61.5 87.5h90q-31 -91 -103.5 -138t-159.5 -47q-91 0 -145 54.5t-54 153.5q0 61 17 120t50.5 112t92.5 85.5 t135 32.5q92 0 146 -53.5t54 -143.5q0 -57 -16 -108z" unicode="e" horiz-adv-x="539" glyph-name="e"/>
<glyph d="M237 632q-10 -28 -15 -54l-9 -52h109l-12 -66h-109l-80 -460h-86l81 460h-48l12 66h47l8 44q8 42 15 64q18 58 57 89t93 31q41 0 71 -5l-13 -71q-19 4 -39 4q-64 0 -82 -50z" unicode="f" horiz-adv-x="273" glyph-name="f"/>
<glyph d="M248 52q73 0 129 50.5t75 157.5v-5l7 41l-2 -7q4 20 4 44q0 64 -33.5 104.5t-99.5 40.5q-95 0 -151.5 -81.5t-56.5 -190.5q0 -70 32.5 -112t95.5 -42zM586 530l-71 -400q-17 -92 -19 -103q-49 -237 -294 -237q-95 0 -151 42t-56 117q0 3 0.5 8t0.5 8l1 10h87l-1 -9v-8 q0 -47 33.5 -74.5t97.5 -27.5q78 0 127.5 42.5t66.5 119.5q2 12 6 31t6 27l2 9l-51 -57q-57 -42 -147 -42q-95 0 -146.5 60.5t-51.5 155.5q0 50 12 98.5t37.5 92.5t61.5 77.5t88.5 53.5t114.5 20q34 0 69 -12.5t52 -31.5l24 -53l15 83h86z" unicode="g" horiz-adv-x="612" glyph-name="g"/>
<glyph d="M381 544q79 0 120.5 -36t41.5 -100q0 -41 -13 -110l-54 -298h-86l53 292q11 62 11 92q0 92 -98 92h-5q-154 -4 -196 -243l-41 -233h-86l130 740h86l-53 -301l44 61q64 44 146 44z" unicode="h" horiz-adv-x="595" glyph-name="h"/>
<glyph d="M114 0h-86l94 530h86zM196 704q21 0 34 -13t13 -33q0 -27 -19 -45.5t-46 -18.5q-21 0 -34 13t-13 33q0 27 19 45.5t46 18.5z" unicode="i" horiz-adv-x="234" glyph-name="i"/>
<glyph d="M193 530l-101 -576q-10 -49 -14 -64q-30 -100 -142 -100q-28 0 -41 2l13 70q6 -1 18 -1q54 0 68 44q6 16 13 55l100 570h86zM178 704q21 0 34 -13t13 -33q0 -27 -19 -45.5t-46 -18.5q-21 0 -34 13t-13 33q0 27 19 45.5t46 18.5z" unicode="j" horiz-adv-x="203" glyph-name="j"/>
<glyph d="M274 279l200 -279h-103l-160 231l-66 -58l-31 -173h-86l130 735h86l-82 -466l293 261h110z" unicode="k" horiz-adv-x="517" glyph-name="k"/>
<glyph d="M239 735l-103 -583q-7 -38 -7 -52q0 -21 9 -29.5t30 -8.5q12 0 19 1l-11 -63q-27 -4 -62 -4q-37 0 -57 14t-20 51q0 18 13 88l103 586h86z" unicode="l" horiz-adv-x="248" glyph-name="l"/>
<glyph d="M668 544q68 0 103 -35t35 -92q0 -33 -11 -93l-57 -324h-86l50 284q14 79 14 110q0 82 -90 82q-51 0 -93.5 -58t-60.5 -154v-2l-46 -262h-86l50 284q14 79 14 110q0 82 -90 82q-51 0 -94 -58.5t-60 -155.5l-46 -262h-86l93 530h86l-14 -78l45 61q44 31 118 31q59 0 93 -27 t43 -72l58 68q44 31 118 31z" unicode="m" horiz-adv-x="855" glyph-name="m"/>
<glyph d="M381 544q79 0 120.5 -36t41.5 -100q0 -41 -13 -110l-54 -298h-86l53 292q11 62 11 92q0 92 -98 92h-5q-154 -4 -196 -243l-41 -233h-86l93 530h86l-16 -91l44 61q64 44 146 44z" unicode="n" horiz-adv-x="595" glyph-name="n"/>
<glyph d="M266 52q63 0 110 39.5t68.5 96.5t21.5 120q0 75 -36.5 122.5t-107.5 47.5q-63 0 -110 -39.5t-68.5 -96.5t-21.5 -120q0 -75 36.5 -122.5t107.5 -47.5zM333 544q115 0 171 -67t56 -167q0 -56 -18 -111.5t-53 -104t-96 -78.5t-138 -30q-115 0 -171 67t-56 167 q0 56 18 111.5t53 104t96 78.5t138 30z" unicode="o" horiz-adv-x="588" glyph-name="o"/>
<glyph d="M286 52q95 0 151.5 81.5t56.5 190.5q0 70 -32.5 112t-95.5 42q-73 0 -129 -50.5t-75 -157.5l-5 -29q-4 -20 -4 -44q0 -64 33.5 -104.5t99.5 -40.5zM390 544q95 0 146.5 -60.5t51.5 -155.5q0 -50 -12 -98.5t-37.5 -92.5t-61.5 -77.5t-88.5 -53.5t-114.5 -20 q-34 0 -69 12.5t-52 31.5l-24 52l-50 -278h-86l129 726h86l-15 -85l50 57q57 42 147 42z" unicode="p" horiz-adv-x="614" glyph-name="p"/>
<glyph d="M452 260l5 29q4 20 4 44q0 64 -33.5 104.5t-99.5 40.5q-95 0 -151.5 -81.5t-56.5 -190.5q0 -70 32.5 -112t95.5 -42q73 0 129 50.5t75 157.5zM586 530l-129 -726h-86l50 280l-50 -56q-57 -42 -147 -42q-95 0 -146.5 60.5t-51.5 155.5q0 50 12 98.5t37.5 92.5t61.5 77.5 t88.5 53.5t114.5 20q34 0 69 -12.5t52 -31.5l24 -52l15 82h86z" unicode="q" horiz-adv-x="612" glyph-name="q"/>
<glyph d="M332 542q21 0 35 -7l-12 -65h-13q-65 0 -112.5 -42.5t-62.5 -125.5l-53 -302h-86l94 530h86l-15 -83l61 71q38 24 78 24z" unicode="r" horiz-adv-x="324" glyph-name="r"/>
<glyph d="M253 544q89 0 132 -44t45 -121h-90q-5 99 -91 99q-52 0 -77.5 -24.5t-25.5 -60.5q0 -35 24.5 -55.5t71.5 -34.5q81 -24 119 -60.5t38 -99.5q0 -71 -55.5 -117t-151.5 -46q-102 0 -150 49.5t-52 120.5h90q9 -104 119 -104q46 0 76 24.5t30 65.5q0 35 -24.5 57.5 t-81.5 39.5q-72 22 -109.5 55t-37.5 96q0 69 52.5 114.5t148.5 45.5z" unicode="s" horiz-adv-x="451" glyph-name="s"/>
<glyph d="M203 460l-54 -305q-7 -40 -7 -55q0 -41 48 -41q9 0 37 4l-12 -63q-29 -8 -64 -8q-99 0 -99 77q0 23 11 82l55 309h-70l12 66h69l22 123h86l-22 -123h91l-12 -66h-91z" unicode="t" horiz-adv-x="303" glyph-name="t"/>
<glyph d="M563 530l-93 -530h-86l16 91l-44 -61q-64 -44 -146 -44q-79 0 -120.5 36t-41.5 100q0 41 13 110l54 298h86l-53 -292q-11 -62 -11 -92q0 -92 98 -92h5q154 4 196 243l41 233h86z" unicode="u" horiz-adv-x="590" glyph-name="u"/>
<glyph d="M547 530l-295 -530h-110l-107 530h98l76 -461l239 461h99z" unicode="v" horiz-adv-x="494" glyph-name="v"/>
<glyph d="M813 530l-263 -530h-102l-39 444l-196 -444h-103l-75 530h99l44 -440l191 440h109l40 -441l201 441h94z" unicode="w" horiz-adv-x="760" glyph-name="w"/>
<glyph d="M283 264l142 -264h-102l-102 203l-173 -203h-101l234 265l-131 265h102l92 -206l173 206h102z" unicode="x" horiz-adv-x="473" glyph-name="x"/>
<glyph d="M547 530l-295 -530q-69 -124 -117.5 -167t-122.5 -43q-22 0 -42 3l12 71q16 -3 31 -3q41 0 69.5 20.5t56.5 72.5l9 17l-113 559h98l76 -467l239 467h99z" unicode="y" horiz-adv-x="494" glyph-name="y"/>
<glyph d="M470 457l-372 -389h309l-12 -68h-413l11 66l375 392h-284l12 68h386z" unicode="z" horiz-adv-x="474" glyph-name="z"/>
<glyph d="M361 780l-10 -56h-12q-54 0 -73 -23.5t-19 -103.5v-22v-18q0 -193 -117 -208q74 -8 74 -77q0 -46 -37 -147q-31 -85 -31 -112q0 -37 71 -37h12l-10 -56h-11q-61 0 -91.5 19t-30.5 69q0 32 36 127q32 85 32 129q0 51 -70 58l10 56q39 4 59.5 16t32.5 48t12 104v19v18 q0 116 34.5 156.5t127.5 40.5h11z" unicode="{" horiz-adv-x="303" glyph-name="braceleft"/>
<glyph d="M66 -200h-58l176 1000h58z" unicode="|" horiz-adv-x="250" glyph-name="bar"/>
<glyph d="M189 436q0 -51 70 -58l-10 -56q-39 -4 -59.5 -16t-32.5 -48t-12 -104v-19v-18q0 -116 -34.5 -156.5t-127.5 -40.5h-11l10 56h12q54 0 73 23.5t19 103.5v22v18q0 193 117 208q-74 8 -74 77q0 46 37 147q31 85 31 112q0 37 -71 37h-12l10 56h11q61 0 91.5 -19t30.5 -69 q0 -32 -36 -127q-32 -85 -32 -129z" unicode="}" horiz-adv-x="303" glyph-name="braceright"/>
<glyph d="M449 356h56q-23 -133 -134 -133q-27 0 -47 8.5t-61 32.5q-59 35 -88 35q-27 0 -41.5 -19t-21.5 -57h-56q23 133 134 133q27 0 47 -8.5t61 -32.5q60 -35 88 -35q27 0 41.5 19t21.5 57z" unicode="~" glyph-name="asciitilde"/>
<glyph d="M107 350h78l-88 -510h-102zM157 416q-25 0 -39.5 14t-14.5 37q0 33 22.5 55t53.5 22q25 0 39.5 -14t14.5 -37q0 -33 -22.5 -55t-53.5 -22z" unicode="¡" horiz-adv-x="260" glyph-name="exclamdown"/>
<glyph d="M124 198q0 -122 88 -143l74 420q-72 -15 -117 -90.5t-45 -186.5zM344 476l-74 -422q90 16 131 115h90q-72 -169 -233 -182l-14 -77h-58l14 77q-78 9 -124 62.5t-46 145.5q0 85 29.5 159.5t92 126t146.5 61.5l14 78h58l-14 -77q82 -6 123.5 -56.5t42.5 -134.5h-90 q-4 111 -88 124z" unicode="¢" glyph-name="cent"/>
<glyph d="M234 258q0 -62 -23 -105.5t-83 -82.5h352l-12 -70h-475l11 62q75 18 107 71t32 112q0 30 -11 72h-74l10 56h48q-14 50 -14 112q0 89 62.5 154t175.5 65q176 0 191 -196h-92q-4 66 -31 97t-83 31t-92.5 -42t-36.5 -107q0 -52 19 -114h217l-10 -56h-195q7 -28 7 -59z" unicode="£" glyph-name="sterling"/>
<glyph d="M164 288q0 -50 28 -79.5t70 -29.5q59 0 96.5 41t37.5 94q0 50 -28.5 79.5t-71.5 29.5q-59 0 -95.5 -41t-36.5 -94zM509 464l-73 -62q21 -39 21 -82q0 -73 -48 -130l44 -55l-46 -39l-46 54q-48 -29 -110 -29q-53 0 -95 37l-70 -59l-34 41l72 60q-21 36 -21 82q0 76 49 132 l-44 54l46 39l46 -53q46 27 107 27q54 0 96 -37l72 61z" unicode="¤" glyph-name="currency"/>
<glyph d="M367 357h120l-10 -56h-152l-13 -19l-8 -45h162l-10 -56h-162l-32 -181h-86l32 181h-162l10 56h162l9 52l-5 12h-155l10 56h124l-123 333h103l105 -331l225 331h101z" unicode="¥" glyph-name="yen"/>
<glyph d="M73 -160h-58l60 340h58zM163 350h-58l60 340h58z" unicode="¦" horiz-adv-x="250" glyph-name="brokenbar"/>
<glyph d="M331 147q50 4 78 31t28 67t-30.5 66t-98.5 49q-42 12 -77 33q-49 -7 -75 -34t-26 -65q0 -40 29.5 -65.5t89.5 -46.5q54 -20 82 -35zM531 252q0 -54 -35 -97.5t-97 -62.5q31 -39 31 -94q0 -78 -63 -125t-161 -47q-75 0 -128.5 44.5t-59.5 129.5h90q5 -54 36.5 -81 t75.5 -27q55 0 85.5 24.5t30.5 72.5q0 41 -29 67.5t-104 53.5q-82 30 -124.5 69.5t-42.5 106.5q0 52 34.5 95t101.5 64q-28 37 -28 90q0 67 53 118t147 51q76 0 122.5 -44.5t53.5 -121.5h-90q-5 47 -30 73.5t-69 26.5q-40 0 -66.5 -27t-26.5 -73q0 -72 116 -106 q177 -52 177 -180z" unicode="§" horiz-adv-x="560" glyph-name="section"/>
<glyph d="M231 675q17 0 28 -11t11 -28q0 -21 -17 -37t-38 -16q-17 0 -28 11t-11 28q0 21 17 37t38 16zM85 675q17 0 28 -11t11 -28q0 -21 -17 -37t-38 -16q-17 0 -28 11t-11 28q0 21 17 37t38 16z" unicode="¨" horiz-adv-x="300" glyph-name="dieresis"/>
<glyph d="M425 586q80 0 131.5 -44t66.5 -117h-92q-18 93 -106 93q-58 0 -89 -43.5t-31 -118.5t32.5 -119.5t87.5 -44.5q42 0 70.5 26.5t34.5 66.5h92q-18 -75 -69 -118t-137 -43q-92 0 -149.5 63t-57.5 166q0 107 59 170t157 63zM419 686q-136 0 -228.5 -95.5t-92.5 -235.5 q0 -141 92.5 -236t228.5 -95t228.5 95t92.5 236q0 140 -92.5 235.5t-228.5 95.5zM419 744q162 0 272.5 -112t110.5 -277t-110.5 -277t-272.5 -112t-272.5 112t-110.5 277t110.5 277t272.5 112z" unicode="©" horiz-adv-x="838" glyph-name="copyright"/>
<glyph d="M350 241l103 -159h-71l-108 166l166 166h83zM190 241l103 -159h-71l-108 166l166 166h83z" unicode="«" horiz-adv-x="537" glyph-name="guillemotleft"/>
<glyph d="M430 210h-58l20 118h-311l10 56h369z" unicode="¬" glyph-name="logicalnot"/>
<glyph d="M231 565h20q11 0 17 1q28 3 28 28q0 20 -20 23q-6 1 -16 1h-20zM294 658q55 -6 55 -54q0 -43 -48 -56q23 -9 23 -36v-11q0 -28 7 -46h-56q-4 23 -4 49q0 19 -24 19h-23l-12 -68h-50l36 204h70q18 0 26 -1zM240 390q84 0 134.5 54.5t50.5 132.5q0 63 -41.5 102t-113.5 39 q-84 0 -134.5 -54.5t-50.5 -132.5q0 -63 41.5 -102t113.5 -39zM278 764q89 0 142 -53t53 -134q0 -95 -66 -164t-175 -69q-89 0 -142 53t-53 134q0 95 66 164t175 69z" unicode="®" horiz-adv-x="508" glyph-name="registered"/>
<glyph d="M265 604h-240l10 52h240z" unicode="¯" horiz-adv-x="300" glyph-name="macron"/>
<glyph d="M223 693q-30 0 -49 -19.5t-19 -55.5q0 -25 14.5 -38t37.5 -13q30 0 49 19.5t19 55.5q0 25 -14.5 38t-37.5 13zM229 749q49 0 79 -29t30 -73q0 -58 -36.5 -97t-100.5 -39q-49 0 -79 29t-30 73q0 58 36.5 97t100.5 39z" unicode="°" horiz-adv-x="301" glyph-name="degree"/>
<glyph d="M34 56h420l-10 -56h-420zM505 347l-10 -56h-181l-32 -180h-58l32 180h-181l10 56h181l31 176h58l-31 -176h181z" unicode="±" glyph-name="plusminus"/>
<glyph d="M162 580h-56l81 110h80z" unicode="´" horiz-adv-x="300" glyph-name="acute"/>
<glyph d="M559 690l-142 -800h-58l132 744h-92l-132 -744h-58l76 430h-23q-39 0 -56 1q-60 4 -94 50t-34 108q0 74 49.5 139t143.5 71q18 1 57 1h231z" unicode="¶" horiz-adv-x="557" glyph-name="paragraph"/>
<glyph d="M120 374q26 0 42 -16t16 -40q0 -33 -24.5 -57.5t-57.5 -24.5q-26 0 -42 16t-16 40q0 33 24.5 57.5t57.5 24.5z" unicode="·" horiz-adv-x="202" glyph-name="periodcentered"/>
<glyph d="M185 9l-36 -49q33 -6 50.5 -26t17.5 -49q0 -48 -37.5 -71.5t-96.5 -23.5q-35 0 -54 9l8 40q18 -7 51 -7q35 0 53 13t18 35q0 43 -66 43q-15 0 -23 -1l62 87h53z" unicode="¸" horiz-adv-x="300" glyph-name="cedilla"/>
<glyph d="M417 248l-166 -166h-83l173 173l-103 159h71zM257 248l-166 -166h-83l173 173l-103 159h71z" unicode="»" horiz-adv-x="537" glyph-name="guillemotright"/>
<glyph d="M225 -174q-87 0 -137 41.5t-50 107.5q0 61 31.5 113.5t113.5 124.5q48 42 69 71t32 66h86q-8 -41 -29.5 -73.5t-79.5 -89.5q-76 -74 -102.5 -117.5t-26.5 -86.5t28 -66t76 -23q59 0 99.5 35.5t52.5 106.5h90q-15 -97 -84.5 -153.5t-168.5 -56.5zM337 416q-25 0 -39.5 14 t-14.5 37q0 33 22.5 55t53.5 22q25 0 39.5 -14t14.5 -37q0 -33 -22.5 -55t-53.5 -22z" unicode="¿" horiz-adv-x="553" glyph-name="questiondown"/>
<glyph d="M449 314l-47 308l-159 -308h206zM460 244h-253l-126 -244h-98l370 690h122l116 -690h-93zM403 736l-62 94h80l38 -94h-56z" unicode="À" horiz-adv-x="646" glyph-name="Agrave"/>
<glyph d="M449 314l-47 308l-159 -308h206zM460 244h-253l-126 -244h-98l370 690h122l116 -690h-93zM450 736h-56l70 94h80z" unicode="Á" horiz-adv-x="646" glyph-name="Aacute"/>
<glyph d="M449 314l-47 308l-159 -308h206zM460 244h-253l-126 -244h-98l370 690h122l116 -690h-93zM397 736h-66l83 94h59l51 -94h-67l-21 55z" unicode="Â" horiz-adv-x="646" glyph-name="Acircumflex"/>
<glyph d="M449 314l-47 308l-159 -308h206zM460 244h-253l-126 -244h-98l370 690h122l116 -690h-93zM381 770q-16 0 -20 -20h-38q7 40 23 55.5t42 15.5q23 0 59 -13q32 -11 42 -11q16 0 20 20h38q-7 -40 -23 -55.5t-42 -15.5q-23 0 -59 13q-32 11 -42 11z" unicode="Ã" horiz-adv-x="646" glyph-name="Atilde"/>
<glyph d="M449 314l-47 308l-159 -308h206zM460 244h-253l-126 -244h-98l370 690h122l116 -690h-93zM497 737q-17 0 -28 11t-11 28q0 21 17 37t38 16q17 0 28 -11t11 -28q0 -21 -17 -37t-38 -16zM357 737q-17 0 -28 11t-11 28q0 21 17 37t38 16q17 0 28 -11t11 -28q0 -21 -17 -37 t-38 -16z" unicode="Ä" horiz-adv-x="646" glyph-name="Adieresis"/>
<glyph d="M449 314l-47 308l-159 -308h206zM460 244h-253l-126 -244h-98l370 690h122l116 -690h-93zM446 838q-21 0 -35.5 -13.5t-14.5 -37.5q0 -15 9.5 -25t24.5 -10q21 0 35.5 13.5t14.5 37.5q0 15 -9.5 25t-24.5 10zM428 716q-38 0 -60 19t-22 48q0 42 29.5 66.5t72.5 24.5 q38 0 60 -19t22 -48q0 -42 -29.5 -66.5t-72.5 -24.5z" unicode="Å" horiz-adv-x="646" glyph-name="Aring"/>
<glyph d="M484 602l-218 -288h184zM569 620l-27 -240h332l-12 -70h-329l-27 -240h354l-13 -70h-435l29 244h-228l-185 -244h-108l530 690h509l-13 -70h-377z" unicode="Æ" horiz-adv-x="929" glyph-name="AE"/>
<glyph d="M444 704q121 0 186 -58.5t65 -154.5q0 -14 -1 -21l-1 -10h-86v10q0 87 -44 126.5t-133 39.5q-122 0 -199 -102.5t-77 -251.5q0 -113 48.5 -170.5t135.5 -57.5q155 0 219 166l4 10h86l-3 -10q-30 -107 -111 -170.5t-212 -63.5q-23 0 -46 3l-21 -29q33 -6 50.5 -26 t17.5 -49q0 -48 -37.5 -71.5t-96.5 -23.5q-35 0 -54 9l8 40q18 -7 51 -7q35 0 53 13t18 35q0 43 -66 43q-15 0 -23 -1l54 76q-84 25 -128.5 96.5t-43.5 176.5q-1 184 109 308.5t278 124.5z" unicode="Ç" horiz-adv-x="717" glyph-name="Ccedilla"/>
<glyph d="M248 620l-43 -240h333l-12 -70h-333l-43 -240h374l-13 -70h-459l122 690h449l-13 -70h-362zM394 736l-62 94h80l38 -94h-56z" unicode="È" horiz-adv-x="593" glyph-name="Egrave"/>
<glyph d="M248 620l-43 -240h333l-12 -70h-333l-43 -240h374l-13 -70h-459l122 690h449l-13 -70h-362zM441 736h-56l70 94h80z" unicode="É" horiz-adv-x="593" glyph-name="Eacute"/>
<glyph d="M248 620l-43 -240h333l-12 -70h-333l-43 -240h374l-13 -70h-459l122 690h449l-13 -70h-362zM388 736h-66l83 94h59l51 -94h-67l-21 55z" unicode="Ê" horiz-adv-x="593" glyph-name="Ecircumflex"/>
<glyph d="M248 620l-43 -240h333l-12 -70h-333l-43 -240h374l-13 -70h-459l122 690h449l-13 -70h-362zM488 737q-17 0 -28 11t-11 28q0 21 17 37t38 16q17 0 28 -11t11 -28q0 -21 -17 -37t-38 -16zM348 737q-17 0 -28 11t-11 28q0 21 17 37t38 16q17 0 28 -11t11 -28q0 -21 -17 -37 t-38 -16z" unicode="Ë" horiz-adv-x="593" glyph-name="Edieresis"/>
<glyph d="M138 0h-86l122 690h86zM257 736h-56l-62 94h80z" unicode="Ì" horiz-adv-x="263" glyph-name="Igrave"/>
<glyph d="M138 0h-86l122 690h86zM248 736h-56l70 94h80z" unicode="Í" horiz-adv-x="263" glyph-name="Iacute"/>
<glyph d="M174 690h86l-122 -690h-86zM195 736h-66l83 94h59l51 -94h-67l-21 55z" unicode="Î" horiz-adv-x="263" glyph-name="Icircumflex"/>
<glyph d="M138 0h-86l122 690h86zM311 829q17 0 28 -11t11 -28q0 -21 -17 -37t-38 -16q-17 0 -28 11t-11 28q0 21 17 37t38 16zM171 829q17 0 28 -11t11 -28q0 -21 -17 -37t-38 -16q-17 0 -28 11t-11 28q0 21 17 37t38 16z" unicode="Ï" horiz-adv-x="263" glyph-name="Idieresis"/>
<glyph d="M334 74q88 12 148 60.5t86 113.5t26 142q0 102 -47 159t-123 67q-29 4 -76 4h-101l-46 -259h124l-10 -56h-123l-42 -235h106q49 0 78 4zM438 687q110 -10 180.5 -85.5t70.5 -209.5q0 -69 -23 -133.5t-66.5 -119t-114 -91.5t-158.5 -45q-36 -3 -89 -3h-186l54 305h-95 l10 56h95l58 329h177q53 0 87 -3z" unicode="Ð" horiz-adv-x="711" glyph-name="Eth"/>
<glyph d="M714 690l-122 -690h-132l-217 608l-105 -608h-86l122 690h132l215 -608l107 608h86zM406 770q-16 0 -20 -20h-38q7 40 23 55.5t42 15.5q23 0 59 -13q32 -11 42 -11q16 0 20 20h38q-7 -40 -23 -55.5t-42 -15.5q-23 0 -59 13q-32 11 -42 11z" unicode="Ñ" horiz-adv-x="717" glyph-name="Ntilde"/>
<glyph d="M355 54q68 0 122.5 32.5t87 84.5t49.5 112.5t17 121.5q0 105 -54 168t-148 63q-68 0 -122.5 -32.5t-87 -84.5t-49.5 -112.5t-17 -121.5q0 -105 54 -168t148 -63zM447 704q132 0 205 -85t73 -214q0 -80 -23.5 -153t-69 -133.5t-122 -96.5t-173.5 -36q-132 0 -205 85 t-73 214q0 80 23.5 153t69 133.5t122 96.5t173.5 36zM431 736l-62 94h80l38 -94h-56z" unicode="Ò" horiz-adv-x="747" glyph-name="Ograve"/>
<glyph d="M355 54q68 0 122.5 32.5t87 84.5t49.5 112.5t17 121.5q0 105 -54 168t-148 63q-68 0 -122.5 -32.5t-87 -84.5t-49.5 -112.5t-17 -121.5q0 -105 54 -168t148 -63zM447 704q132 0 205 -85t73 -214q0 -80 -23.5 -153t-69 -133.5t-122 -96.5t-173.5 -36q-132 0 -205 85 t-73 214q0 80 23.5 153t69 133.5t122 96.5t173.5 36zM478 736h-56l70 94h80z" unicode="Ó" horiz-adv-x="747" glyph-name="Oacute"/>
<glyph d="M355 54q68 0 122.5 32.5t87 84.5t49.5 112.5t17 121.5q0 105 -54 168t-148 63q-68 0 -122.5 -32.5t-87 -84.5t-49.5 -112.5t-17 -121.5q0 -105 54 -168t148 -63zM447 704q132 0 205 -85t73 -214q0 -80 -23.5 -153t-69 -133.5t-122 -96.5t-173.5 -36q-132 0 -205 85 t-73 214q0 80 23.5 153t69 133.5t122 96.5t173.5 36zM425 736h-66l83 94h59l51 -94h-67l-21 55z" unicode="Ô" horiz-adv-x="747" glyph-name="Ocircumflex"/>
<glyph d="M355 54q68 0 122.5 32.5t87 84.5t49.5 112.5t17 121.5q0 105 -54 168t-148 63q-68 0 -122.5 -32.5t-87 -84.5t-49.5 -112.5t-17 -121.5q0 -105 54 -168t148 -63zM447 704q132 0 205 -85t73 -214q0 -80 -23.5 -153t-69 -133.5t-122 -96.5t-173.5 -36q-132 0 -205 85 t-73 214q0 80 23.5 153t69 133.5t122 96.5t173.5 36zM409 770q-16 0 -20 -20h-38q7 40 23 55.5t42 15.5q23 0 59 -13q32 -11 42 -11q16 0 20 20h38q-7 -40 -23 -55.5t-42 -15.5q-23 0 -59 13q-32 11 -42 11z" unicode="Õ" horiz-adv-x="747" glyph-name="Otilde"/>
<glyph d="M355 54q68 0 122.5 32.5t87 84.5t49.5 112.5t17 121.5q0 105 -54 168t-148 63q-68 0 -122.5 -32.5t-87 -84.5t-49.5 -112.5t-17 -121.5q0 -105 54 -168t148 -63zM447 704q132 0 205 -85t73 -214q0 -80 -23.5 -153t-69 -133.5t-122 -96.5t-173.5 -36q-132 0 -205 85 t-73 214q0 80 23.5 153t69 133.5t122 96.5t173.5 36zM525 737q-17 0 -28 11t-11 28q0 21 17 37t38 16q17 0 28 -11t11 -28q0 -21 -17 -37t-38 -16zM385 737q-17 0 -28 11t-11 28q0 21 17 37t38 16q17 0 28 -11t11 -28q0 -21 -17 -37t-38 -16z" unicode="Ö" horiz-adv-x="747" glyph-name="Odieresis"/>
<glyph d="M325 310l110 -134l-49 -41l-110 134l-162 -138l-41 49l162 138l-110 134l49 41l110 -134l162 138l41 -49z" unicode="×" glyph-name="multiply"/>
<glyph d="M636 405q0 55 -15 99l-427 -362q54 -88 166 -88q68 0 122.5 32.5t87 84.5t49.5 112.5t17 121.5zM158 285q0 -47 13 -93l425 362q-54 82 -162 82q-68 0 -122.5 -32.5t-87 -84.5t-49.5 -112.5t-17 -121.5zM778 638l-85 -72q37 -70 37 -161q0 -80 -23.5 -153t-69 -133.5 t-122 -96.5t-173.5 -36q-139 0 -216 98l-86 -73l-34 41l92 78q-34 67 -34 155q0 80 23.5 153t69 133.5t122 96.5t173.5 36q135 0 212 -93l80 68z" unicode="Ø" horiz-adv-x="748" glyph-name="Oslash"/>
<glyph d="M688 690l-77 -435q-7 -37 -13 -62q-50 -207 -293 -207q-109 0 -164 49.5t-55 143.5q0 40 8 83l76 428h86l-74 -420q-10 -57 -10 -88q0 -60 36.5 -94t108.5 -34q80 0 127.5 35t69.5 113q6 20 13 61l75 427h86zM469 736h-56l-62 94h80z" unicode="Ù" horiz-adv-x="683" glyph-name="Ugrave"/>
<glyph d="M688 690l-77 -435q-7 -37 -13 -62q-50 -207 -293 -207q-109 0 -164 49.5t-55 143.5q0 40 8 83l76 428h86l-74 -420q-10 -57 -10 -88q0 -60 36.5 -94t108.5 -34q80 0 127.5 35t69.5 113q6 20 13 61l75 427h86zM460 736h-56l70 94h80z" unicode="Ú" horiz-adv-x="683" glyph-name="Uacute"/>
<glyph d="M688 690l-77 -435q-7 -37 -13 -62q-50 -207 -293 -207q-109 0 -164 49.5t-55 143.5q0 40 8 83l76 428h86l-74 -420q-10 -57 -10 -88q0 -60 36.5 -94t108.5 -34q80 0 127.5 35t69.5 113q6 20 13 61l75 427h86zM407 736h-66l83 94h59l51 -94h-67l-21 55z" unicode="Û" horiz-adv-x="683" glyph-name="Ucircumflex"/>
<glyph d="M688 690l-77 -435q-7 -37 -13 -62q-50 -207 -293 -207q-109 0 -164 49.5t-55 143.5q0 40 8 83l76 428h86l-74 -420q-10 -57 -10 -88q0 -60 36.5 -94t108.5 -34q80 0 127.5 35t69.5 113q6 20 13 61l75 427h86zM523 829q17 0 28 -11t11 -28q0 -21 -17 -37t-38 -16 q-17 0 -28 11t-11 28q0 21 17 37t38 16zM383 829q17 0 28 -11t11 -28q0 -21 -17 -37t-38 -16q-17 0 -28 11t-11 28q0 21 17 37t38 16z" unicode="Ü" horiz-adv-x="683" glyph-name="Udieresis"/>
<glyph d="M349 268l-47 -268h-86l48 272l-170 418h91l134 -340l248 340h101zM412 736h-56l70 94h80z" unicode="Ý" horiz-adv-x="581" glyph-name="Yacute"/>
<glyph d="M515 406q2 10 2 27q0 73 -76 92q-24 5 -76 5h-133l-44 -247h133q53 0 78 5q98 21 116 118zM467 598q66 -9 105 -47.5t39 -102.5q0 -21 -4 -40q-15 -82 -72 -132.5t-136 -60.5q-32 -4 -91 -4h-133l-37 -211h-86l122 690h86l-16 -88h133q59 0 90 -4z" unicode="Þ" horiz-adv-x="609" glyph-name="Thorn"/>
<glyph d="M382 754q96 0 146 -42.5t50 -111.5q0 -65 -45 -124q-54 -26 -73 -46.5t-19 -46.5q0 -38 43 -81q67 -64 67 -140q0 -68 -57.5 -117t-160.5 -49q-49 0 -96 10l12 69q50 -13 92 -13q61 0 88.5 29.5t27.5 68.5q0 52 -48 101q-35 36 -47.5 60t-12.5 60q0 79 108 133 q27 40 27 86q0 39 -28 62.5t-83 23.5q-138 0 -173 -198l-86 -488h-86l85 480q11 61 27.5 106t46 85.5t79 61.5t116.5 21z" unicode="ß" horiz-adv-x="587" glyph-name="germandbls"/>
<glyph d="M197 52q52 0 99.5 43t59.5 106l10 55q-30 3 -57 3q-90 0 -146.5 -32t-56.5 -95q0 -38 25 -59t66 -21zM304 544q86 0 128 -35t42 -96q0 -27 -9 -79l-35 -199q-10 -57 -14 -135h-86l4 76l-38 -48q-43 -42 -139 -42q-60 0 -102.5 35.5t-42.5 101.5q0 99 82.5 149t219.5 50 q30 0 63 -3l2 14q9 50 9 71q0 33 -20.5 53.5t-64.5 20.5q-65 0 -98 -27.5t-46 -84.5h-90q17 84 79.5 131t155.5 47zM295 580l-65 110h80l41 -110h-56z" unicode="à" horiz-adv-x="506" glyph-name="agrave"/>
<glyph d="M197 52q52 0 99.5 43t59.5 106l10 55q-30 3 -57 3q-90 0 -146.5 -32t-56.5 -95q0 -38 25 -59t66 -21zM304 544q86 0 128 -35t42 -96q0 -27 -9 -79l-35 -199q-10 -57 -14 -135h-86l4 76l-38 -48q-43 -42 -139 -42q-60 0 -102.5 35.5t-42.5 101.5q0 99 82.5 149t219.5 50 q30 0 63 -3l2 14q9 50 9 71q0 33 -20.5 53.5t-64.5 20.5q-65 0 -98 -27.5t-46 -84.5h-90q17 84 79.5 131t155.5 47zM341 580h-56l81 110h80z" unicode="á" horiz-adv-x="506" glyph-name="aacute"/>
<glyph d="M197 52q52 0 99.5 43t59.5 106l10 55q-30 3 -57 3q-90 0 -146.5 -32t-56.5 -95q0 -38 25 -59t66 -21zM304 544q86 0 128 -35t42 -96q0 -27 -9 -79l-35 -199q-10 -57 -14 -135h-86l4 76l-38 -48q-43 -42 -139 -42q-60 0 -102.5 35.5t-42.5 101.5q0 99 82.5 149t219.5 50 q30 0 63 -3l2 14q9 50 9 71q0 33 -20.5 53.5t-64.5 20.5q-65 0 -98 -27.5t-46 -84.5h-90q17 84 79.5 131t155.5 47zM286 580h-63l87 110h59l47 -110h-64l-22 63z" unicode="â" horiz-adv-x="506" glyph-name="acircumflex"/>
<glyph d="M197 52q52 0 99.5 43t59.5 106l10 55q-30 3 -57 3q-90 0 -146.5 -32t-56.5 -95q0 -38 25 -59t66 -21zM304 544q86 0 128 -35t42 -96q0 -27 -9 -79l-35 -199q-10 -57 -14 -135h-86l4 76l-38 -48q-43 -42 -139 -42q-60 0 -102.5 35.5t-42.5 101.5q0 99 82.5 149t219.5 50 q30 0 63 -3l2 14q9 50 9 71q0 33 -20.5 53.5t-64.5 20.5q-65 0 -98 -27.5t-46 -84.5h-90q17 84 79.5 131t155.5 47zM274 620q-16 0 -20 -20h-38q7 40 23 55.5t42 15.5q23 0 59 -13q32 -11 42 -11q16 0 20 20h38q-7 -40 -23 -55.5t-42 -15.5q-23 0 -59 13q-32 11 -42 11z" unicode="ã" horiz-adv-x="506" glyph-name="atilde"/>
<glyph d="M197 52q52 0 99.5 43t59.5 106l10 55q-30 3 -57 3q-90 0 -146.5 -32t-56.5 -95q0 -38 25 -59t66 -21zM304 544q86 0 128 -35t42 -96q0 -27 -9 -79l-35 -199q-10 -57 -14 -135h-86l4 76l-38 -48q-43 -42 -139 -42q-60 0 -102.5 35.5t-42.5 101.5q0 99 82.5 149t219.5 50 q30 0 63 -3l2 14q9 50 9 71q0 33 -20.5 53.5t-64.5 20.5q-65 0 -98 -27.5t-46 -84.5h-90q17 84 79.5 131t155.5 47zM392 583q-17 0 -28 11t-11 28q0 21 17 37t38 16q17 0 28 -11t11 -28q0 -21 -17 -37t-38 -16zM246 583q-17 0 -28 11t-11 28q0 21 17 37t38 16q17 0 28 -11 t11 -28q0 -21 -17 -37t-38 -16z" unicode="ä" horiz-adv-x="506" glyph-name="adieresis"/>
<glyph d="M197 52q52 0 99.5 43t59.5 106l10 55q-30 3 -57 3q-90 0 -146.5 -32t-56.5 -95q0 -38 25 -59t66 -21zM304 544q86 0 128 -35t42 -96q0 -27 -9 -79l-35 -199q-10 -57 -14 -135h-86l4 76l-38 -48q-43 -42 -139 -42q-60 0 -102.5 35.5t-42.5 101.5q0 99 82.5 149t219.5 50 q30 0 63 -3l2 14q9 50 9 71q0 33 -20.5 53.5t-64.5 20.5q-65 0 -98 -27.5t-46 -84.5h-90q17 84 79.5 131t155.5 47zM339 697q-21 0 -35.5 -16.5t-14.5 -43.5q0 -36 34 -36q21 0 35.5 16.5t14.5 43.5q0 36 -34 36zM316 565q-35 0 -56.5 19t-21.5 49q0 42 31.5 71t76.5 29 q35 0 56.5 -19t21.5 -49q0 -42 -31.5 -71t-76.5 -29z" unicode="å" horiz-adv-x="506" glyph-name="aring"/>
<glyph d="M198 52q61 0 109 43t61 114l5 30q-19 1 -55 1q-105 0 -158 -26.5t-53 -86.5q0 -36 24 -55.5t67 -19.5zM657 478q-65 0 -114 -44.5t-72 -128.5h297q2 22 2 36q0 137 -113 137zM841 239h-382q-3 -23 -3 -42q0 -73 32.5 -109t87.5 -36q53 0 96.5 31.5t61.5 87.5h90 q-31 -91 -103.5 -138t-159.5 -47q-142 0 -178 115l-37 -54q-41 -35 -80 -48t-101 -13q-67 0 -110.5 36t-43.5 95q0 188 340 188h34q10 56 10 77q0 96 -94 96q-109 0 -134 -112h-90q17 84 79.5 131t155.5 47q137 0 160 -90q82 90 198 90q91 0 139 -53t48 -144q0 -57 -16 -108 z" unicode="æ" horiz-adv-x="877" glyph-name="ae"/>
<glyph d="M235 52q114 0 161 117h90q-74 -177 -252 -183l-19 -26q33 -6 50.5 -26t17.5 -49q0 -48 -37.5 -71.5t-96.5 -23.5q-35 0 -54 9l8 40q18 -7 51 -7q35 0 53 13t18 35q0 43 -66 43q-15 0 -23 -1l48 67q-73 11 -116 64t-43 142q0 91 33.5 169t104 129t165.5 51q93 0 139.5 -51 t47.5 -141h-90q-6 126 -113 126q-83 0 -138 -78t-55 -202q0 -73 32 -109.5t84 -36.5z" unicode="ç" horiz-adv-x="531" glyph-name="ccedilla"/>
<glyph d="M307 478q-72 0 -115 -48.5t-61 -124.5h300q2 26 2 37q0 65 -34 100.5t-92 35.5zM504 239h-383q-2 -28 -2 -42q0 -73 32.5 -109t87.5 -36q53 0 96.5 31.5t61.5 87.5h90q-31 -91 -103.5 -138t-159.5 -47q-91 0 -145 54.5t-54 153.5q0 61 17 120t50.5 112t92.5 85.5 t135 32.5q92 0 146 -53.5t54 -143.5q0 -57 -16 -108zM311 580l-65 110h80l41 -110h-56z" unicode="è" horiz-adv-x="539" glyph-name="egrave"/>
<glyph d="M307 478q-72 0 -115 -48.5t-61 -124.5h300q2 26 2 37q0 65 -34 100.5t-92 35.5zM504 239h-383q-2 -28 -2 -42q0 -73 32.5 -109t87.5 -36q53 0 96.5 31.5t61.5 87.5h90q-31 -91 -103.5 -138t-159.5 -47q-91 0 -145 54.5t-54 153.5q0 61 17 120t50.5 112t92.5 85.5 t135 32.5q92 0 146 -53.5t54 -143.5q0 -57 -16 -108zM357 580h-56l81 110h80z" unicode="é" horiz-adv-x="539" glyph-name="eacute"/>
<glyph d="M307 478q-72 0 -115 -48.5t-61 -124.5h300q2 26 2 37q0 65 -34 100.5t-92 35.5zM504 239h-383q-2 -28 -2 -42q0 -73 32.5 -109t87.5 -36q53 0 96.5 31.5t61.5 87.5h90q-31 -91 -103.5 -138t-159.5 -47q-91 0 -145 54.5t-54 153.5q0 61 17 120t50.5 112t92.5 85.5 t135 32.5q92 0 146 -53.5t54 -143.5q0 -57 -16 -108zM302 580h-63l87 110h59l47 -110h-64l-22 63z" unicode="ê" horiz-adv-x="539" glyph-name="ecircumflex"/>
<glyph d="M307 478q-72 0 -115 -48.5t-61 -124.5h300q2 26 2 37q0 65 -34 100.5t-92 35.5zM504 239h-383q-2 -28 -2 -42q0 -73 32.5 -109t87.5 -36q53 0 96.5 31.5t61.5 87.5h90q-31 -91 -103.5 -138t-159.5 -47q-91 0 -145 54.5t-54 153.5q0 61 17 120t50.5 112t92.5 85.5 t135 32.5q92 0 146 -53.5t54 -143.5q0 -57 -16 -108zM408 583q-17 0 -28 11t-11 28q0 21 17 37t38 16q17 0 28 -11t11 -28q0 -21 -17 -37t-38 -16zM262 583q-17 0 -28 11t-11 28q0 21 17 37t38 16q17 0 28 -11t11 -28q0 -21 -17 -37t-38 -16z" unicode="ë" horiz-adv-x="539" glyph-name="edieresis"/>
<glyph d="M114 0h-86l94 530h86zM206 580h-56l-65 110h80z" unicode="ì" horiz-adv-x="234" glyph-name="igrave"/>
<glyph d="M114 0h-86l94 530h86zM196 580h-56l81 110h80z" unicode="í" horiz-adv-x="234" glyph-name="iacute"/>
<glyph d="M122 530h86l-94 -530h-86zM141 580h-63l87 110h59l47 -110h-64l-22 63z" unicode="î" horiz-adv-x="234" glyph-name="icircumflex"/>
<glyph d="M114 0h-86l94 530h86zM263 675q17 0 28 -11t11 -28q0 -21 -17 -37t-38 -16q-17 0 -28 11t-11 28q0 21 17 37t38 16zM117 675q17 0 28 -11t11 -28q0 -21 -17 -37t-38 -16q-17 0 -28 11t-11 28q0 21 17 37t38 16z" unicode="ï" horiz-adv-x="234" glyph-name="idieresis"/>
<glyph d="M241 52q70 0 118 45t67 107t19 133t-39 106t-94 35q-49 0 -88 -26.5t-61 -68t-33 -86.5t-11 -89q0 -156 122 -156zM552 665l-61 -24q48 -85 48 -271q0 -73 -17 -138.5t-51.5 -122t-95.5 -90t-141 -33.5q-102 0 -155.5 62t-53.5 157q0 44 11 90t34.5 90.5t56.5 80t81.5 57 t104.5 21.5q69 0 112 -29l29 -52q-4 97 -38 150l-137 -53l-18 49l118 45q-30 25 -67 40l60 51q55 -25 87 -60l75 29z" unicode="ð" horiz-adv-x="596" glyph-name="eth"/>
<glyph d="M381 544q79 0 120.5 -36t41.5 -100q0 -41 -13 -110l-54 -298h-86l53 292q11 62 11 92q0 92 -98 92h-5q-154 -4 -196 -243l-41 -233h-86l93 530h86l-16 -91l44 61q64 44 146 44zM316 620q-16 0 -20 -20h-38q7 40 23 55.5t42 15.5q23 0 59 -13q32 -11 42 -11q16 0 20 20h38 q-7 -40 -23 -55.5t-42 -15.5q-23 0 -59 13q-32 11 -42 11z" unicode="ñ" horiz-adv-x="595" glyph-name="ntilde"/>
<glyph d="M266 52q63 0 110 39.5t68.5 96.5t21.5 120q0 75 -36.5 122.5t-107.5 47.5q-63 0 -110 -39.5t-68.5 -96.5t-21.5 -120q0 -75 36.5 -122.5t107.5 -47.5zM333 544q115 0 171 -67t56 -167q0 -56 -18 -111.5t-53 -104t-96 -78.5t-138 -30q-115 0 -171 67t-56 167 q0 56 18 111.5t53 104t96 78.5t138 30zM326 580l-65 110h80l41 -110h-56z" unicode="ò" horiz-adv-x="588" glyph-name="ograve"/>
<glyph d="M266 52q63 0 110 39.5t68.5 96.5t21.5 120q0 75 -36.5 122.5t-107.5 47.5q-63 0 -110 -39.5t-68.5 -96.5t-21.5 -120q0 -75 36.5 -122.5t107.5 -47.5zM333 544q115 0 171 -67t56 -167q0 -56 -18 -111.5t-53 -104t-96 -78.5t-138 -30q-115 0 -171 67t-56 167 q0 56 18 111.5t53 104t96 78.5t138 30zM372 580h-56l81 110h80z" unicode="ó" horiz-adv-x="588" glyph-name="oacute"/>
<glyph d="M266 52q63 0 110 39.5t68.5 96.5t21.5 120q0 75 -36.5 122.5t-107.5 47.5q-63 0 -110 -39.5t-68.5 -96.5t-21.5 -120q0 -75 36.5 -122.5t107.5 -47.5zM333 544q115 0 171 -67t56 -167q0 -56 -18 -111.5t-53 -104t-96 -78.5t-138 -30q-115 0 -171 67t-56 167 q0 56 18 111.5t53 104t96 78.5t138 30zM317 580h-63l87 110h59l47 -110h-64l-22 63z" unicode="ô" horiz-adv-x="588" glyph-name="ocircumflex"/>
<glyph d="M266 52q63 0 110 39.5t68.5 96.5t21.5 120q0 75 -36.5 122.5t-107.5 47.5q-63 0 -110 -39.5t-68.5 -96.5t-21.5 -120q0 -75 36.5 -122.5t107.5 -47.5zM333 544q115 0 171 -67t56 -167q0 -56 -18 -111.5t-53 -104t-96 -78.5t-138 -30q-115 0 -171 67t-56 167 q0 56 18 111.5t53 104t96 78.5t138 30zM305 620q-16 0 -20 -20h-38q7 40 23 55.5t42 15.5q23 0 59 -13q32 -11 42 -11q16 0 20 20h38q-7 -40 -23 -55.5t-42 -15.5q-23 0 -59 13q-32 11 -42 11z" unicode="õ" horiz-adv-x="588" glyph-name="otilde"/>
<glyph d="M266 52q63 0 110 39.5t68.5 96.5t21.5 120q0 75 -36.5 122.5t-107.5 47.5q-63 0 -110 -39.5t-68.5 -96.5t-21.5 -120q0 -75 36.5 -122.5t107.5 -47.5zM333 544q115 0 171 -67t56 -167q0 -56 -18 -111.5t-53 -104t-96 -78.5t-138 -30q-115 0 -171 67t-56 167 q0 56 18 111.5t53 104t96 78.5t138 30zM423 583q-17 0 -28 11t-11 28q0 21 17 37t38 16q17 0 28 -11t11 -28q0 -21 -17 -37t-38 -16zM277 583q-17 0 -28 11t-11 28q0 21 17 37t38 16q17 0 28 -11t11 -28q0 -21 -17 -37t-38 -16z" unicode="ö" horiz-adv-x="588" glyph-name="odieresis"/>
<glyph d="M264 213q22 0 34.5 -12.5t12.5 -33.5q0 -27 -20 -46.5t-47 -19.5q-21 0 -34 12.5t-13 32.5q0 28 20 47.5t47 19.5zM485 291h-420l10 56h420zM320 533q21 0 34 -12.5t13 -32.5q0 -28 -20 -47.5t-47 -19.5q-22 0 -34.5 12.5t-12.5 33.5q0 27 20 46.5t47 19.5z" unicode="÷" glyph-name="divide"/>
<glyph d="M476 308q0 30 -6 57l-306 -260q38 -53 112 -53q63 0 110 39.5t68.5 96.5t21.5 120zM132 222q0 -36 9 -67l308 262q-38 61 -117 61q-63 0 -110 -39.5t-68.5 -96.5t-21.5 -120zM638 508l-93 -79q25 -53 25 -119q0 -56 -18 -111.5t-53 -104t-96 -78.5t-138 -30 q-109 0 -167 63l-80 -68l-34 41l83 70q-29 55 -29 128q0 56 18 111.5t53 104t96 78.5t138 30q114 0 173 -70l88 75z" unicode="ø" horiz-adv-x="630" glyph-name="oslash"/>
<glyph d="M563 530l-93 -530h-86l16 91l-44 -61q-64 -44 -146 -44q-79 0 -120.5 36t-41.5 100q0 41 13 110l54 298h86l-53 -292q-11 -62 -11 -92q0 -92 98 -92h5q154 4 196 243l41 233h86zM326 580l-65 110h80l41 -110h-56z" unicode="ù" horiz-adv-x="590" glyph-name="ugrave"/>
<glyph d="M563 530l-93 -530h-86l16 91l-44 -61q-64 -44 -146 -44q-79 0 -120.5 36t-41.5 100q0 41 13 110l54 298h86l-53 -292q-11 -62 -11 -92q0 -92 98 -92h5q154 4 196 243l41 233h86zM372 580h-56l81 110h80z" unicode="ú" horiz-adv-x="590" glyph-name="uacute"/>
<glyph d="M563 530l-93 -530h-86l16 91l-44 -61q-64 -44 -146 -44q-79 0 -120.5 36t-41.5 100q0 41 13 110l54 298h86l-53 -292q-11 -62 -11 -92q0 -92 98 -92h5q154 4 196 243l41 233h86zM317 580h-63l87 110h59l47 -110h-64l-22 63z" unicode="û" horiz-adv-x="590" glyph-name="ucircumflex"/>
<glyph d="M563 530l-93 -530h-86l16 91l-44 -61q-64 -44 -146 -44q-79 0 -120.5 36t-41.5 100q0 41 13 110l54 298h86l-53 -292q-11 -62 -11 -92q0 -92 98 -92h5q154 4 196 243l41 233h86zM423 583q-17 0 -28 11t-11 28q0 21 17 37t38 16q17 0 28 -11t11 -28q0 -21 -17 -37t-38 -16 zM277 583q-17 0 -28 11t-11 28q0 21 17 37t38 16q17 0 28 -11t11 -28q0 -21 -17 -37t-38 -16z" unicode="ü" horiz-adv-x="590" glyph-name="udieresis"/>
<glyph d="M547 530l-295 -530q-69 -124 -117.5 -167t-122.5 -43q-22 0 -42 3l12 71q16 -3 31 -3q41 0 69.5 20.5t56.5 72.5l9 17l-113 559h98l76 -467l239 467h99zM322 580h-56l81 110h80z" unicode="ý" horiz-adv-x="494" glyph-name="yacute"/>
<glyph d="M286 52q95 0 151.5 81.5t56.5 190.5q0 70 -32.5 112t-95.5 42q-73 0 -129 -50.5t-75 -157.5l-5 -29q-4 -20 -4 -44q0 -64 33.5 -104.5t99.5 -40.5zM390 544q95 0 146.5 -60.5t51.5 -155.5q0 -50 -12 -98.5t-37.5 -92.5t-61.5 -77.5t-88.5 -53.5t-114.5 -20 q-34 0 -69 12.5t-52 31.5l-24 52l-50 -278h-86l166 931h86l-52 -289l50 56q57 42 147 42z" unicode="þ" horiz-adv-x="614" glyph-name="thorn"/>
</font>
</defs>
</svg>
