<?xml version="1.0" encoding="UTF-8" standalone="no"?>
<!DOCTYPE svg  PUBLIC '-//W3C//DTD SVG 1.1//EN'  'http://www.w3.org/Graphics/SVG/1.1/DTD/svg11.dtd'>
<svg xmlns="http://www.w3.org/2000/svg" version="1.1">
<defs>
<font id="Aileron-Heavy" horiz-adv-x="642">
<font-face ascent="800" underline-position="-150" cap-height="690" font-weight="900" panose-1="0 0 10 0 0 0 0 0 0 0" units-per-em="1000" underline-thickness="50" unicode-range="U+0020-FB02" descent="-200" font-family="Aileron Heavy" bbox="-41 -218 1008 918" x-height="529"/>
<missing-glyph/>
<glyph unicode=" " glyph-name="space" horiz-adv-x="186"/>
<glyph unicode="!" glyph-name="exclam" d="M135 152q37 0 60.5 -23t23.5 -60t-23.5 -60t-60.5 -23t-60 23t-23 60t23 60t60 23zM197 203h-123l-12 487h147z" horiz-adv-x="271"/>
<glyph unicode='&quot;' glyph-name="quotedbl" d="M341 451h-106l-14 284h135zM164 451h-106l-15 284h135z" horiz-adv-x="392"/>
<glyph unicode="#" glyph-name="numbersign" d="M376 399h-88l-23 -107h88zM467 399l-23 -107h97v-86h-115l-44 -206h-91l44 206h-88l-44 -206h-91l44 206h-85v86h103l23 107h-96v86h114l44 205h91l-44 -205h88l44 205h91l-44 -205h86v-86h-104z"/>
<glyph unicode="$" glyph-name="dollar" d="M371 263v-165q73 14 73 79q0 59 -73 86zM218 513q0 -32 15.5 -50.5t47.5 -31.5v160q-63 -16 -63 -78zM596 186q0 -84 -62 -136t-163 -62v-78h-90v78q-104 9 -165.5 61t-70.5 148h150q13 -77 86 -96v183q-106 36 -157 84t-51 128q0 90 59 142t149 63v79h90v-78 q101 -11 156 -66t66 -143h-151q-10 77 -71 96v-175q121 -39 173 -90.5t52 -137.5z"/>
<glyph unicode="%" glyph-name="percent" d="M581 241q-55 0 -55 -88q0 -89 55 -89t55 89q0 88 -55 88zM581 319q74 0 115.5 -44t41.5 -122q0 -79 -41.5 -123t-115.5 -44q-73 0 -115 44.5t-42 122.5t42 122t115 44zM191 625q-55 0 -55 -88q0 -89 55 -89t55 89q0 88 -55 88zM223 0h-114l447 690h114zM191 703 q73 0 115 -44t42 -122t-42 -122.5t-115 -44.5q-74 0 -115.5 44t-41.5 123q0 78 41.5 122t115.5 44z" horiz-adv-x="772"/>
<glyph unicode="&amp;" glyph-name="ampersand" d="M214 197q0 -52 30 -73.5t90 -21.5q49 0 91 8v179h-40q-33 0 -53 -1q-118 -8 -118 -91zM675 411v-122h-93v-277q-117 -26 -252 -26q-281 0 -281 191q0 71 44.5 117t120.5 59q-56 16 -91 58t-35 97q0 93 69.5 144.5t193.5 51.5q62 0 105 -10v-114q-47 8 -102 8 q-101 0 -101 -87q0 -43 23.5 -65t63.5 -24q18 -1 57 -1h28v86h157v-86h93z" horiz-adv-x="680"/>
<glyph unicode="&apos;" glyph-name="quotesingle" d="M153 451h-106l-14 284h135z" horiz-adv-x="209"/>
<glyph unicode="(" glyph-name="parenleft" d="M262 780h81q-132 -195 -132 -430t132 -430h-81q-148 168 -148 430t148 430z" horiz-adv-x="381"/>
<glyph unicode=")" glyph-name="parenright" d="M35 780h81q147 -169 147 -430t-147 -430h-81q132 195 132 430t-132 430z" horiz-adv-x="379"/>
<glyph unicode="*" glyph-name="asterisk" d="M345 322l131 57l31 -98l-140 -32l103 -119l-83 -60l-81 132l-80 -132l-83 60l103 119l-140 32l31 98l131 -57l-13 153h103z" horiz-adv-x="613"/>
<glyph unicode="+" glyph-name="plus" d="M542 277h-176v-199h-90v199h-176v80h176v199h90v-199h176v-80z"/>
<glyph unicode="," glyph-name="comma" d="M201 144l-104 -267h-124l79 277h149v-10z" horiz-adv-x="255"/>
<glyph unicode="-" glyph-name="hyphen" d="M272 240h-240v86h240v-86z" horiz-adv-x="304"/>
<glyph unicode="." glyph-name="period" d="M130 168q40 0 65.5 -25t25.5 -66q0 -40 -25.5 -65.5t-65.5 -25.5t-65.5 25.5t-25.5 65.5t25.5 65.5t65.5 25.5z" horiz-adv-x="255"/>
<glyph unicode="/" glyph-name="slash" d="M89 -30h-94l251 750h94z" horiz-adv-x="335"/>
<glyph unicode="0" glyph-name="zero" d="M321 102q57 0 84 57.5t27 185.5q0 129 -27 186t-84 57t-84 -57t-27 -186q0 -128 27 -185.5t84 -57.5zM321 704q276 0 276 -359t-276 -359t-276 359t276 359z"/>
<glyph unicode="1" glyph-name="one" d="M483 690v-690h-157v526l-205 -110v143l165 96q61 35 124 35h73z"/>
<glyph unicode="2" glyph-name="two" d="M301 123h275v-123h-517v71l225 217q75 72 104 116t29 92q0 43 -23.5 68.5t-65.5 25.5q-88 0 -99 -117l-1 -10h-157l1 10q11 113 80 173t190 60q115 0 177.5 -54.5t62.5 -147.5q0 -63 -35.5 -120.5t-133.5 -151.5z"/>
<glyph unicode="3" glyph-name="three" d="M444 365q145 -32 145 -163q0 -98 -75.5 -157t-198.5 -59t-195 57t-83 162l-1 10h157l1 -10q8 -46 39 -74.5t79 -28.5q50 0 81 26.5t31 68.5q0 96 -127 101h-25v105l25 1q52 3 81.5 30t29.5 70q0 39 -23.5 61.5t-64.5 22.5q-42 0 -66.5 -27.5t-28.5 -72.5l-1 -10h-156 l1 10q10 95 78 155.5t189 60.5q114 0 175.5 -51.5t61.5 -130.5q0 -126 -129 -157z"/>
<glyph unicode="4" glyph-name="four" d="M365 282v237q-24 -42 -42 -68l-120 -169h162zM607 159h-85v-159h-157v159h-328v85l316 446h169v-408h85v-123z"/>
<glyph unicode="5" glyph-name="five" d="M361 466q107 0 168 -63t61 -172q0 -114 -79 -179.5t-189 -65.5q-242 0 -264 205l-1 10h157l1 -10q13 -89 98 -89q53 0 82.5 34t29.5 90t-29 90t-80 34q-74 0 -102 -71h-145l50 411h443v-122h-314l-25 -174l31 46q44 26 107 26z"/>
<glyph unicode="6" glyph-name="six" d="M322 102q49 0 77.5 34t28.5 85q0 58 -28 92t-79 34q-44 0 -74 -32.5t-30 -89.5q0 -55 28.5 -89t76.5 -34zM367 463q110 0 168 -62.5t58 -160.5q0 -118 -78 -186t-191 -68q-137 0 -205 83t-68 258q0 181 80 279t211 98q107 0 169.5 -52t73.5 -144l1 -10h-158l-2 10 q-22 80 -93 80q-115 0 -122 -225l33 62q47 38 123 38z"/>
<glyph unicode="7" glyph-name="seven" d="M598 690v-85l-326 -605h-171l311 568h-357v122h543z"/>
<glyph unicode="8" glyph-name="eight" d="M321 101q108 0 108 99q0 47 -28 75.5t-81 28.5q-49 0 -78 -28t-29 -74q0 -48 28.5 -74.5t79.5 -26.5zM328 588q-38 0 -61.5 -22.5t-23.5 -60.5q0 -41 22 -64t62 -23t64 23t24 64q0 38 -23.5 60.5t-63.5 22.5zM461 366q57 -19 94 -63t37 -108q0 -107 -75.5 -158.5 t-197.5 -51.5q-127 0 -198.5 51t-71.5 159q0 64 38 107.5t96 63.5q-101 35 -101 145q0 87 66 140t182 53t181 -53t65 -140q0 -107 -115 -145z"/>
<glyph unicode="9" glyph-name="nine" d="M321 343q44 0 73.5 32.5t29.5 89.5q0 55 -28.5 89t-76.5 34q-49 0 -77 -34t-28 -85q0 -57 27.5 -91.5t79.5 -34.5zM318 704q136 0 204 -83t68 -258q0 -182 -78.5 -279.5t-212.5 -97.5q-109 0 -171 52t-71 145l-1 10h158l2 -10q17 -81 93 -81q115 0 122 226l-34 -63 q-48 -38 -122 -38q-110 0 -168 62.5t-58 160.5q0 118 78 186t191 68z"/>
<glyph unicode=":" glyph-name="colon" d="M130 168q40 0 65.5 -25t25.5 -66q0 -40 -25.5 -65.5t-65.5 -25.5t-65.5 25.5t-25.5 65.5t25.5 65.5t65.5 25.5zM130 547q40 0 65.5 -25.5t25.5 -65.5t-25.5 -65.5t-65.5 -25.5t-65.5 25.5t-25.5 65.5t25.5 65.5t65.5 25.5z" horiz-adv-x="255"/>
<glyph unicode=";" glyph-name="semicolon" d="M201 139l-104 -262h-124l79 280h149v-18zM130 547q40 0 65.5 -25.5t25.5 -65.5t-25.5 -65.5t-65.5 -25.5t-65.5 25.5t-25.5 65.5t25.5 65.5t65.5 25.5z" horiz-adv-x="255"/>
<glyph unicode="&lt;" glyph-name="less" d="M560 402l-355 -136l355 -137v-106l-454 183v119l454 183v-106z"/>
<glyph unicode="=" glyph-name="equal" d="M557 177h-472v80h472v-80zM557 377h-472v80h472v-80z"/>
<glyph unicode="&gt;" glyph-name="greater" d="M523 325v-119l-453 -183v105l354 137l-354 136v107z"/>
<glyph unicode="?" glyph-name="question" d="M277 152q37 0 60.5 -23t23.5 -60t-23.5 -60t-60.5 -23t-60 23t-23 60t23 60t60 23zM287 704q111 0 173.5 -50.5t62.5 -139.5q0 -56 -24.5 -98t-81.5 -91q-41 -36 -56.5 -60t-19.5 -62h-131q2 54 17.5 88t51.5 74q45 48 62 77.5t17 59.5q0 86 -81 86q-82 0 -88 -109h-158 q3 105 72 165t184 60z" horiz-adv-x="567"/>
<glyph unicode="@" glyph-name="at" d="M430 180q45 0 62 69l14 63q3 13 3 25q0 43 -38 43q-36 0 -59.5 -37.5t-23.5 -92.5q0 -70 42 -70zM685 470l-40 -165q-15 -67 -15 -91q0 -58 40 -58q42 0 70.5 48t28.5 135q0 126 -75 196.5t-202 70.5q-89 0 -167.5 -40.5t-130 -122.5t-51.5 -188q0 -138 78.5 -216.5 t218.5 -78.5q136 0 230 69l33 -76q-124 -80 -275 -80q-70 0 -135 21.5t-121.5 64.5t-90.5 118t-34 172q0 193 130 318.5t318 125.5q172 0 271.5 -100.5t99.5 -245.5q0 -142 -65 -209.5t-165 -67.5q-112 0 -139 93l-28 -58q-41 -33 -91 -33q-59 0 -98 39t-39 128 q0 106 55.5 177.5t141.5 71.5q56 0 79 -28l15 -54l20 64h133z" horiz-adv-x="911"/>
<glyph unicode="A" glyph-name="A" d="M354 554l-74 -236h147zM466 195h-225l-64 -195h-167l249 690h194l246 -690h-170z" horiz-adv-x="690"/>
<glyph unicode="B" glyph-name="B" d="M397 124q33 2 55 25t22 60q0 40 -22 61.5t-58 24.5q-16 2 -48 2h-104v-174h110q32 0 45 1zM242 568v-156h94q25 0 46 3q67 11 67 76q0 64 -68 74q-21 3 -48 3h-91zM508 373q130 -34 130 -166q0 -89 -57 -141t-136 -62q-34 -4 -98 -4h-262v690h263q54 0 89 -4 q83 -10 129.5 -57t46.5 -117q0 -102 -105 -139z" horiz-adv-x="668"/>
<glyph unicode="C" glyph-name="C" d="M390 704q138 0 215.5 -66t88.5 -173l1 -10h-157l-2 10q-25 123 -148 123q-77 0 -124 -63t-47 -175q0 -124 47.5 -186t122.5 -62q120 0 146 131l2 10h157l-1 -10q-12 -116 -95 -181.5t-215 -65.5q-145 0 -237 94.5t-92 260.5q0 169 95.5 266t242.5 97z" horiz-adv-x="725"/>
<glyph unicode="D" glyph-name="D" d="M382 125q74 8 118 68.5t44 158.5q0 95 -43 150t-118 63q-34 3 -70 3h-71v-445h70q47 0 70 2zM421 686q129 -14 208.5 -97t79.5 -235q0 -153 -81 -244t-208 -106q-35 -4 -88 -4h-247v690h248q53 0 88 -4z" horiz-adv-x="739"/>
<glyph unicode="E" glyph-name="E" d="M597 123v-123h-512v690h502v-122h-345v-161h322v-122h-322v-162h355z" horiz-adv-x="626"/>
<glyph unicode="F" glyph-name="F" d="M242 568v-161h312v-122h-312v-285h-157v690h502v-122h-345z" horiz-adv-x="603"/>
<glyph unicode="G" glyph-name="G" d="M407 359h289v-359h-124l-12 109l-31 -72q-55 -51 -164 -51q-143 0 -228 94t-85 261q0 169 98 266t247 97q138 0 215.5 -66t88.5 -173l1 -10h-156l-2 10q-25 123 -149 123q-78 0 -128 -63t-50 -175q0 -124 49 -186t127 -62q60 0 100.5 34.5t53.5 100.5h-140v122z" horiz-adv-x="747"/>
<glyph unicode="H" glyph-name="H" d="M700 690v-690h-156v277h-302v-277h-157v690h157v-290h302v290h156z" horiz-adv-x="760"/>
<glyph unicode="I" glyph-name="I" d="M242 0h-157v690h157v-690z" horiz-adv-x="302"/>
<glyph unicode="J" glyph-name="J" d="M562 690v-400q0 -52 -3 -99q-6 -95 -69 -150t-186 -55q-125 0 -187.5 62.5t-65.5 175.5l-1 33h156l2 -33q4 -65 30 -93.5t73 -28.5q84 0 92 98q2 23 2 70v420h157z" horiz-adv-x="615"/>
<glyph unicode="K" glyph-name="K" d="M409 362l290 -362h-199l-205 274l-53 -59v-215h-157v690h157v-320l282 320h187z" horiz-adv-x="710"/>
<glyph unicode="L" glyph-name="L" d="M597 132v-132h-512v690h157v-558h355z" horiz-adv-x="615"/>
<glyph unicode="M" glyph-name="M" d="M849 690v-690h-157v306q0 158 2 229q-23 -114 -57 -228l-87 -307h-166l-89 307q-37 128 -55 227q2 -71 2 -228v-306h-157v690h246l139 -541l139 541h240z" horiz-adv-x="909"/>
<glyph unicode="N" glyph-name="N" d="M715 0h-209l-270 494q6 -88 6 -194v-300h-157v690h201l278 -508q-5 90 -5 201v307h156v-690z" horiz-adv-x="775"/>
<glyph unicode="O" glyph-name="O" d="M399 102q86 0 135 64t49 179t-49 179t-135 64q-87 0 -136 -63.5t-49 -179.5q0 -115 49 -179t136 -64zM399 704q159 0 252.5 -97t93.5 -262q0 -164 -93.5 -261.5t-252.5 -97.5q-160 0 -253.5 97.5t-93.5 261.5q0 165 93.5 262t253.5 97z" horiz-adv-x="775"/>
<glyph unicode="P" glyph-name="P" d="M383 377q78 10 78 94t-78 94q-14 2 -55 2h-86v-192h86q41 0 55 2zM437 685q82 -10 135 -65t53 -149q0 -93 -54 -148.5t-134 -65.5q-44 -5 -103 -5h-92v-252h-157v690h249q59 0 103 -5z" horiz-adv-x="633"/>
<glyph unicode="Q" glyph-name="Q" d="M214 345q0 -115 49 -179t136 -64q86 0 135 64t49 179q0 116 -49 180t-135 64q-87 0 -136 -64t-49 -180zM646 114q56 -14 114 -63l-77 -100q-48 30 -77 40.5t-63 10.5q-31 0 -73 -9q-31 -7 -71 -7q-160 0 -253.5 97.5t-93.5 261.5q0 165 93.5 262.5t253.5 97.5 q159 0 252.5 -97.5t93.5 -262.5q0 -147 -99 -231z" horiz-adv-x="777"/>
<glyph unicode="R" glyph-name="R" d="M242 386h81q39 0 53 1q94 9 94 90q0 44 -23 64t-65 25q-28 2 -53 2h-87v-182zM602 171q13 -117 51 -171h-171q-25 71 -33 147q-14 117 -90 123q-19 1 -55 1h-62v-271h-157v690h262q59 0 104 -5q83 -10 133 -54t50 -129q0 -131 -137 -170q50 -19 74.5 -58.5t30.5 -102.5z " horiz-adv-x="666"/>
<glyph unicode="S" glyph-name="S" d="M320 704q122 0 186.5 -60t76.5 -161h-158q-6 49 -34 77t-76 28q-38 0 -61 -18.5t-23 -54.5q0 -40 32 -63.5t114 -42.5q112 -27 165 -80.5t53 -136.5q0 -96 -76.5 -151t-186.5 -55q-130 0 -207 56t-86 165h158q10 -51 46 -78t86 -27q44 0 73 21t29 56q0 37 -29 62t-97 41 q-122 30 -180 77.5t-58 140.5t74 148.5t179 55.5z" horiz-adv-x="616"/>
<glyph unicode="T" glyph-name="T" d="M635 568h-230v-568h-156v568h-230v122h616v-122z" horiz-adv-x="627"/>
<glyph unicode="U" glyph-name="U" d="M663 690v-399q0 -52 -3 -88q-7 -95 -78 -156t-213 -61t-213.5 60.5t-78.5 156.5q-2 36 -2 88v399h156v-422q0 -32 1 -46q10 -120 137 -120q63 0 97.5 31.5t38.5 88.5q2 14 2 46v422h156z" horiz-adv-x="709"/>
<glyph unicode="V" glyph-name="V" d="M472 0h-194l-246 690h170l175 -569l178 569h166z" horiz-adv-x="712"/>
<glyph unicode="W" glyph-name="W" d="M1008 690l-180 -690h-208l-104 559l-111 -559h-209l-170 690h168l106 -568l107 558h223l104 -563l113 573h161z" horiz-adv-x="1000"/>
<glyph unicode="X" glyph-name="X" d="M513 0l-160 249l-149 -249h-187l247 348l-230 342h182l143 -244l153 244h180l-241 -339l245 -351h-183z" horiz-adv-x="694"/>
<glyph unicode="Y" glyph-name="Y" d="M415 266v-266h-156v264l-244 426h177l150 -288l144 288h172z" horiz-adv-x="643"/>
<glyph unicode="Z" glyph-name="Z" d="M606 123v-123h-555v119l362 449h-334v122h522v-121l-358 -446h363z" horiz-adv-x="634"/>
<glyph unicode="[" glyph-name="bracketleft" d="M352 780v-86h-156v-688h156v-86h-246v860h246z" horiz-adv-x="384"/>
<glyph unicode="\" glyph-name="backslash" d="M340 -30h-94l-251 750h94z" horiz-adv-x="335"/>
<glyph unicode="]" glyph-name="bracketright" d="M275 -80h-245v86h156v688h-156v86h245v-860z" horiz-adv-x="381"/>
<glyph unicode="^" glyph-name="asciicircum" d="M442 215l-122 314l-123 -314h-99l171 401h103l171 -401h-101z"/>
<glyph unicode="_" glyph-name="underscore" d="M450 -88h-400v86h400v-86z" horiz-adv-x="500"/>
<glyph unicode="`" glyph-name="grave" d="M210 573h-86l-138 122h140z" horiz-adv-x="300"/>
<glyph unicode="a" glyph-name="a" d="M265 94q38 0 65 26.5t27 73.5v39q-12 1 -35 1q-129 0 -129 -79q0 -29 19.5 -45t52.5 -16zM370 0l-11 78l-24 -57q-55 -35 -132 -35q-71 0 -121 41.5t-50 114.5q0 88 75.5 136t215.5 48h34v9q0 28 -2 46q-2 25 -21 41.5t-53 16.5q-74 0 -80 -83h-150q2 89 68.5 140 t167.5 51q209 0 223 -164q3 -38 3 -86v-162q0 -61 10 -135h-153z" horiz-adv-x="573"/>
<glyph unicode="b" glyph-name="b" d="M338 94q59 0 94.5 45t35.5 129q0 78 -34.5 124.5t-90.5 46.5q-58 0 -92.5 -39.5t-34.5 -126.5v-24q0 -80 35.5 -117.5t86.5 -37.5zM393 547q109 0 172.5 -74.5t63.5 -194.5q0 -138 -73 -215t-181 -77q-80 0 -124 28l-35 56v-70h-157v735h157v-282l40 59q46 35 137 35z " horiz-adv-x="655"/>
<glyph unicode="c" glyph-name="c" d="M299 547q109 0 176 -59.5t73 -151.5h-153q-16 103 -100 103q-51 0 -79.5 -42t-28.5 -125q0 -90 28.5 -134t79.5 -44q37 0 63 24.5t35 70.5h155q-15 -98 -85 -150.5t-177 -52.5q-115 0 -187.5 72t-72.5 204q0 133 77.5 209t195.5 76z" horiz-adv-x="573"/>
<glyph unicode="d" glyph-name="d" d="M312 94q58 0 92.5 40t34.5 126v25q0 79 -36 116.5t-86 37.5q-59 0 -94.5 -45t-35.5 -129q0 -78 34.5 -124.5t90.5 -46.5zM596 735v-735h-157v80l-40 -59q-46 -35 -137 -35q-109 0 -172.5 75t-63.5 195q0 137 73 214t181 77q80 0 124 -28l35 -56v272h157z" horiz-adv-x="656"/>
<glyph unicode="e" glyph-name="e" d="M295 439q-89 0 -108 -114h210q-14 114 -102 114zM560 276q0 -22 -3 -50h-374q6 -72 35 -102t77 -30q41 0 67.5 21t33.5 59h155q-21 -91 -90.5 -139.5t-168.5 -48.5q-117 0 -191.5 72t-74.5 207q0 122 75.5 202t200.5 80q122 0 190 -79t68 -192z" horiz-adv-x="588"/>
<glyph unicode="f" glyph-name="f" d="M235 589q-2 -14 -2 -44v-16h109v-100h-109v-429h-156v429h-57v100h57v14q0 42 1 60q13 151 213 151q29 0 60 -7v-106q-26 4 -37 4q-73 0 -79 -56z" horiz-adv-x="356"/>
<glyph unicode="g" glyph-name="g" d="M312 109q58 0 92.5 40t34.5 126v10q0 79 -36 116.5t-86 37.5q-60 0 -95 -40.5t-35 -124.5q0 -77 34 -121t91 -44zM596 533v-398q0 -74 -1 -103q-4 -125 -81.5 -187.5t-212.5 -62.5q-118 0 -185 47.5t-76 136.5l-1 10h152l1 -9q4 -32 34 -50.5t79 -18.5q59 0 94 29t38 87 q2 38 2 67v14l-40 -59q-48 -35 -129 -35q-111 0 -177.5 71t-66.5 190q0 137 72.5 211t181.5 74q80 0 124 -28l35 -56v70h157z" horiz-adv-x="656"/>
<glyph unicode="h" glyph-name="h" d="M573 400q5 -34 5 -99v-301h-157v277q0 47 -2 74q-7 88 -95 88q-49 -1 -78.5 -48t-29.5 -144v-247h-157v740h157v-291l44 64q51 34 124 34q83 0 131.5 -38.5t57.5 -108.5z" horiz-adv-x="631"/>
<glyph unicode="i" glyph-name="i" d="M216 0h-157v533h157v-533zM137 739q38 0 61 -21.5t23 -57.5q0 -37 -23 -58.5t-61 -21.5t-60.5 21.5t-22.5 58.5q0 36 22.5 57.5t60.5 21.5z" horiz-adv-x="276"/>
<glyph unicode="j" glyph-name="j" d="M213 533v-532q0 -29 -2 -65q-6 -72 -52 -109t-144 -37q-30 0 -56 3v109q10 -1 27 -1q33 0 49.5 12t18.5 39q2 14 2 47v534h157zM135 739q83 0 83 -79q0 -80 -83 -80q-84 0 -84 80q0 79 84 79z" horiz-adv-x="270"/>
<glyph unicode="k" glyph-name="k" d="M257 204l-41 -45v-159h-157v735h157v-436l202 234h186l-231 -246l234 -287h-195z" horiz-adv-x="605"/>
<glyph unicode="l" glyph-name="l" d="M212 735v-553q0 -35 1 -49q2 -17 12 -23.5t36 -6.5h13v-107q-50 -5 -94 -5q-117 0 -123 99q-2 26 -2 89v556h157z" horiz-adv-x="291"/>
<glyph unicode="m" glyph-name="m" d="M880 414q5 -34 5 -99v-315h-157v275q0 45 -4 81q-9 83 -84 83q-90 0 -90 -162v-277h-156v275q0 45 -4 81q-11 83 -85 83q-89 0 -89 -162v-277h-157v533h157v-83l40 66q47 31 115 31q64 0 106.5 -28t59.5 -75l54 72q46 31 114 31q75 0 120 -37.5t55 -95.5z" horiz-adv-x="938"/>
<glyph unicode="n" glyph-name="n" d="M573 400q5 -34 5 -99v-301h-157v277q0 47 -2 74q-7 88 -95 88q-49 0 -78.5 -47.5t-29.5 -144.5v-247h-157v533h157v-84l44 64q51 34 124 34q83 0 131.5 -38.5t57.5 -108.5z" horiz-adv-x="631"/>
<glyph unicode="o" glyph-name="o" d="M307 94q56 0 87.5 45t31.5 128t-31.5 127.5t-87.5 44.5q-57 0 -88.5 -44.5t-31.5 -127.5t31.5 -128t88.5 -45zM307 547q130 0 205.5 -77t75.5 -203t-75.5 -203.5t-205.5 -77.5q-131 0 -206 77t-75 204q0 126 75 203t206 77z" horiz-adv-x="613"/>
<glyph unicode="p" glyph-name="p" d="M338 94q59 0 94.5 45t35.5 129q0 78 -34.5 124.5t-90.5 46.5q-58 0 -92.5 -39.5t-34.5 -126.5v-24q0 -80 35.5 -117.5t86.5 -37.5zM393 547q109 0 172.5 -74.5t63.5 -194.5q0 -138 -73 -215t-181 -77q-80 0 -124 28l-35 56v-266h-157v729h157v-80l40 59q46 35 137 35z " horiz-adv-x="655"/>
<glyph unicode="q" glyph-name="q" d="M312 94q58 0 92.5 40t34.5 126v25q0 79 -36 116.5t-86 37.5q-59 0 -94.5 -45t-35.5 -129q0 -78 34.5 -124.5t90.5 -46.5zM596 533v-729h-157v276l-40 -59q-46 -35 -137 -35q-109 0 -172.5 75t-63.5 195q0 137 73 214t181 77q80 0 124 -28l35 -56v70h157z" horiz-adv-x="656"/>
<glyph unicode="r" glyph-name="r" d="M353 547q16 0 40 -4v-127q-8 1 -24 1q-81 0 -117 -44.5t-36 -149.5v-223h-157v533h157v-102l40 74q40 42 97 42z" horiz-adv-x="398"/>
<glyph unicode="s" glyph-name="s" d="M263 547q94 0 150 -46.5t66 -122.5h-155q-14 69 -71 69q-25 0 -40 -14t-15 -35q0 -27 26.5 -44.5t97.5 -35.5q84 -21 126.5 -59.5t42.5 -109.5q0 -80 -63.5 -121.5t-162.5 -41.5q-105 0 -170 45t-75 133h155q8 -37 32.5 -57t58.5 -20q30 0 49 13t19 37q0 28 -28.5 46 t-99.5 35q-80 20 -122.5 58t-42.5 103q0 78 60.5 123t161.5 45z" horiz-adv-x="511"/>
<glyph unicode="t" glyph-name="t" d="M247 429v-224q0 -36 1 -50q2 -35 17 -48t56 -13q18 0 29 1v-100q-51 -8 -97 -8q-85 0 -120.5 27.5t-40.5 88.5q-2 27 -2 81v245h-81v100h81v134h157v-134h113v-100h-113z" horiz-adv-x="378"/>
<glyph unicode="u" glyph-name="u" d="M568 533v-533h-156v91l-45 -71q-51 -34 -124 -34q-79 0 -128.5 38.5t-59.5 96.5q-5 34 -5 99v313h156v-279q0 -37 4 -73q11 -86 96 -86q49 0 77.5 40.5t28.5 112.5v285h156z" horiz-adv-x="628"/>
<glyph unicode="v" glyph-name="v" d="M589 533l-208 -533h-172l-209 533h174l123 -412l122 412h170z" horiz-adv-x="585"/>
<glyph unicode="w" glyph-name="w" d="M852 533l-169 -533h-176l-80 387l-81 -387h-177l-169 533h174l83 -402l77 399h187l81 -400l81 403h169z" horiz-adv-x="847"/>
<glyph unicode="x" glyph-name="x" d="M376 269l185 -269h-183l-98 174l-102 -174h-180l187 270l-180 263h183l96 -167l95 167h180z" horiz-adv-x="563"/>
<glyph unicode="y" glyph-name="y" d="M589 533l-213 -544q-45 -115 -96 -157t-139 -42q-39 0 -68 4v105q14 -2 44 -2q68 0 95 62l7 17l-219 557h175l122 -412l121 412h171z" horiz-adv-x="584"/>
<glyph unicode="z" glyph-name="z" d="M481 101v-101h-450v95l280 333h-264v101h431v-100l-278 -328h281z" horiz-adv-x="510"/>
<glyph unicode="{" glyph-name="braceleft" d="M338 694h-20q-39 0 -53 -8.5t-14 -33.5q0 -21 10 -92q12 -76 12 -108q0 -82 -85 -100q85 -18 85 -104q0 -32 -12 -108q-10 -70 -10 -92q0 -25 14 -33.5t53 -8.5h20v-86h-41q-72 0 -104 27t-32 87q0 30 12 116q10 63 10 95q0 57 -82 62v86q82 6 82 62q0 32 -10 95 q-12 85 -12 117q0 60 32 86.5t104 26.5h41v-86z" horiz-adv-x="398"/>
<glyph unicode="|" glyph-name="bar" d="M199 -200h-101v1000h101v-1000z" horiz-adv-x="297"/>
<glyph unicode="}" glyph-name="braceright" d="M298 393v-86q-82 -5 -82 -62q0 -29 9 -95q12 -76 12 -116q0 -60 -31.5 -87t-103.5 -27h-41v86h19q40 0 54 8.5t14 33.5q0 24 -11 92q-11 80 -11 108q0 84 84 100q-84 18 -84 104q0 28 11 108q11 70 11 92q0 25 -14 33.5t-54 8.5h-19v86h41q72 0 103.5 -26.5t31.5 -86.5 q0 -41 -12 -117q-9 -66 -9 -95q0 -56 82 -62z" horiz-adv-x="398"/>
<glyph unicode="~" glyph-name="asciitilde" d="M472 394h86q0 -171 -127 -171q-29 0 -53.5 9t-69.5 32q-66 35 -91 35q-46 0 -46 -76h-86q0 171 126 171q21 0 42.5 -6t36 -12.5t45.5 -22.5q65 -35 91 -35q24 0 35 17.5t11 58.5z"/>
<glyph unicode="¡" glyph-name="exclamdown" d="M74 328h123l12 -488h-147zM135 378q-37 0 -60 23t-23 60t23 60t60 23t60.5 -23t23.5 -60t-23.5 -60t-60.5 -23z" horiz-adv-x="271"/>
<glyph unicode="¢" glyph-name="cent" d="M206 270q0 -128 75 -165v321q-75 -37 -75 -156zM371 429v-327q58 25 71 87h140q-13 -86 -68.5 -137t-142.5 -63v-79h-90v78q-99 13 -160 85t-61 187q0 117 61.5 190.5t159.5 89.5v80h90v-78q93 -10 149.5 -67.5t61.5 -141.5h-138q-11 73 -73 96z" horiz-adv-x="637"/>
<glyph unicode="£" glyph-name="sterling" d="M580 123v-123h-516v109q102 19 102 114q0 33 -13 73h-80v80h45q-24 59 -24 115q0 98 66.5 155.5t174.5 57.5q113 0 172.5 -58.5t66.5 -148.5h-158q-8 91 -82 91q-35 0 -55 -24.5t-20 -59.5q0 -53 31 -128h199v-80h-171q7 -27 7 -54q0 -81 -83 -119h338z"/>
<glyph unicode="¤" glyph-name="currency" d="M321 206q38 0 62 26t24 69t-24 69t-62 26t-62.5 -26t-24.5 -69t24.5 -69t62.5 -26zM501 301q0 -54 -28 -98l53 -53l-53 -53l-53 53q-45 -29 -99 -29t-99 29l-53 -53l-53 53l53 53q-28 44 -28 98q0 55 29 98l-54 54l53 53l53 -54q47 29 99 29t99 -29l53 54l53 -53l-54 -54 q29 -43 29 -98z"/>
<glyph unicode="¥" glyph-name="yen" d="M443 374h109v-86h-153v-58h153v-86h-153v-144h-156v144h-153v86h153v58h-153v86h109l-175 316h166l135 -308l132 308h161z"/>
<glyph unicode="¦" glyph-name="brokenbar" d="M187 -160h-89v340h89v-340zM187 350h-89v340h89v-340z" horiz-adv-x="285"/>
<glyph unicode="§" glyph-name="section" d="M293 206q60 -18 105 -39q32 19 32 56q0 36 -28 60t-94 43q-54 15 -98 35q-27 -17 -27 -60q0 -33 27 -55.5t83 -39.5zM588 237q0 -96 -87 -146q26 -37 26 -88q0 -83 -65 -130t-164 -47q-102 0 -167.5 45.5t-75.5 133.5h155q9 -38 33.5 -58.5t57.5 -20.5q30 0 49 16t19 46 q0 37 -32.5 63t-120.5 52q-96 28 -143.5 71.5t-47.5 121.5q0 96 82 146q-20 32 -20 73q0 84 61 136.5t160 52.5q94 0 150 -47.5t66 -127.5h-155q-14 75 -69 75q-24 0 -39.5 -17t-15.5 -46q0 -40 26 -62t100 -41q114 -30 165.5 -77t51.5 -124z" horiz-adv-x="613"/>
<glyph unicode="¨" glyph-name="dieresis" d="M243 705q30 0 49 -18t19 -48t-19 -48t-49 -18t-48.5 18t-18.5 48t18.5 48t48.5 18zM57 705q30 0 49 -18t19 -48t-19 -48t-49 -18t-49 18t-19 48t19 48t49 18z" horiz-adv-x="300"/>
<glyph unicode="©" glyph-name="copyright" d="M436 583q91 0 145 -49t62 -132h-133q-8 88 -79 88q-82 0 -82 -134q0 -137 85 -137q31 0 51.5 22.5t23.5 65.5h133q-13 -85 -67 -133t-147 -48q-98 0 -158.5 61.5t-60.5 167.5q0 103 62 165.5t165 62.5zM427 669q-134 0 -221.5 -89t-87.5 -225t87.5 -224t221.5 -88 q135 0 222.5 88t87.5 224q0 137 -87.5 225.5t-222.5 88.5zM427 755q177 0 292 -112.5t115 -287.5t-115 -287.5t-292 -112.5t-291.5 113t-114.5 287t114.5 287t291.5 113z" horiz-adv-x="855"/>
<glyph unicode="«" glyph-name="guillemotleft" d="M615 414l-137 -166l137 -166h-115l-137 166l137 166h115zM393 414l-137 -166l137 -166h-115l-137 166l137 166h115z" horiz-adv-x="662"/>
<glyph unicode="¬" glyph-name="logicalnot" d="M516 182h-89v127h-312v86h401v-213z"/>
<glyph unicode="®" glyph-name="registered" d="M255 569q20 3 20 25q0 23 -20 26q-6 1 -19 1h-12v-53h12q13 0 19 1zM298 554q26 -8 29 -46q4 -34 13 -54h-65q-3 14 -7 42q-3 27 -29 27h-15v-69h-58v211h76q18 0 27 -1q69 -8 69 -59q0 -40 -40 -51zM246 398q67 0 110 44t43 112q0 69 -43 113t-110 44t-110 -44t-43 -113 q0 -68 43 -112t110 -44zM246 764q93 0 151.5 -59t58.5 -151t-58.5 -151t-151.5 -59t-151.5 59t-58.5 151t58.5 151t151.5 59z" horiz-adv-x="492"/>
<glyph unicode="¯" glyph-name="macron" d="M293 591h-285v85h285v-85z" horiz-adv-x="300"/>
<glyph unicode="°" glyph-name="degree" d="M157 624q-20 0 -34.5 -14.5t-14.5 -36.5t14.5 -36.5t34.5 -14.5q21 0 35.5 14.5t14.5 36.5t-14.5 36.5t-35.5 14.5zM157 704q60 0 98 -36.5t38 -94.5t-38 -94.5t-98 -36.5q-59 0 -97 36.5t-38 94.5t38 94.5t97 36.5z" horiz-adv-x="315"/>
<glyph unicode="±" glyph-name="plusminus" d="M523 0h-405v80h405v-80zM366 361h157v-86h-157v-153h-90v153h-158v86h158v151h90v-151z"/>
<glyph unicode="´" glyph-name="acute" d="M187 573h-86l84 122h140z" horiz-adv-x="300"/>
<glyph unicode="¶" glyph-name="paragraph" d="M545 690v-800h-89v714h-108v-714h-90v430h-5q-39 0 -56 1q-74 4 -115.5 56.5t-41.5 127.5t41.5 127.5t115.5 56.5q17 1 56 1h292z" horiz-adv-x="605"/>
<glyph unicode="·" glyph-name="periodcentered" d="M130 397q41 0 67 -26t26 -66t-26 -66t-67 -26q-40 0 -66 25.5t-26 66.5t26 66.5t66 25.5z" horiz-adv-x="261"/>
<glyph unicode="¸" glyph-name="cedilla" d="M192 9l-26 -50q92 -12 92 -79q0 -90 -158 -90q-34 0 -55 7v63q31 -8 57 -8q60 0 60 31q0 32 -66 32q-19 0 -30 -1l47 95h79z" horiz-adv-x="300"/>
<glyph unicode="»" glyph-name="guillemotright" d="M522 248l-137 -166h-115l137 166l-137 166h115zM299 248l-137 -166h-115l137 166l-137 166h115z" horiz-adv-x="637"/>
<glyph unicode="¿" glyph-name="questiondown" d="M288 -171q-111 0 -173 50.5t-62 140.5q0 56 24.5 98t80.5 90q41 36 56.5 60.5t19.5 62.5h131q-2 -55 -17 -89t-51 -74q-45 -48 -62 -77.5t-17 -59.5q0 -86 81 -86q82 0 88 109h157q-3 -105 -71.5 -165t-184.5 -60zM298 381q-37 0 -60 23t-23 60t23 60t60 23t60.5 -23 t23.5 -60t-23.5 -60t-60.5 -23z" horiz-adv-x="542"/>
<glyph unicode="À" glyph-name="Agrave" d="M354 554l-74 -236h147zM466 195h-225l-64 -195h-167l249 690h194l246 -690h-170zM324 735l-136 118h140l82 -118h-86z" horiz-adv-x="690"/>
<glyph unicode="Á" glyph-name="Aacute" d="M354 554l-74 -236h147zM466 195h-225l-64 -195h-167l249 690h194l246 -690h-170zM393 735h-86l82 118h140z" horiz-adv-x="690"/>
<glyph unicode="Â" glyph-name="Acircumflex" d="M354 554l-74 -236h147zM466 195h-225l-64 -195h-167l249 690h194l246 -690h-170zM324 735h-94l63 118h127l63 -118h-95l-33 71z" horiz-adv-x="690"/>
<glyph unicode="Ã" glyph-name="Atilde" d="M354 554l-74 -236h147zM466 195h-225l-64 -195h-167l249 690h194l246 -690h-170zM303 772q-15 0 -15 -28h-81q0 62 19.5 90t60.5 28q36 0 77 -17q34 -14 45 -14q15 0 15 28h82q0 -62 -19.5 -90t-61.5 -28q-35 0 -77 17q-34 14 -45 14z" horiz-adv-x="690"/>
<glyph unicode="Ä" glyph-name="Adieresis" d="M354 554l-74 -236h147zM466 195h-225l-64 -195h-167l249 690h194l246 -690h-170zM449 726q-30 0 -49 18t-19 48t19 48t49 18t48.5 -18t18.5 -48t-18.5 -48t-48.5 -18zM264 726q-30 0 -49 18t-19 48t19 48t49 18t48.5 -18t18.5 -48t-18.5 -48t-48.5 -18z" horiz-adv-x="690"/>
<glyph unicode="Å" glyph-name="Aring" d="M354 554l-74 -236h147zM466 195h-225l-64 -195h-167l249 690h194l246 -690h-170zM356 859q-17 0 -27 -11t-10 -29q0 -17 10.5 -28.5t26.5 -11.5t26.5 11.5t10.5 28.5q0 18 -10 29t-27 11zM356 721q-50 0 -81 27.5t-31 70.5q0 44 31.5 71.5t80.5 27.5t80.5 -27.5 t31.5 -71.5q0 -43 -31 -70.5t-81 -27.5z" horiz-adv-x="690"/>
<glyph unicode="Æ" glyph-name="AE" d="M430 340l-23 223l-111 -223h134zM945 123v-123h-481l-22 218h-207l-109 -218h-166l369 690h606v-122h-373l17 -161h333v-122h-321l17 -162h337z" horiz-adv-x="974"/>
<glyph unicode="Ç" glyph-name="Ccedilla" d="M535 243h157l-1 -10q-11 -112 -88.5 -177t-202.5 -70l-14 -27q92 -12 92 -79q0 -90 -158 -90q-34 0 -55 7v63q31 -8 57 -8q60 0 60 31q0 32 -66 32q-19 0 -30 -1l38 76q-123 18 -197.5 110.5t-74.5 240.5q0 169 95.5 266t242.5 97q138 0 215.5 -66t88.5 -173l1 -10h-157 l-2 10q-25 123 -148 123q-77 0 -124 -63t-47 -175q0 -124 47.5 -186t122.5 -62q120 0 146 131z" horiz-adv-x="725"/>
<glyph unicode="È" glyph-name="Egrave" d="M597 123v-123h-512v690h502v-122h-345v-161h322v-122h-322v-162h355zM307 735l-136 118h140l82 -118h-86z" horiz-adv-x="626"/>
<glyph unicode="É" glyph-name="Eacute" d="M597 123v-123h-512v690h502v-122h-345v-161h322v-122h-322v-162h355zM376 735h-86l82 118h140z" horiz-adv-x="626"/>
<glyph unicode="Ê" glyph-name="Ecircumflex" d="M597 123v-123h-512v690h502v-122h-345v-161h322v-122h-322v-162h355zM307 735h-94l63 118h127l63 -118h-95l-33 71z" horiz-adv-x="626"/>
<glyph unicode="Ë" glyph-name="Edieresis" d="M597 123v-123h-512v690h502v-122h-345v-161h322v-122h-322v-162h355zM432 726q-30 0 -49 18t-19 48t19 48t49 18t48.5 -18t18.5 -48t-18.5 -48t-48.5 -18zM247 726q-30 0 -49 18t-19 48t19 48t49 18t48.5 -18t18.5 -48t-18.5 -48t-48.5 -18z" horiz-adv-x="626"/>
<glyph unicode="Ì" glyph-name="Igrave" d="M242 0h-157v690h157v-690zM217 735h-86l-136 118h140z" horiz-adv-x="302"/>
<glyph unicode="Í" glyph-name="Iacute" d="M242 0h-157v690h157v-690zM200 735h-86l82 118h140z" horiz-adv-x="302"/>
<glyph unicode="Î" glyph-name="Icircumflex" d="M85 690h157v-690h-157v690zM131 735h-94l63 118h127l63 -118h-95l-33 71z" horiz-adv-x="302"/>
<glyph unicode="Ï" glyph-name="Idieresis" d="M242 0h-157v690h157v-690zM256 858q30 0 48.5 -18t18.5 -48t-18.5 -48t-48.5 -18t-49 18t-19 48t19 48t49 18zM71 858q30 0 48.5 -18t18.5 -48t-18.5 -48t-48.5 -18t-49 18t-19 48t19 48t49 18z" horiz-adv-x="302"/>
<glyph unicode="Ð" glyph-name="Eth" d="M387 125q74 8 118.5 68.5t44.5 158.5q0 95 -43.5 150t-117.5 63q-34 3 -70 3h-72v-186h111v-86h-111v-173h71q47 0 69 2zM427 686q129 -14 208 -97t79 -235q0 -153 -81 -244t-207 -106q-35 -4 -88 -4h-247v296h-59v86h59v308h248q53 0 88 -4z" horiz-adv-x="745"/>
<glyph unicode="Ñ" glyph-name="Ntilde" d="M715 0h-209l-270 494q6 -88 6 -194v-300h-157v690h201l278 -508q-5 90 -5 201v307h156v-690zM327 862q36 0 77 -17q34 -14 45 -14q15 0 15 28h82q0 -62 -19.5 -90t-61.5 -28q-35 0 -77 17q-34 14 -45 14q-15 0 -15 -28h-81q0 62 19.5 90t60.5 28z" horiz-adv-x="775"/>
<glyph unicode="Ò" glyph-name="Ograve" d="M399 102q86 0 135 64t49 179t-49 179t-135 64q-87 0 -136 -63.5t-49 -179.5q0 -115 49 -179t136 -64zM399 704q159 0 252.5 -97t93.5 -262q0 -164 -93.5 -261.5t-252.5 -97.5q-160 0 -253.5 97.5t-93.5 261.5q0 165 93.5 262t253.5 97zM367 735l-136 118h140l82 -118h-86 z" horiz-adv-x="775"/>
<glyph unicode="Ó" glyph-name="Oacute" d="M399 102q86 0 135 64t49 179t-49 179t-135 64q-87 0 -136 -63.5t-49 -179.5q0 -115 49 -179t136 -64zM399 704q159 0 252.5 -97t93.5 -262q0 -164 -93.5 -261.5t-252.5 -97.5q-160 0 -253.5 97.5t-93.5 261.5q0 165 93.5 262t253.5 97zM436 735h-86l82 118h140z" horiz-adv-x="775"/>
<glyph unicode="Ô" glyph-name="Ocircumflex" d="M399 102q86 0 135 64t49 179t-49 179t-135 64q-87 0 -136 -63.5t-49 -179.5q0 -115 49 -179t136 -64zM399 704q159 0 252.5 -97t93.5 -262q0 -164 -93.5 -261.5t-252.5 -97.5q-160 0 -253.5 97.5t-93.5 261.5q0 165 93.5 262t253.5 97zM367 735h-94l63 118h127l63 -118 h-95l-33 71z" horiz-adv-x="775"/>
<glyph unicode="Õ" glyph-name="Otilde" d="M399 102q86 0 135 64t49 179t-49 179t-135 64q-87 0 -136 -63.5t-49 -179.5q0 -115 49 -179t136 -64zM399 704q159 0 252.5 -97t93.5 -262q0 -164 -93.5 -261.5t-252.5 -97.5q-160 0 -253.5 97.5t-93.5 261.5q0 165 93.5 262t253.5 97zM346 772q-15 0 -15 -28h-81 q0 62 19.5 90t60.5 28q36 0 77 -17q34 -14 45 -14q15 0 15 28h82q0 -62 -19.5 -90t-61.5 -28q-34 0 -77 17q-34 14 -45 14z" horiz-adv-x="775"/>
<glyph unicode="Ö" glyph-name="Odieresis" d="M399 102q86 0 135 64t49 179t-49 179t-135 64q-87 0 -136 -63.5t-49 -179.5q0 -115 49 -179t136 -64zM399 704q159 0 252.5 -97t93.5 -262q0 -164 -93.5 -261.5t-252.5 -97.5q-160 0 -253.5 97.5t-93.5 261.5q0 165 93.5 262t253.5 97zM492 726q-30 0 -49 18t-19 48 t19 48t49 18t48.5 -18t18.5 -48t-18.5 -48t-48.5 -18zM307 726q-30 0 -49 18t-19 48t19 48t49 18t48.5 -18t18.5 -48t-18.5 -48t-48.5 -18z" horiz-adv-x="775"/>
<glyph unicode="×" glyph-name="multiply" d="M384 325l150 -150l-63 -62l-150 150l-150 -150l-63 62l150 150l-150 150l63 63l150 -150l150 150l63 -63z"/>
<glyph unicode="Ø" glyph-name="Oslash" d="M585 345q0 65 -14 108l-297 -297q48 -54 126 -54q87 0 136 64t49 179zM216 345q0 -59 14 -107l297 297q-47 53 -127 53q-86 0 -135 -64t-49 -179zM752 634l-67 -67q62 -90 62 -222q0 -164 -93.5 -261.5t-253.5 -97.5q-135 0 -224 72l-65 -65l-63 63l67 67q-61 92 -61 222 q0 165 93.5 262t252.5 97q138 0 225 -72l65 65z" horiz-adv-x="779"/>
<glyph unicode="Ù" glyph-name="Ugrave" d="M663 690v-399q0 -52 -3 -88q-7 -95 -78 -156t-213 -61t-213.5 60.5t-78.5 156.5q-2 36 -2 88v399h156v-422q0 -32 1 -46q10 -120 137 -120q63 0 97.5 31.5t38.5 88.5q2 14 2 46v422h156zM423 735h-86l-136 118h140z" horiz-adv-x="709"/>
<glyph unicode="Ú" glyph-name="Uacute" d="M663 690v-399q0 -52 -3 -88q-7 -95 -78 -156t-213 -61t-213.5 60.5t-78.5 156.5q-2 36 -2 88v399h156v-422q0 -32 1 -46q10 -120 137 -120q63 0 97.5 31.5t38.5 88.5q2 14 2 46v422h156zM406 735h-86l82 118h140z" horiz-adv-x="709"/>
<glyph unicode="Û" glyph-name="Ucircumflex" d="M663 690v-399q0 -52 -3 -88q-7 -95 -78 -156t-213 -61t-213.5 60.5t-78.5 156.5q-2 36 -2 88v399h156v-422q0 -32 1 -46q10 -120 137 -120q63 0 97.5 31.5t38.5 88.5q2 14 2 46v422h156zM337 735h-94l63 118h127l63 -118h-95l-33 71z" horiz-adv-x="709"/>
<glyph unicode="Ü" glyph-name="Udieresis" d="M663 690v-399q0 -52 -3 -88q-7 -95 -78 -156t-213 -61t-213.5 60.5t-78.5 156.5q-2 36 -2 88v399h156v-422q0 -32 1 -46q10 -120 137 -120q63 0 97.5 31.5t38.5 88.5q2 14 2 46v422h156zM462 858q30 0 48.5 -18t18.5 -48t-18.5 -48t-48.5 -18t-49 18t-19 48t19 48t49 18z M277 858q30 0 48.5 -18t18.5 -48t-18.5 -48t-48.5 -18t-49 18t-19 48t19 48t49 18z" horiz-adv-x="709"/>
<glyph unicode="Ý" glyph-name="Yacute" d="M415 266v-266h-156v264l-244 426h177l150 -288l144 288h172zM374 735h-86l82 118h140z" horiz-adv-x="643"/>
<glyph unicode="Þ" glyph-name="Thorn" d="M383 308q78 10 78 85q0 74 -78 84q-15 2 -56 2h-85v-173h85q26 0 56 2zM445 597q80 -10 130 -61.5t50 -142.5t-50 -143t-130 -62q-44 -5 -103 -5h-100v-183h-157v690h157v-88h100q59 0 103 -5z" horiz-adv-x="647"/>
<glyph unicode="ß" glyph-name="germandbls" d="M328 754q119 0 186.5 -52t67.5 -137q0 -49 -27 -89q-60 -33 -60 -78q0 -37 52 -88q43 -43 59 -75t16 -85q0 -73 -57 -113.5t-140 -40.5q-79 0 -128 10v119q52 -13 94 -13q66 0 66 57q0 40 -49 88q-44 44 -61 72.5t-17 68.5q0 73 73 116q14 20 14 49q0 75 -95 75 q-47 0 -74 -26.5t-30 -76.5q-2 -28 -2 -84v-451h-157v443q0 58 2 94q7 103 78 160t189 57z" horiz-adv-x="652"/>
<glyph unicode="à" glyph-name="agrave" d="M265 94q38 0 65 26.5t27 73.5v39q-12 1 -35 1q-129 0 -129 -79q0 -29 19.5 -45t52.5 -16zM370 0l-11 78l-24 -57q-55 -35 -132 -35q-71 0 -121 41.5t-50 114.5q0 88 75.5 136t215.5 48h34v9q0 28 -2 46q-2 25 -21 41.5t-53 16.5q-74 0 -80 -83h-150q2 89 68.5 140 t167.5 51q209 0 223 -164q3 -38 3 -86v-162q0 -61 10 -135h-153zM260 573l-138 122h140l84 -122h-86z" horiz-adv-x="573"/>
<glyph unicode="á" glyph-name="aacute" d="M265 94q38 0 65 26.5t27 73.5v39q-12 1 -35 1q-129 0 -129 -79q0 -29 19.5 -45t52.5 -16zM370 0l-11 78l-24 -57q-55 -35 -132 -35q-71 0 -121 41.5t-50 114.5q0 88 75.5 136t215.5 48h34v9q0 28 -2 46q-2 25 -21 41.5t-53 16.5q-74 0 -80 -83h-150q2 89 68.5 140 t167.5 51q209 0 223 -164q3 -38 3 -86v-162q0 -61 10 -135h-153zM323 573h-86l84 122h140z" horiz-adv-x="573"/>
<glyph unicode="â" glyph-name="acircumflex" d="M265 94q38 0 65 26.5t27 73.5v39q-12 1 -35 1q-129 0 -129 -79q0 -29 19.5 -45t52.5 -16zM370 0l-11 78l-24 -57q-55 -35 -132 -35q-71 0 -121 41.5t-50 114.5q0 88 75.5 136t215.5 48h34v9q0 28 -2 46q-2 25 -21 41.5t-53 16.5q-74 0 -80 -83h-150q2 89 68.5 140 t167.5 51q209 0 223 -164q3 -38 3 -86v-162q0 -61 10 -135h-153zM253 573h-93l63 122h127l63 -122h-94l-33 72z" horiz-adv-x="573"/>
<glyph unicode="ã" glyph-name="atilde" d="M265 94q38 0 65 26.5t27 73.5v39q-12 1 -35 1q-129 0 -129 -79q0 -29 19.5 -45t52.5 -16zM370 0l-11 78l-24 -57q-55 -35 -132 -35q-71 0 -121 41.5t-50 114.5q0 88 75.5 136t215.5 48h34v9q0 28 -2 46q-2 25 -21 41.5t-53 16.5q-74 0 -80 -83h-150q2 89 68.5 140 t167.5 51q209 0 223 -164q3 -38 3 -86v-162q0 -61 10 -135h-153zM233 609q-15 0 -15 -28h-81q0 62 19.5 90t60.5 28q36 0 77 -18q34 -14 45 -14q15 0 15 29h82q0 -62 -19.5 -90.5t-61.5 -28.5q-32 0 -77 18q-37 14 -45 14z" horiz-adv-x="573"/>
<glyph unicode="ä" glyph-name="adieresis" d="M265 94q38 0 65 26.5t27 73.5v39q-12 1 -35 1q-129 0 -129 -79q0 -29 19.5 -45t52.5 -16zM370 0l-11 78l-24 -57q-55 -35 -132 -35q-71 0 -121 41.5t-50 114.5q0 88 75.5 136t215.5 48h34v9q0 28 -2 46q-2 25 -21 41.5t-53 16.5q-74 0 -80 -83h-150q2 89 68.5 140 t167.5 51q209 0 223 -164q3 -38 3 -86v-162q0 -61 10 -135h-153zM379 573q-30 0 -48.5 18t-18.5 48t18.5 48t48.5 18t49 -18t19 -48t-19 -48t-49 -18zM193 573q-30 0 -49 18t-19 48t19 48t49 18t49 -18t19 -48t-19 -48t-49 -18z" horiz-adv-x="573"/>
<glyph unicode="å" glyph-name="aring" d="M265 94q38 0 65 26.5t27 73.5v39q-12 1 -35 1q-129 0 -129 -79q0 -29 19.5 -45t52.5 -16zM370 0l-11 78l-24 -57q-55 -35 -132 -35q-71 0 -121 41.5t-50 114.5q0 88 75.5 136t215.5 48h34v9q0 28 -2 46q-2 25 -21 41.5t-53 16.5q-74 0 -80 -83h-150q2 89 68.5 140 t167.5 51q209 0 223 -164q3 -38 3 -86v-162q0 -61 10 -135h-153zM286 711q-17 0 -27 -11.5t-10 -31.5t10 -31.5t27 -11.5t27 11.5t10 31.5t-10 31.5t-27 11.5zM286 567q-50 0 -81 28t-31 73t31 73t81 28t81 -28t31 -73t-31 -73t-81 -28z" horiz-adv-x="573"/>
<glyph unicode="æ" glyph-name="ae" d="M378 213v13q-15 1 -43 1q-73 0 -107.5 -16t-34.5 -53q0 -64 81 -64q47 0 75.5 32t28.5 87zM552 325h210q-14 114 -102 114q-90 0 -108 -114zM925 276q0 -22 -3 -50h-375q12 -132 112 -132q42 0 68.5 21t32.5 59h155q-21 -91 -89.5 -139.5t-168.5 -48.5q-151 0 -217 115 l-57 -73q-59 -42 -149 -42q-92 0 -147 41.5t-55 118.5q0 89 77 134t216 45h52v12q0 102 -88 102q-39 0 -62.5 -22t-25.5 -61h-150q1 89 67.5 140t168.5 51q141 0 188 -93q65 93 199 93q117 0 184 -79t67 -192z" horiz-adv-x="953"/>
<glyph unicode="ç" glyph-name="ccedilla" d="M295 94q37 0 63 24.5t35 70.5h155q-14 -91 -76 -143t-156 -59l-15 -28q92 -12 92 -79q0 -90 -158 -90q-34 0 -55 7v63q31 -8 57 -8q60 0 60 31q0 32 -66 32q-19 0 -30 -1l37 75q-96 15 -154 85.5t-58 187.5q0 133 77.5 209t195.5 76q109 0 176 -59.5t73 -151.5h-153 q-16 103 -100 103q-51 0 -79.5 -42t-28.5 -125q0 -90 28.5 -134t79.5 -44z" horiz-adv-x="573"/>
<glyph unicode="è" glyph-name="egrave" d="M295 439q-89 0 -108 -114h210q-14 114 -102 114zM560 276q0 -22 -3 -50h-374q6 -72 35 -102t77 -30q41 0 67.5 21t33.5 59h155q-21 -91 -90.5 -139.5t-168.5 -48.5q-117 0 -191.5 72t-74.5 207q0 122 75.5 202t200.5 80q122 0 190 -79t68 -192zM270 573l-138 122h140 l84 -122h-86z" horiz-adv-x="588"/>
<glyph unicode="é" glyph-name="eacute" d="M295 439q-89 0 -108 -114h210q-14 114 -102 114zM560 276q0 -22 -3 -50h-374q6 -72 35 -102t77 -30q41 0 67.5 21t33.5 59h155q-21 -91 -90.5 -139.5t-168.5 -48.5q-117 0 -191.5 72t-74.5 207q0 122 75.5 202t200.5 80q122 0 190 -79t68 -192zM333 573h-86l84 122h140z " horiz-adv-x="588"/>
<glyph unicode="ê" glyph-name="ecircumflex" d="M295 439q-89 0 -108 -114h210q-14 114 -102 114zM560 276q0 -22 -3 -50h-374q6 -72 35 -102t77 -30q41 0 67.5 21t33.5 59h155q-21 -91 -90.5 -139.5t-168.5 -48.5q-117 0 -191.5 72t-74.5 207q0 122 75.5 202t200.5 80q122 0 190 -79t68 -192zM263 573h-93l63 122h127 l63 -122h-94l-33 72z" horiz-adv-x="588"/>
<glyph unicode="ë" glyph-name="edieresis" d="M295 439q-89 0 -108 -114h210q-14 114 -102 114zM560 276q0 -22 -3 -50h-374q6 -72 35 -102t77 -30q41 0 67.5 21t33.5 59h155q-21 -91 -90.5 -139.5t-168.5 -48.5q-117 0 -191.5 72t-74.5 207q0 122 75.5 202t200.5 80q122 0 190 -79t68 -192zM389 573q-30 0 -48.5 18 t-18.5 48t18.5 48t48.5 18t49 -18t19 -48t-19 -48t-49 -18zM203 573q-30 0 -49 18t-19 48t19 48t49 18t49 -18t19 -48t-19 -48t-49 -18z" horiz-adv-x="588"/>
<glyph unicode="ì" glyph-name="igrave" d="M216 0h-157v533h157v-533zM197 573h-86l-138 122h140z" horiz-adv-x="276"/>
<glyph unicode="í" glyph-name="iacute" d="M216 0h-157v533h157v-533zM174 573h-86l84 122h140z" horiz-adv-x="276"/>
<glyph unicode="î" glyph-name="icircumflex" d="M59 533h157v-533h-157v533zM104 573h-93l63 122h127l63 -122h-94l-33 72z" horiz-adv-x="276"/>
<glyph unicode="ï" glyph-name="idieresis" d="M216 0h-157v533h157v-533zM230 705q30 0 49 -18t19 -48t-19 -48t-49 -18t-48.5 18t-18.5 48t18.5 48t48.5 18zM44 705q30 0 49 -18t19 -48t-19 -48t-49 -18t-49 18t-19 48t19 48t49 18z" horiz-adv-x="276"/>
<glyph unicode="ð" glyph-name="eth" d="M437 260v29q0 67 -33.5 105t-86.5 38q-61 0 -94 -44.5t-33 -120.5q0 -165 126 -165q58 0 89.5 42t31.5 116zM566 633l-42 -10q75 -107 75 -316q0 -86 -24.5 -150t-66.5 -100t-90.5 -53.5t-102.5 -17.5q-142 0 -215.5 76t-73.5 203q0 132 73.5 207t184.5 75q49 0 98 -29 l44 -56q-9 74 -53 127l-129 -30l-14 67l79 19q-34 22 -72 37l130 63q63 -28 103 -63l82 19z" horiz-adv-x="643"/>
<glyph unicode="ñ" glyph-name="ntilde" d="M573 400q5 -34 5 -99v-301h-157v277q0 47 -2 74q-7 88 -95 88q-49 0 -78.5 -47.5t-29.5 -144.5v-247h-157v533h157v-84l44 64q51 34 124 34q83 0 131.5 -38.5t57.5 -108.5zM264 609q-15 0 -15 -28h-81q0 62 19.5 90t60.5 28q36 0 77 -18q34 -14 45 -14q15 0 15 29h82 q0 -62 -19.5 -90.5t-61.5 -28.5q-32 0 -77 18q-37 14 -45 14z" horiz-adv-x="631"/>
<glyph unicode="ò" glyph-name="ograve" d="M307 94q56 0 87.5 45t31.5 128t-31.5 127.5t-87.5 44.5q-57 0 -88.5 -44.5t-31.5 -127.5t31.5 -128t88.5 -45zM307 547q130 0 205.5 -77t75.5 -203t-75.5 -203.5t-205.5 -77.5q-131 0 -206 77t-75 204q0 126 75 203t206 77zM281 573l-138 122h140l84 -122h-86z" horiz-adv-x="613"/>
<glyph unicode="ó" glyph-name="oacute" d="M307 94q56 0 87.5 45t31.5 128t-31.5 127.5t-87.5 44.5q-57 0 -88.5 -44.5t-31.5 -127.5t31.5 -128t88.5 -45zM307 547q130 0 205.5 -77t75.5 -203t-75.5 -203.5t-205.5 -77.5q-131 0 -206 77t-75 204q0 126 75 203t206 77zM344 573h-86l84 122h140z" horiz-adv-x="613"/>
<glyph unicode="ô" glyph-name="ocircumflex" d="M307 94q56 0 87.5 45t31.5 128t-31.5 127.5t-87.5 44.5q-57 0 -88.5 -44.5t-31.5 -127.5t31.5 -128t88.5 -45zM307 547q130 0 205.5 -77t75.5 -203t-75.5 -203.5t-205.5 -77.5q-131 0 -206 77t-75 204q0 126 75 203t206 77zM274 573h-93l63 122h127l63 -122h-94l-33 72z " horiz-adv-x="613"/>
<glyph unicode="õ" glyph-name="otilde" d="M307 94q56 0 87.5 45t31.5 128t-31.5 127.5t-87.5 44.5q-57 0 -88.5 -44.5t-31.5 -127.5t31.5 -128t88.5 -45zM307 547q130 0 205.5 -77t75.5 -203t-75.5 -203.5t-205.5 -77.5q-131 0 -206 77t-75 204q0 126 75 203t206 77zM254 609q-15 0 -15 -28h-81q0 62 19.5 90 t60.5 28q36 0 77 -18q34 -14 45 -14q15 0 15 29h82q0 -62 -19.5 -90.5t-61.5 -28.5q-32 0 -77 18q-37 14 -45 14z" horiz-adv-x="613"/>
<glyph unicode="ö" glyph-name="odieresis" d="M307 94q56 0 87.5 45t31.5 128t-31.5 127.5t-87.5 44.5q-57 0 -88.5 -44.5t-31.5 -127.5t31.5 -128t88.5 -45zM307 547q130 0 205.5 -77t75.5 -203t-75.5 -203.5t-205.5 -77.5q-131 0 -206 77t-75 204q0 126 75 203t206 77zM400 573q-30 0 -48.5 18t-18.5 48t18.5 48 t48.5 18t49 -18t19 -48t-19 -48t-49 -18zM214 573q-30 0 -49 18t-19 48t19 48t49 18t49 -18t19 -48t-19 -48t-49 -18z" horiz-adv-x="613"/>
<glyph unicode="÷" glyph-name="divide" d="M321 210q31 0 52.5 -21t21.5 -53t-21.5 -53t-52.5 -21t-52.5 21.5t-21.5 52.5t21.5 52.5t52.5 21.5zM557 275h-472v86h472v-86zM321 572q31 0 52.5 -21t21.5 -53t-21.5 -53t-52.5 -21t-52.5 21.5t-21.5 52.5t21.5 52.5t52.5 21.5z"/>
<glyph unicode="ø" glyph-name="oslash" d="M431 267q0 26 -3 47l-191 -191q29 -29 75 -29q56 0 87.5 45t31.5 128zM192 267q0 -29 5 -57l195 195q-31 34 -80 34q-57 0 -88.5 -44.5t-31.5 -127.5zM612 498l-65 -65q46 -69 46 -166q0 -126 -75.5 -203.5t-205.5 -77.5q-97 0 -167 45l-60 -60l-63 64l59 59 q-50 70 -50 173q0 126 75.5 203t205.5 77q102 0 173 -49l64 64z" horiz-adv-x="634"/>
<glyph unicode="ù" glyph-name="ugrave" d="M568 533v-533h-156v91l-45 -71q-51 -34 -124 -34q-79 0 -128.5 38.5t-59.5 96.5q-5 34 -5 99v313h156v-279q0 -37 4 -73q11 -86 96 -86q49 0 77.5 40.5t28.5 112.5v285h156zM283 573l-138 122h140l84 -122h-86z" horiz-adv-x="628"/>
<glyph unicode="ú" glyph-name="uacute" d="M568 533v-533h-156v91l-45 -71q-51 -34 -124 -34q-79 0 -128.5 38.5t-59.5 96.5q-5 34 -5 99v313h156v-279q0 -37 4 -73q11 -86 96 -86q49 0 77.5 40.5t28.5 112.5v285h156zM346 573h-86l84 122h140z" horiz-adv-x="628"/>
<glyph unicode="û" glyph-name="ucircumflex" d="M568 533v-533h-156v91l-45 -71q-51 -34 -124 -34q-79 0 -128.5 38.5t-59.5 96.5q-5 34 -5 99v313h156v-279q0 -37 4 -73q11 -86 96 -86q49 0 77.5 40.5t28.5 112.5v285h156zM276 573h-93l63 122h127l63 -122h-94l-33 72z" horiz-adv-x="628"/>
<glyph unicode="ü" glyph-name="udieresis" d="M568 533v-533h-156v91l-45 -71q-51 -34 -124 -34q-79 0 -128.5 38.5t-59.5 96.5q-5 34 -5 99v313h156v-279q0 -37 4 -73q11 -86 96 -86q49 0 77.5 40.5t28.5 112.5v285h156zM402 573q-30 0 -48.5 18t-18.5 48t18.5 48t48.5 18t49 -18t19 -48t-19 -48t-49 -18zM216 573 q-30 0 -49 18t-19 48t19 48t49 18t49 -18t19 -48t-19 -48t-49 -18z" horiz-adv-x="628"/>
<glyph unicode="ý" glyph-name="yacute" d="M589 533l-213 -544q-45 -115 -96 -157t-139 -42q-39 0 -68 4v105q14 -2 44 -2q68 0 95 62l7 17l-219 557h175l122 -412l121 412h171zM326 573h-86l84 122h140z" horiz-adv-x="584"/>
<glyph unicode="þ" glyph-name="thorn" d="M338 94q59 0 94.5 45t35.5 129q0 78 -34.5 124.5t-90.5 46.5q-58 0 -92.5 -39.5t-34.5 -126.5v-24q0 -80 35.5 -117.5t86.5 -37.5zM393 547q109 0 172.5 -74.5t63.5 -194.5q0 -138 -73 -215t-181 -77q-80 0 -124 28l-35 56v-266h-157v931h157v-282l40 59q46 35 137 35z " horiz-adv-x="655"/>
</font>
</defs>
</svg>
