<?xml version="1.0" encoding="UTF-8" standalone="no"?>
<!DOCTYPE svg  PUBLIC '-//W3C//DTD SVG 1.1//EN'  'http://www.w3.org/Graphics/SVG/1.1/DTD/svg11.dtd'>
<svg xmlns="http://www.w3.org/2000/svg" version="1.1">
<defs>
<font id="Aileron-HeavyItalic" horiz-adv-x="642">
<font-face ascent="800" cap-height="690" x-height="529" font-family="Aileron Heavy" units-per-em="1000" descent="-200" underline-thickness="50" bbox="-136 -218 1083 918" font-style="italic" font-weight="900" slope="-10" underline-position="-150" panose-1="0 0 10 0 0 0 0 0 0 0" unicode-range="U+0020-FB02"/>
<missing-glyph/>
<glyph glyph-name="space" unicode=" " horiz-adv-x="145"/>
<glyph glyph-name="exclam" unicode="!" d="M125 152q35 0 55 -19t20 -51q0 -38 -26 -67t-71 -29q-35 0 -55 19t-20 51q0 39 26 67.5t71 28.5zM198 203h-123l89 487h147z" horiz-adv-x="298"/>
<glyph glyph-name="quotedbl" unicode='&quot;' d="M328 451h-106l50 284h128zM150 451h-106l51 284h127z" horiz-adv-x="384"/>
<glyph glyph-name="numbersign" unicode="#" d="M401 399h-88l-42 -107h88zM492 399l-42 -107h96l-15 -86h-115l-80 -206h-91l80 206h-88l-80 -206h-91l80 206h-85l15 86h104l42 107h-98l16 86h115l80 205h91l-80 -205h88l80 205h91l-80 -205h85l-16 -86h-102z"/>
<glyph glyph-name="dollar" unicode="$" d="M361 259l-29 -162q91 9 91 81q0 54 -62 81zM247 502q0 -48 55 -75l29 166q-40 -7 -62 -30.5t-22 -60.5zM418 583l-32 -180q102 -43 146 -90t44 -123q0 -92 -72.5 -146t-191.5 -58l-13 -76h-89l14 81q-182 26 -197 206h150q6 -73 67 -94l33 187q-91 34 -134.5 80 t-43.5 120q0 86 67.5 145.5t183.5 67.5l14 77h89l-14 -80q84 -15 131 -70t52 -137h-151q1 61 -53 90z"/>
<glyph glyph-name="percent" unicode="%" d="M568 64q31 0 50.5 33.5t19.5 81.5q0 62 -47 62q-31 0 -50.5 -33t-19.5 -82q0 -62 47 -62zM600 319q64 0 102 -37t38 -103q0 -79 -48 -136t-133 -57q-64 0 -102 37.5t-38 102.5q0 79 48 136t133 57zM246 626q-30 0 -49.5 -33t-19.5 -82q0 -62 47 -62q30 0 50 33.5t20 81.5 q0 62 -48 62zM757 690l-568 -690h-130l567 690h131zM215 371q-64 0 -102.5 37.5t-38.5 102.5q0 79 48.5 136t133.5 57q64 0 102 -37t38 -103q0 -79 -48 -136t-133 -57z" horiz-adv-x="787"/>
<glyph glyph-name="ampersand" unicode="&amp;" d="M179 177q0 -41 26.5 -58t78.5 -17q50 0 93 8l32 179h-40q-34 0 -54 -1q-136 -9 -136 -111zM680 411l-22 -122h-93l-48 -277q-120 -26 -257 -26q-251 0 -251 159q0 85 55 139.5t146 68.5q-48 15 -75.5 51t-27.5 84q0 100 80.5 158t220.5 58q62 0 103 -10l-20 -115 q-45 9 -101 9q-119 0 -119 -105q0 -66 74 -71q18 -1 57 -1h28l15 86h157l-15 -86h93z" horiz-adv-x="680"/>
<glyph glyph-name="quotesingle" unicode="&apos;" d="M150 451h-106l51 284h127z" horiz-adv-x="206"/>
<glyph glyph-name="parenleft" unicode="(" d="M284 -80h-81q-85 113 -85 304q0 144 58.5 293.5t178.5 262.5h81q-114 -133 -167.5 -275.5t-53.5 -278.5q0 -177 69 -306z" horiz-adv-x="381"/>
<glyph glyph-name="parenright" unicode=")" d="M127 780h81q85 -113 85 -304q0 -143 -58.5 -292.5t-178.5 -263.5h-81q114 133 167.5 276t53.5 278q0 180 -69 306z" horiz-adv-x="381"/>
<glyph glyph-name="asterisk" unicode="*" d="M324 323l140 56l14 -98l-145 -32l82 -119l-94 -60l-56 129l-105 -129l-72 60l123 119l-133 32l48 98l121 -56l14 152h102z" horiz-adv-x="553"/>
<glyph glyph-name="plus" unicode="+" d="M541 277h-176l-35 -199h-90l35 199h-177l15 80h176l35 199h89l-35 -199h177z"/>
<glyph glyph-name="comma" unicode="," d="M179 144l-153 -267h-124l129 277h149z" horiz-adv-x="271"/>
<glyph glyph-name="hyphen" unicode="-" d="M265 240h-240l14 86h240z" horiz-adv-x="304"/>
<glyph glyph-name="period" unicode="." d="M101 168q33 0 54.5 -19t21.5 -52q0 -50 -30.5 -80.5t-78.5 -30.5q-33 0 -54.5 19t-21.5 52q0 50 30.5 80.5t78.5 30.5z" horiz-adv-x="271"/>
<glyph glyph-name="slash" unicode="/" d="M27 -30h-95l384 750h94z" horiz-adv-x="335"/>
<glyph glyph-name="zero" unicode="0" d="M298 102q44 0 77 39t49.5 98t24.5 114t8 100q0 135 -91 135q-44 0 -77 -38.5t-49.5 -97t-24.5 -113.5t-8 -102q0 -135 91 -135zM366 704q128 0 192.5 -71t64.5 -195q0 -76 -16.5 -150.5t-52 -144.5t-101.5 -113.5t-155 -43.5q-128 0 -192.5 71t-64.5 195q0 78 17 153 t52.5 144.5t101.5 112t154 42.5z"/>
<glyph glyph-name="one" unicode="1" d="M544 690l-121 -690h-156l92 526l-224 -110l25 143l181 96q68 35 131 35h72z"/>
<glyph glyph-name="two" unicode="2" d="M273 123h275l-22 -123h-517l13 71l264 217q97 80 134.5 128t37.5 100q0 74 -76 74q-46 0 -74.5 -28.5t-44.5 -88.5l-3 -10h-156l2 10q31 117 106.5 175t203.5 58q102 0 156 -45t54 -123q0 -69 -46.5 -134t-175.5 -172z"/>
<glyph glyph-name="three" unicode="3" d="M467 364q119 -27 119 -133q0 -108 -88.5 -176.5t-226.5 -68.5q-116 0 -178 51t-62 146q0 15 1 22l1 10h157l-1 -10q-1 -47 26.5 -75t80.5 -28q52 0 87.5 31.5t35.5 80.5q0 79 -111 84h-24l18 105l24 1q60 4 96 35.5t36 79.5q0 32 -20 50.5t-56 18.5q-43 0 -72.5 -27.5 t-40.5 -72.5l-2 -10h-156l2 10q25 98 99.5 157t206.5 59q101 0 154 -44t53 -112q0 -71 -40.5 -118.5t-118.5 -65.5z"/>
<glyph glyph-name="four" unicode="4" d="M369 282l46 233q-36 -49 -51 -64l-156 -169h161zM588 159h-85l-28 -159h-156l28 159h-329l15 85l403 446h168l-78 -408h83z"/>
<glyph glyph-name="five" unicode="5" d="M300 568l-55 -174l39 46q48 26 112 26q92 0 142 -50t50 -139q0 -136 -92.5 -213.5t-223.5 -77.5q-108 0 -168 45t-60 137q0 15 1 23v10h156v-10v-6q0 -83 82 -83q63 0 100 42.5t37 106.5q0 45 -23.5 72t-66.5 27q-73 0 -114 -71h-145l125 411h440l-21 -122h-315z"/>
<glyph glyph-name="six" unicode="6" d="M334 347q-51 0 -89.5 -40.5t-38.5 -106.5q0 -44 23 -71t64 -27q57 0 93 43t36 104q0 45 -22.5 71.5t-65.5 26.5zM419 704q102 0 154.5 -47.5t52.5 -132.5v-16l-1 -10h-158v10q-7 80 -78 80q-121 0 -165 -227l47 64q54 38 130 38q95 0 143 -50.5t48 -131.5 q0 -90 -46.5 -158.5t-117.5 -102.5t-152 -34q-109 0 -167.5 62t-58.5 177q0 217 105.5 348t263.5 131z"/>
<glyph glyph-name="seven" unicode="7" d="M669 690l-16 -85l-432 -605h-173l411 568h-355l22 122h543z"/>
<glyph glyph-name="eight" unicode="8" d="M292 101q63 0 95 32.5t32 85.5q0 39 -23.5 62t-68.5 23q-56 0 -92 -34t-36 -87q0 -39 24 -60.5t69 -21.5zM353 418q46 0 75.5 27.5t29.5 74.5q0 31 -19.5 49.5t-54.5 18.5q-44 0 -73 -28t-29 -73q0 -33 18.5 -51t52.5 -18zM478 366q46 -18 75 -54.5t29 -89.5 q0 -117 -88.5 -177t-224.5 -60q-237 0 -237 173q0 81 48.5 133.5t119.5 74.5q-78 31 -78 117q0 98 77 159.5t208 61.5q103 0 158.5 -44.5t55.5 -119.5q0 -70 -40.5 -112.5t-102.5 -61.5z"/>
<glyph glyph-name="nine" unicode="9" d="M330 343q52 0 90 40.5t38 107.5q0 44 -23 70.5t-64 26.5q-57 0 -93 -43t-36 -104q0 -45 22.5 -71.5t65.5 -26.5zM388 704q109 0 167.5 -61.5t58.5 -176.5q0 -217 -105.5 -348.5t-262.5 -131.5q-102 0 -155 47.5t-53 133.5v16l1 10h158v-10q7 -81 78 -81q121 0 166 229 l-48 -66q-55 -38 -130 -38q-94 0 -142 51t-48 131q0 90 46.5 158.5t117 102.5t151.5 34z"/>
<glyph glyph-name="colon" unicode=":" d="M110 168q34 0 55.5 -19t21.5 -52q0 -50 -30.5 -80.5t-78.5 -30.5q-33 0 -54.5 19t-21.5 52q0 50 30 80.5t78 30.5zM177 547q33 0 54.5 -19t21.5 -52q0 -50 -30 -80.5t-78 -30.5q-33 0 -55 19t-22 52q0 50 30.5 80.5t78.5 30.5z" horiz-adv-x="271"/>
<glyph glyph-name="semicolon" unicode=";" d="M177 136l-150 -259h-124l129 277h148zM177 547q33 0 54.5 -19t21.5 -52q0 -50 -30 -80.5t-78 -30.5q-33 0 -55 19t-22 52q0 50 30.5 80.5t78.5 30.5z" horiz-adv-x="271"/>
<glyph glyph-name="less" unicode="&lt;" d="M582 401l-377 -137l330 -136l-19 -105l-421 183l21 119l485 183z"/>
<glyph glyph-name="equal" unicode="=" d="M538 177h-472l14 80h472zM574 377h-473l14 80h472z"/>
<glyph glyph-name="greater" unicode="&gt;" d="M533 325l-21 -119l-486 -183l19 106l378 137l-331 136l19 106z"/>
<glyph glyph-name="question" unicode="?" d="M299 152q35 0 55 -19t20 -51q0 -38 -26 -67t-71 -29q-35 0 -55 19t-20 51q0 39 26 67.5t71 28.5zM407 704q99 0 153 -42t54 -116q0 -66 -31 -113t-111 -108q-45 -34 -65.5 -59t-32.5 -63h-131q12 54 32.5 87.5t65.5 75.5q63 57 84.5 89t21.5 68q0 65 -70 65 q-83 0 -106 -109h-157q19 105 98 165t195 60z" horiz-adv-x="627"/>
<glyph glyph-name="at" unicode="@" d="M423 180q45 0 62 69l14 63q3 13 3 25q0 43 -39 43q-36 0 -59.5 -37.5t-23.5 -92.5q0 -70 43 -70zM678 470l-40 -165q-15 -62 -15 -91q0 -58 40 -58q42 0 70.5 48t28.5 135q0 126 -75 196.5t-203 70.5q-53 0 -103 -14t-94.5 -43.5t-78 -70.5t-53 -98.5t-19.5 -124.5 q0 -138 78 -216.5t218 -78.5q136 0 230 69l34 -76q-124 -80 -275 -80q-70 0 -135.5 21.5t-122 64.5t-90.5 118t-34 172q0 128 62 230.5t164 158t223 55.5q171 0 270.5 -100.5t99.5 -245.5q0 -141 -64.5 -209t-164.5 -68q-113 0 -139 93l-29 -58q-41 -33 -91 -33 q-58 0 -97 39t-39 128q0 106 55 177.5t141 71.5q57 0 80 -28l14 -53l20 63h134z" horiz-adv-x="911"/>
<glyph glyph-name="A" unicode="A" d="M437 318l-33 230l-115 -230h148zM456 195h-228l-97 -195h-168l366 690h205l120 -690h-170z" horiz-adv-x="692"/>
<glyph glyph-name="B" unicode="B" d="M362 124q37 2 66 29.5t29 71.5q0 32 -18.5 49.5t-48.5 20.5q-15 2 -47 2h-105l-31 -174h109q32 0 46 1zM286 568l-28 -156h94q24 0 48 3q81 12 81 90q0 52 -56 60q-23 3 -48 3h-91zM515 372q108 -36 108 -152q0 -49 -21 -89.5t-56.5 -66t-74.5 -40.5t-81 -20 q-36 -4 -99 -4h-262l122 690h263q54 0 88 -4q71 -9 109.5 -48.5t38.5 -98.5q0 -127 -135 -167z" horiz-adv-x="665"/>
<glyph glyph-name="C" unicode="C" d="M461 704q131 0 201.5 -60.5t70.5 -158.5q0 -3 -0.5 -10t-0.5 -10l-1 -10h-156v10q-3 123 -130 123q-93 0 -155 -83t-62 -222q0 -92 37 -136.5t98 -44.5q118 0 168 131l4 10h156l-3 -10q-33 -118 -122.5 -182.5t-221.5 -64.5q-131 0 -207 75t-75 210q0 96 31.5 178 t86 137.5t127.5 86.5t154 31z" horiz-adv-x="755"/>
<glyph glyph-name="D" unicode="D" d="M348 125q101 11 153.5 86t52.5 181q0 160 -131 173q-33 3 -67 3h-70l-79 -445h72q46 0 69 2zM477 686q109 -12 176 -85t67 -205q0 -156 -93.5 -266t-267.5 -127q-36 -3 -89 -3h-241l122 690h232q60 0 94 -4z" horiz-adv-x="734"/>
<glyph glyph-name="E" unicode="E" d="M285 568l-28 -161h323l-22 -122h-323l-28 -162h355l-22 -123h-511l122 690h501l-22 -122h-345z" horiz-adv-x="619"/>
<glyph glyph-name="F" unicode="F" d="M285 568l-28 -161h313l-22 -122h-313l-50 -285h-156l122 690h501l-22 -122h-345z" horiz-adv-x="597"/>
<glyph glyph-name="G" unicode="G" d="M478 704q131 0 197.5 -59.5t66.5 -157.5q0 -15 -1 -22l-1 -10h-157v10q-1 123 -127 123q-95 0 -161.5 -82.5t-66.5 -221.5q0 -90 38 -136t102 -46q60 0 106.5 34.5t71.5 100.5h-141l22 122h290l-64 -359h-124l7 108l-43 -71q-64 -51 -173 -51q-121 0 -190 74t-69 206 q0 133 59.5 235t153.5 152.5t204 50.5z" horiz-adv-x="773"/>
<glyph glyph-name="H" unicode="H" d="M766 690l-122 -690h-157l49 277h-302l-49 -277h-156l122 690h156l-51 -290h302l51 290h157z" horiz-adv-x="754"/>
<glyph glyph-name="I" unicode="I" d="M185 0h-156l122 690h156z" horiz-adv-x="295"/>
<glyph glyph-name="J" unicode="J" d="M612 690l-70 -400q-8 -47 -20 -99q-48 -205 -288 -205q-104 0 -160.5 51.5t-56.5 141.5q0 21 3 45l4 33h157l-4 -33q-2 -22 -2 -30q0 -92 84 -92q83 0 109 98q4 16 15 70l73 420h156z" horiz-adv-x="608"/>
<glyph glyph-name="K" unicode="K" d="M402 354l242 -354h-193l-169 275l-58 -53l-39 -222h-156l122 690h156l-56 -314l338 314h187z" horiz-adv-x="694"/>
<glyph glyph-name="L" unicode="L" d="M564 132l-24 -132h-511l122 690h156l-99 -558h356z" horiz-adv-x="607"/>
<glyph glyph-name="M" unicode="M" d="M915 690l-122 -690h-157l96 533l-229 -533h-184l-41 536l-93 -536h-156l122 690h255l36 -524l212 524h261z" horiz-adv-x="903"/>
<glyph glyph-name="N" unicode="N" d="M781 690l-122 -690h-209l-178 494l-87 -494h-156l122 690h201l183 -509l89 509h157z" horiz-adv-x="769"/>
<glyph glyph-name="O" unicode="O" d="M390 102q54 0 98 27.5t70.5 71.5t40.5 95.5t14 104.5q0 85 -42 136t-118 51q-72 0 -124.5 -47.5t-75.5 -113.5t-23 -138q0 -85 42 -136t118 -51zM462 704q149 0 233 -84t84 -215q0 -185 -111 -302t-287 -117q-149 0 -233 84t-84 215q0 185 111 302t287 117z" horiz-adv-x="793"/>
<glyph glyph-name="P" unicode="P" d="M394 377q44 5 70.5 34.5t26.5 79.5q0 67 -63 74q-15 2 -56 2h-87l-34 -192h87q40 0 56 2zM495 685q70 -8 116 -53.5t46 -121.5q0 -109 -68 -175.5t-163 -77.5q-45 -5 -104 -5h-92l-45 -252h-156l122 690h241q59 0 103 -5z" horiz-adv-x="638"/>
<glyph glyph-name="Q" unicode="Q" d="M229 281q0 -84 38.5 -131.5t109.5 -47.5q75 0 129 49.5t76.5 117t22.5 140.5q0 83 -39 131t-110 48q-75 0 -128.5 -49.5t-76 -117t-22.5 -140.5zM771 413q0 -98 -36.5 -179t-98.5 -124q47 -15 97 -59l-80 -100q-50 32 -79 43.5t-60 11.5q-34 0 -73 -11q-35 -9 -70 -9 q-147 0 -227.5 80.5t-80.5 211.5q0 189 110 307.5t289 118.5q148 0 228.5 -80t80.5 -211z" horiz-adv-x="788"/>
<glyph glyph-name="R" unicode="R" d="M389 387q111 10 111 109q0 63 -74 70q-28 2 -53 2h-88l-32 -182h83q38 0 53 1zM671 535q0 -160 -177 -205q45 -17 63 -63t18 -139q0 -82 21 -128h-170q-7 47 -8 162q0 104 -67 108q-19 1 -55 1h-63l-48 -271h-156l122 690h262q59 0 103 -5q70 -8 112.5 -45t42.5 -105z " horiz-adv-x="655"/>
<glyph glyph-name="S" unicode="S" d="M375 704q118 0 175.5 -55.5t57.5 -148.5v-17h-158v11q0 45 -23 69.5t-69 24.5q-44 0 -71 -23t-27 -64q0 -32 29.5 -53.5t100.5 -38.5q183 -45 183 -186q0 -111 -88 -174t-215 -63q-118 0 -186.5 50t-68.5 146q0 16 1 25h158q1 -51 32.5 -78t81.5 -27q49 0 82.5 25 t33.5 66q0 62 -111 92q-101 26 -151.5 67t-50.5 114q0 109 83.5 173.5t200.5 64.5z" horiz-adv-x="612"/>
<glyph glyph-name="T" unicode="T" d="M687 568h-229l-100 -568h-156l100 568h-230l22 122h616z" horiz-adv-x="627"/>
<glyph glyph-name="U" unicode="U" d="M738 690l-67 -384q-10 -57 -20 -96q-26 -108 -100.5 -166t-216.5 -58q-131 0 -198 54.5t-67 145.5q0 43 15 129l66 375h156l-74 -420q-7 -39 -7 -65q0 -49 33.5 -76t87.5 -27q62 0 98.5 27.5t53.5 92.5q1 4 10 46l74 422h156z" horiz-adv-x="710"/>
<glyph glyph-name="V" unicode="V" d="M432 0h-205l-120 690h170l75 -569l278 569h168z" horiz-adv-x="720"/>
<glyph glyph-name="W" unicode="W" d="M1083 690l-300 -690h-208l-11 536l-200 -536h-210l-53 690h163l19 -557l195 547h226v-552l206 562h173z" horiz-adv-x="1000"/>
<glyph glyph-name="X" unicode="X" d="M437 345l197 -345h-180l-130 247l-194 -247h-188l315 352l-176 338h177l111 -240l194 240h181z" horiz-adv-x="685"/>
<glyph glyph-name="Y" unicode="Y" d="M422 261l-46 -261h-157l47 266l-168 424h167l104 -292l197 292h175z" horiz-adv-x="658"/>
<glyph glyph-name="Z" unicode="Z" d="M655 569l-433 -446h359l-22 -123h-555l21 119l437 449h-330l22 122h522z" horiz-adv-x="634"/>
<glyph glyph-name="bracketleft" unicode="[" d="M187 780h246l-15 -86h-156l-122 -688h156l-15 -86h-246z" horiz-adv-x="384"/>
<glyph glyph-name="backslash" unicode="\" d="M278 -30h-94l-119 750h94z" horiz-adv-x="335"/>
<glyph glyph-name="bracketright" unicode="]" d="M217 -80h-246l16 86h156l121 688h-156l16 86h245z" horiz-adv-x="384"/>
<glyph glyph-name="asciicircum" unicode="^" d="M421 215l-68 314l-177 -314h-101l239 401h105l101 -401h-99z"/>
<glyph glyph-name="underscore" unicode="_" d="M443 -88h-400l14 86h400z" horiz-adv-x="500"/>
<glyph glyph-name="grave" unicode="`" d="M199 572h-86l-116 121h140z" horiz-adv-x="300"/>
<glyph glyph-name="a" unicode="a" d="M347 194l7 41q-28 2 -39 2q-63 0 -101.5 -23t-38.5 -65q0 -55 63 -55q35 0 68 26.5t41 71.5v2zM333 547q105 0 153.5 -38.5t48.5 -105.5q0 -31 -14 -109l-28 -159q-10 -57 -14 -135h-153l2 77l-33 -53q-53 -38 -134 -38q-65 0 -107 36.5t-42 105.5q0 92 84 145.5 t232 53.5q28 0 43 -1l1 6q5 30 5 52q0 55 -60 55q-79 0 -99 -83h-150q17 89 90 140t175 51z" horiz-adv-x="568"/>
<glyph glyph-name="b" unicode="b" d="M317 94q70 0 115 65t45 153q0 62 -27 94.5t-75 32.5q-57 0 -99 -40t-58 -126l-5 -24l-2 -9l3 9q-3 -21 -3 -40q0 -115 106 -115zM436 547q100 0 153.5 -55.5t53.5 -156.5q0 -144 -83 -246.5t-233 -102.5q-80 0 -118 31l-26 58l-13 -75h-157l130 735h157l-50 -281l51 58 q50 35 135 35z" horiz-adv-x="663"/>
<glyph glyph-name="c" unicode="c" d="M345 544q115 0 172 -57.5t57 -153.5h-153q-1 103 -89 103q-65 0 -104.5 -66t-39.5 -161q0 -55 23.5 -85t61.5 -30q88 0 122 95h156q-74 -203 -291 -203q-108 0 -173 56t-65 168q0 142 89 238t234 96z" horiz-adv-x="587"/>
<glyph glyph-name="d" unicode="d" d="M445 260l5 25q3 19 3 39q0 51 -25.5 83t-80.5 32q-70 0 -115 -65t-45 -153q0 -62 27 -94.5t75 -32.5q57 0 98.5 40t57.5 125v1zM686 735l-130 -735h-157l14 79l-50 -58q-50 -35 -135 -35q-100 0 -153.5 55.5t-53.5 156.5q0 92 33.5 169.5t107 128.5t174.5 51 q79 0 119 -30l26 -58l48 276h157z" horiz-adv-x="662"/>
<glyph glyph-name="e" unicode="e" d="M324 439q-44 0 -76 -30.5t-49 -83.5h213q1 8 1 18q0 45 -23 70.5t-66 25.5zM181 226v-21q0 -111 90 -111q41 0 71.5 21t43.5 59h155q-31 -91 -105 -139.5t-177 -48.5q-105 0 -171 54.5t-66 164.5q0 148 88 245t229 97q113 0 173 -60.5t60 -154.5q0 -52 -18 -106h-373z " horiz-adv-x="594"/>
<glyph glyph-name="f" unicode="f" d="M281 589q-7 -24 -10 -43l-3 -17h109l-17 -100h-109l-75 -429h-157l76 429h-48l17 100h49l2 14q5 33 13 60q40 151 190 151q63 0 107 -7l-19 -106q-16 4 -34 4q-72 0 -91 -56z" horiz-adv-x="330"/>
<glyph glyph-name="g" unicode="g" d="M289 99q58 0 99.5 38t56.5 123l-1 -7l6 33v-1q3 19 3 39q0 51 -25.5 83t-80.5 32q-70 0 -115 -65t-45 -153q0 -122 102 -122zM651 533l-71 -398q-17 -92 -19 -103q-27 -129 -108 -189.5t-229 -60.5q-110 0 -170.5 43t-60.5 124q0 2 0.5 8t0.5 9l1 10h153l-1 -9 q-2 -32 25 -50.5t76 -18.5q59 0 99 29t54 87q9 45 13 67l1 4l-52 -59q-52 -36 -135 -36q-99 0 -153 56t-54 152q0 92 33.5 169.5t107 128.5t174.5 51q79 0 119 -30l26 -58l13 74h157z" horiz-adv-x="663"/>
<glyph glyph-name="h" unicode="h" d="M436 547q79 0 120 -37.5t41 -99.5q0 -39 -12 -104l-55 -306h-156l49 274q10 63 10 85q0 80 -79 80q-106 -2 -142 -195l-42 -244h-157l130 740h157l-51 -286l56 59q57 34 131 34z" horiz-adv-x="631"/>
<glyph glyph-name="i" unicode="i" d="M170 0h-157l95 533h156zM222 739q34 0 53.5 -18t19.5 -49q0 -37 -25 -64.5t-69 -27.5q-34 0 -53.5 18.5t-19.5 49.5q0 36 25.5 63.5t68.5 27.5z" horiz-adv-x="276"/>
<glyph glyph-name="j" unicode="j" d="M248 533l-94 -532q-4 -30 -14 -65q-35 -146 -221 -146q-31 0 -55 3l19 109q20 -2 27 -2q61 0 76 51q2 7 12 50l93 532h157zM198 739q38 0 58.5 -18t20.5 -48q0 -45 -24 -69t-68 -24q-38 0 -58.5 18t-20.5 48q0 45 24 69t68 24z" horiz-adv-x="253"/>
<glyph glyph-name="k" unicode="k" d="M377 284l198 -284h-190l-131 209l-56 -49l-28 -160h-157l130 735h157l-77 -434l243 232h186z" horiz-adv-x="610"/>
<glyph glyph-name="l" unicode="l" d="M296 735l-98 -553q-7 -32 -7 -53q0 -19 9.5 -26t31.5 -7h13l-18 -99q-39 -6 -87 -6q-58 0 -85.5 18.5t-27.5 59.5q0 36 13 110l100 556h156z" horiz-adv-x="292"/>
<glyph glyph-name="m" unicode="m" d="M748 547q79 0 119 -36.5t40 -94.5q0 -29 -13 -101l-55 -315h-157l49 275q10 62 10 90q0 74 -65 74q-41 0 -74.5 -42t-47.5 -112l-1 -8l-49 -277h-156l48 275q10 68 10 90q0 74 -69 74q-40 0 -72.5 -43t-45.5 -116v-3l-49 -277h-157l94 533h156l-13 -75l51 58 q53 31 120 31q62 0 99.5 -26.5t47.5 -70.5l53 60q51 37 127 37z" horiz-adv-x="939"/>
<glyph glyph-name="n" unicode="n" d="M436 547q79 0 120 -37.5t41 -99.5q0 -39 -12 -104l-55 -306h-156l49 274q10 63 10 85q0 80 -79 80q-106 -2 -142 -195l-42 -244h-157l94 533h156l-14 -79l56 59q57 34 131 34z" horiz-adv-x="631"/>
<glyph glyph-name="o" unicode="o" d="M290 94q69 0 108 63.5t39 149.5q0 59 -25 95.5t-75 36.5q-69 0 -108 -63t-39 -149q0 -60 25.5 -96.5t74.5 -36.5zM350 547q123 0 188 -65.5t65 -171.5q0 -85 -34.5 -157t-110.5 -119.5t-180 -47.5q-124 0 -189 65.5t-65 171.5q0 134 85.5 229t240.5 95z" horiz-adv-x="626"/>
<glyph glyph-name="p" unicode="p" d="M317 94q70 0 115 65t45 153q0 62 -27 94.5t-75 32.5q-57 0 -99 -40t-58 -126l-4 -24q-3 -21 -3 -40q0 -115 106 -115zM436 547q100 0 153.5 -55.5t53.5 -156.5q0 -144 -83 -246.5t-233 -102.5q-80 0 -118 31l-26 58l-48 -271h-157l130 729h156l-14 -79l51 58 q50 35 135 35z" horiz-adv-x="663"/>
<glyph glyph-name="q" unicode="q" d="M445 260l5 25q3 19 3 39q0 51 -25.5 83t-80.5 32q-70 0 -115 -65t-45 -153q0 -62 27 -94.5t75 -32.5q57 0 98.5 40t57.5 124v2zM651 533l-130 -729h-157l49 275l-50 -58q-50 -35 -135 -35q-100 0 -153.5 55.5t-53.5 156.5q0 92 33.5 169.5t107 128.5t174.5 51 q79 0 119 -30l26 -58l13 74h157z" horiz-adv-x="663"/>
<glyph glyph-name="r" unicode="r" d="M404 547q15 0 39 -4l-22 -127q-20 2 -30 2q-69 0 -115.5 -43t-66.5 -152l-39 -223h-157l93 530h157l-18 -100l55 75q46 42 104 42z" horiz-adv-x="393"/>
<glyph glyph-name="s" unicode="s" d="M275 544q104 0 156 -45.5t56 -123.5h-154q-8 69 -64 69q-28 0 -43.5 -14t-15.5 -35q0 -28 21.5 -44t83.5 -37q79 -26 114.5 -63t35.5 -98q0 -80 -66.5 -126.5t-174.5 -46.5q-110 0 -170.5 47t-65.5 131h156q7 -77 86 -77q32 0 51.5 14.5t19.5 41.5t-24 45.5t-90 40.5 q-72 25 -106.5 58t-34.5 94q0 72 60 120.5t169 48.5z" horiz-adv-x="499"/>
<glyph glyph-name="t" unicode="t" d="M269 429l-40 -224q-7 -34 -7 -60q0 -25 14 -36.5t45 -11.5q17 0 39 3l-18 -101q-54 -12 -110 -12q-72 0 -103.5 23.5t-31.5 73.5q0 33 11 100l43 245h-77l18 100h77l24 134h157l-24 -134h110l-18 -100h-109z" horiz-adv-x="372"/>
<glyph glyph-name="u" unicode="u" d="M614 533l-94 -533h-156l14 79l-56 -59q-57 -34 -131 -34q-79 0 -120 37.5t-41 99.5q0 38 12 105l55 305h157l-50 -274q-10 -62 -10 -85q0 -79 76 -79h3q50 0 87.5 48t54.5 146l43 244h156z" horiz-adv-x="626"/>
<glyph glyph-name="v" unicode="v" d="M622 533l-301 -533h-177l-112 533h175l50 -405l193 405h172z" horiz-adv-x="562"/>
<glyph glyph-name="w" unicode="w" d="M884 533l-263 -533h-177l-12 388l-148 -388h-177l-75 533h173l15 -395l144 392h188l12 -394l151 397h169z" horiz-adv-x="823"/>
<glyph glyph-name="x" unicode="x" d="M357 266l149 -266h-183l-75 161l-125 -161h-181l238 266l-136 267h183l64 -162l127 162h181z" horiz-adv-x="553"/>
<glyph glyph-name="y" unicode="y" d="M622 533l-301 -533q-67 -118 -126.5 -164t-146.5 -46q-30 0 -67 5l17 103q23 -3 46 -3q64 0 100 69l6 11l-118 558h175l50 -404l193 404h172z" horiz-adv-x="562"/>
<glyph glyph-name="z" unicode="z" d="M520 429l-335 -328h285l-17 -101h-473l16 95l339 333h-257l17 101h443z" horiz-adv-x="526"/>
<glyph glyph-name="braceleft" unicode="{" d="M407 780l-15 -86h-20q-47 0 -64 -25t-17 -109v-8q0 -94 -23.5 -141.5t-86.5 -59.5q69 -15 69 -78q0 -53 -32 -133q-31 -79 -31 -101q0 -19 14.5 -26t49.5 -7h19l-15 -86h-41q-59 0 -88.5 27t-29.5 74q0 26 6.5 48.5t29.5 80.5q26 69 26 109q0 44 -71 48l14 86 q62 5 81.5 34t19.5 123q0 135 34 182.5t130 47.5h41z" horiz-adv-x="398"/>
<glyph glyph-name="bar" unicode="|" d="M116 -200h-101l176 1000h101z" horiz-adv-x="312"/>
<glyph glyph-name="braceright" unicode="}" d="M248 441q0 -43 72 -48l-15 -86q-60 -4 -80 -32t-20 -116v-9q0 -135 -34 -182.5t-130 -47.5h-41l15 86h20q46 0 63 24t17 103v7q0 99 23 148t87 62q-68 16 -68 77q0 53 32 133q31 80 31 101q0 19 -14.5 26t-49.5 7h-19l15 86h41q59 0 88.5 -27t29.5 -74q0 -25 -6.5 -47 t-29.5 -82q-27 -68 -27 -109z" horiz-adv-x="398"/>
<glyph glyph-name="asciitilde" unicode="~" d="M484 394h86q-31 -171 -157 -171q-20 0 -39.5 5.5t-33.5 12.5t-43 23q-59 35 -85 35q-25 0 -38.5 -18.5t-20.5 -57.5h-86q29 171 156 171q30 0 53 -9t63 -32q61 -35 85 -35t38.5 17.5t21.5 58.5z"/>
<glyph glyph-name="exclamdown" unicode="¡" d="M77 331h123l-89 -488h-147zM150 382q-34 0 -54.5 18.5t-20.5 50.5q0 38 26 67t71 29q35 0 55 -19t20 -51q0 -38 -26 -66.5t-71 -28.5z" horiz-adv-x="275"/>
<glyph glyph-name="cent" unicode="¢" d="M205 209q0 -75 43 -103l57 321q-46 -21 -73 -81t-27 -137zM395 426l-58 -323q52 20 75 86h156q-67 -185 -251 -201l-14 -78h-90l14 79q-87 13 -137.5 68t-50.5 153q0 132 78 225.5t208 106.5l14 78h90l-14 -80q88 -12 132.5 -67.5t44.5 -139.5h-153q-1 72 -44 93z"/>
<glyph glyph-name="sterling" unicode="£" d="M297 296l1 -18q0 -48 -26.5 -90t-79.5 -65h348l-22 -123h-527l19 109q71 13 101 55t30 95q0 18 -4 37h-85l14 80h48q-14 51 -14 97q0 98 71 164.5t194 66.5q210 0 224 -207h-158q-2 42 -21 66.5t-55 24.5q-43 0 -67.5 -31t-24.5 -76q0 -41 19 -105h200l-13 -80h-172z" horiz-adv-x="618"/>
<glyph glyph-name="currency" unicode="¤" d="M310 206q47 0 73 32t26 72q0 39 -20.5 62.5t-56.5 23.5q-47 0 -72.5 -31.5t-25.5 -71.5t20 -63.5t56 -23.5zM548 450l-64 -56q17 -37 17 -79q0 -63 -44 -119l43 -53l-57 -48l-44 51q-45 -25 -98 -25q-59 0 -100 33l-62 -51l-43 51l63 54q-17 37 -17 79q0 64 42 118 l-42 52l60 51l42 -50q44 23 92 23h6q59 -1 99 -34l65 54z"/>
<glyph glyph-name="yen" unicode="¥" d="M450 374h108l-16 -86h-152l-11 -58h153l-15 -86h-153l-25 -144h-157l25 144h-153l16 86h152l11 58h-153l15 86h110l-119 316h166l80 -308l187 308h161z"/>
<glyph glyph-name="brokenbar" unicode="¦" d="M111 -160h-89l60 340h89zM201 350h-89l60 340h89z" horiz-adv-x="300"/>
<glyph glyph-name="section" unicode="§" d="M293 206q55 -20 95 -42q46 19 46 71q0 30 -24 50t-81 41q-53 19 -87 37q-43 -19 -43 -70q0 -53 94 -87zM597 245q0 -48 -31.5 -92t-90.5 -69q21 -34 21 -75q0 -84 -69 -133.5t-182 -49.5q-96 0 -156.5 45.5t-69.5 133.5h155q3 -37 25 -58t54 -21q80 0 80 68 q0 35 -28.5 59t-106.5 51q-80 28 -121 68.5t-41 103.5q0 53 29.5 99t87.5 73q-16 31 -16 75q0 68 62.5 124.5t168.5 56.5q97 0 149.5 -46.5t61.5 -128.5h-156q-5 75 -60 75q-30 0 -46.5 -22t-16.5 -53q0 -35 24.5 -54.5t87.5 -37.5q95 -29 140 -74.5t45 -117.5z" horiz-adv-x="637"/>
<glyph glyph-name="dieresis" unicode="¨" d="M245 705q28 0 44 -14.5t16 -40.5q0 -35 -23.5 -56t-52.5 -21t-44.5 14.5t-15.5 40.5q0 34 23.5 55.5t52.5 21.5zM58 705q28 0 44 -14.5t16 -40.5q0 -35 -23 -56t-52 -21q-61 0 -61 55q0 34 23.5 55.5t52.5 21.5z" horiz-adv-x="300"/>
<glyph glyph-name="copyright" unicode="©" d="M436 583q91 0 145 -49t62 -132h-133q-8 88 -79 88q-82 0 -82 -134q0 -137 85 -137q31 0 51.5 22.5t23.5 65.5h133q-13 -85 -67 -133t-147 -48q-98 0 -158.5 61.5t-60.5 167.5q0 103 62 165.5t165 62.5zM427 669q-134 0 -221.5 -89t-87.5 -225t87.5 -224t221.5 -88 q135 0 222.5 88t87.5 224q0 137 -87.5 225.5t-222.5 88.5zM427 755q177 0 292 -112.5t115 -287.5t-115 -287.5t-292 -112.5t-291.5 113t-114.5 287t114.5 287t291.5 113z" horiz-adv-x="855"/>
<glyph glyph-name="guillemotleft" unicode="«" d="M448 239l102 -157h-111l-108 166l166 166h126zM228 239l102 -157h-111l-108 166l166 166h126z" horiz-adv-x="644"/>
<glyph glyph-name="logicalnot" unicode="¬" d="M495 182h-89l22 127h-312l16 86h401z"/>
<glyph glyph-name="registered" unicode="®" d="M226 568h14q12 0 19 1q24 5 24 29q0 19 -17 22q-6 1 -18 1h-12zM281 664q63 -6 63 -56q0 -44 -53 -56q26 -8 26 -44v-8q0 -26 10 -46h-65q-4 24 -4 37v9q0 23 -24 23h-16l-12 -69h-57l37 211h68q18 0 27 -1zM230 398q81 0 127.5 50.5t46.5 127.5q0 60 -37.5 97.5 t-103.5 37.5q-81 0 -128 -51t-47 -128q0 -60 38 -97t104 -37zM272 764q87 0 138.5 -53.5t51.5 -132.5q0 -98 -68 -166t-174 -68q-87 0 -138.5 53.5t-51.5 132.5q0 97 68 165.5t174 68.5z" horiz-adv-x="492"/>
<glyph glyph-name="macron" unicode="¯" d="M285 588h-285l15 85h285z" horiz-adv-x="300"/>
<glyph glyph-name="degree" unicode="°" d="M228 669q-24 0 -40 -16t-16 -41q0 -21 12 -33t31 -12q25 0 41 16t16 41q0 22 -12 33.5t-32 11.5zM236 749q56 0 89.5 -32.5t33.5 -84.5q0 -64 -43.5 -104.5t-106.5 -40.5q-57 0 -90.5 33t-33.5 84q0 64 43 104.5t108 40.5z" horiz-adv-x="319"/>
<glyph glyph-name="plusminus" unicode="±" d="M82 80h405l-14 -80h-405zM537 361l-16 -86h-158l-27 -153h-89l27 153h-158l16 86h157l27 151h89l-27 -151h159z"/>
<glyph glyph-name="acute" unicode="´" d="M176 572h-86l105 121h140z" horiz-adv-x="300"/>
<glyph glyph-name="paragraph" unicode="¶" d="M621 690l-142 -800h-90l127 714h-108l-127 -714h-89l76 430h-6q-39 0 -56 1q-60 4 -94 51t-34 109q0 74 49.5 138t143.5 70q18 1 57 1h293z" horiz-adv-x="605"/>
<glyph glyph-name="periodcentered" unicode="·" d="M155 397q34 0 56 -19t22 -52q0 -50 -31.5 -81.5t-79.5 -31.5q-33 0 -55 19t-22 53q0 50 31 81t79 31z" horiz-adv-x="261"/>
<glyph glyph-name="cedilla" unicode="¸" d="M211 9l-35 -51q80 -12 80 -70q0 -48 -43 -73t-108 -25q-54 0 -78 7l12 62q22 -7 55 -7q66 0 66 34q0 29 -63 29q-18 0 -28 -1l63 95h79z" horiz-adv-x="300"/>
<glyph glyph-name="guillemotright" unicode="»" d="M527 248l-166 -166h-127l175 175l-102 157h112zM307 248l-166 -166h-127l175 175l-102 157h112z" horiz-adv-x="653"/>
<glyph glyph-name="questiondown" unicode="¿" d="M156 -171q-98 0 -152.5 42t-54.5 116q0 67 31 113.5t112 107.5q45 35 65 60t32 63h131q-11 -54 -32 -88t-66 -75q-62 -57 -84 -89.5t-22 -68.5q0 -65 71 -65q83 0 105 109h158q-20 -105 -99 -165t-195 -60zM264 382q-34 0 -54.5 18.5t-20.5 50.5q0 38 26 67t71 29 q35 0 55 -19t20 -51q0 -38 -26 -66.5t-71 -28.5z" horiz-adv-x="521"/>
<glyph glyph-name="Agrave" unicode="À" d="M437 318l-33 230l-115 -230h148zM456 195h-228l-97 -195h-168l366 690h205l120 -690h-170zM410 735l-116 118h140l62 -118h-86z" horiz-adv-x="692"/>
<glyph glyph-name="Aacute" unicode="Á" d="M437 318l-33 230l-115 -230h148zM456 195h-228l-97 -195h-168l366 690h205l120 -690h-170zM479 735h-86l102 118h140z" horiz-adv-x="692"/>
<glyph glyph-name="Acircumflex" unicode="Â" d="M437 318l-33 230l-115 -230h148zM456 195h-228l-97 -195h-168l366 690h205l120 -690h-170zM409 735h-94l84 118h127l42 -118h-94l-20 68z" horiz-adv-x="692"/>
<glyph glyph-name="Atilde" unicode="Ã" d="M437 318l-33 230l-115 -230h148zM456 195h-228l-97 -195h-168l366 690h205l120 -690h-170zM397 772q-18 0 -22 -28h-82q11 64 32.5 91t61.5 27q34 0 78 -19q31 -12 46 -12t21 28h81q-11 -64 -32.5 -91t-61.5 -27q-34 0 -78 19q-28 12 -44 12z" horiz-adv-x="692"/>
<glyph glyph-name="Adieresis" unicode="Ä" d="M437 318l-33 230l-115 -230h148zM456 195h-228l-97 -195h-168l366 690h205l120 -690h-170zM536 726q-29 0 -45 14.5t-16 40.5q0 35 23.5 56t52.5 21q28 0 44 -14.5t16 -40.5q0 -34 -23 -55.5t-52 -21.5zM351 726q-29 0 -45 14.5t-16 40.5q0 35 23.5 56t52.5 21 q28 0 44 -14.5t16 -40.5q0 -34 -23 -55.5t-52 -21.5z" horiz-adv-x="692"/>
<glyph glyph-name="Aring" unicode="Å" d="M437 318l-33 230l-115 -230h148zM456 195h-228l-97 -195h-168l366 690h205l120 -690h-170zM463 859q-19 0 -32 -13.5t-13 -35.5q0 -14 8.5 -22.5t22.5 -8.5q18 0 31.5 14t13.5 35q0 14 -8.5 22.5t-22.5 8.5zM441 721q-44 0 -71.5 24t-27.5 61q0 50 36 81t93 31 q44 0 71.5 -24.5t27.5 -61.5q0 -50 -36 -80.5t-93 -30.5z" horiz-adv-x="692"/>
<glyph glyph-name="AE" unicode="Æ" d="M446 340l17 218l-148 -218h131zM619 568l-12 -161h334l-22 -122h-321l-12 -162h337l-22 -123h-481l17 218h-205l-148 -218h-171l494 690h606l-22 -122h-372z" horiz-adv-x="980"/>
<glyph glyph-name="Ccedilla" unicode="Ç" d="M111 9l-35 -51q80 -12 80 -70q0 -48 -43 -73t-108 -25q-54 0 -78 7l11 62q23 -7 56 -7q66 0 66 34q0 29 -64 29q-18 0 -28 -1l64 95h79zM461 704q131 0 201.5 -60.5t70.5 -158.5q0 -3 -0.5 -10t-0.5 -10l-1 -10h-156v10q-3 123 -130 123q-93 0 -155 -83t-62 -222 q0 -92 37 -136.5t98 -44.5q118 0 168 131l4 10h156l-3 -10q-33 -118 -122.5 -182.5t-221.5 -64.5q-131 0 -207 75t-75 210q0 96 31.5 178t86 137.5t127.5 86.5t154 31z" horiz-adv-x="755"/>
<glyph glyph-name="Egrave" unicode="È" d="M285 568l-28 -161h323l-22 -122h-323l-28 -162h355l-22 -123h-511l122 690h501l-22 -122h-345zM381 735l-116 118h140l62 -118h-86z" horiz-adv-x="619"/>
<glyph glyph-name="Eacute" unicode="É" d="M285 568l-28 -161h323l-22 -122h-323l-28 -162h355l-22 -123h-511l122 690h501l-22 -122h-345zM450 735h-86l102 118h140z" horiz-adv-x="619"/>
<glyph glyph-name="Ecircumflex" unicode="Ê" d="M285 568l-28 -161h323l-22 -122h-323l-28 -162h355l-22 -123h-511l122 690h501l-22 -122h-345zM381 735h-94l84 118h127l42 -118h-94l-20 68z" horiz-adv-x="619"/>
<glyph glyph-name="Edieresis" unicode="Ë" d="M285 568l-28 -161h323l-22 -122h-323l-28 -162h355l-22 -123h-511l122 690h501l-22 -122h-345zM507 726q-29 0 -45 14.5t-16 40.5q0 35 23.5 56t52.5 21q28 0 44 -14.5t16 -40.5q0 -34 -23 -55.5t-52 -21.5zM322 726q-29 0 -45 14.5t-16 40.5q0 35 23.5 56t52.5 21 q28 0 44 -14.5t16 -40.5q0 -34 -23 -55.5t-52 -21.5z" horiz-adv-x="619"/>
<glyph glyph-name="Igrave" unicode="Ì" d="M185 0h-156l122 690h156zM291 735h-86l-116 118h140z" horiz-adv-x="295"/>
<glyph glyph-name="Iacute" unicode="Í" d="M185 0h-156l122 690h156zM274 735h-86l102 118h140z" horiz-adv-x="295"/>
<glyph glyph-name="Icircumflex" unicode="Î" d="M151 690h156l-122 -690h-156zM205 735h-94l84 118h127l42 -118h-94l-20 68z" horiz-adv-x="295"/>
<glyph glyph-name="Idieresis" unicode="Ï" d="M185 0h-156l122 690h156zM347 858q28 0 44 -14.5t16 -40.5q0 -34 -23 -55.5t-52 -21.5t-45 14.5t-16 40.5q0 35 23.5 56t52.5 21zM162 858q28 0 44 -14.5t16 -40.5q0 -34 -23 -55.5t-52 -21.5t-45 14.5t-16 40.5q0 35 23.5 56t52.5 21z" horiz-adv-x="295"/>
<glyph glyph-name="Eth" unicode="Ð" d="M348 125q101 11 153.5 86t52.5 181q0 160 -131 173q-33 3 -67 3h-70l-33 -186h106l-15 -86h-106l-31 -173h72q46 0 69 2zM477 686q109 -12 176 -85t67 -205q0 -156 -93.5 -266t-267.5 -127q-36 -3 -89 -3h-241l52 296h-68l15 86h69l54 308h232q60 0 94 -4z" horiz-adv-x="734"/>
<glyph glyph-name="Ntilde" unicode="Ñ" d="M781 690l-122 -690h-209l-178 494l-87 -494h-156l122 690h201l183 -509l89 509h157zM433 772q-18 0 -22 -28h-82q11 64 32.5 91t61.5 27q34 0 78 -19q31 -12 46 -12t21 28h81q-11 -64 -32.5 -91t-61.5 -27q-34 0 -78 19q-28 12 -44 12z" horiz-adv-x="769"/>
<glyph glyph-name="Ograve" unicode="Ò" d="M390 102q54 0 98 27.5t70.5 71.5t40.5 95.5t14 104.5q0 85 -42 136t-118 51q-72 0 -124.5 -47.5t-75.5 -113.5t-23 -138q0 -85 42 -136t118 -51zM462 704q149 0 233 -84t84 -215q0 -185 -111 -302t-287 -117q-149 0 -233 84t-84 215q0 185 111 302t287 117zM461 735 l-116 118h140l62 -118h-86z" horiz-adv-x="793"/>
<glyph glyph-name="Oacute" unicode="Ó" d="M390 102q54 0 98 27.5t70.5 71.5t40.5 95.5t14 104.5q0 85 -42 136t-118 51q-72 0 -124.5 -47.5t-75.5 -113.5t-23 -138q0 -85 42 -136t118 -51zM462 704q149 0 233 -84t84 -215q0 -185 -111 -302t-287 -117q-149 0 -233 84t-84 215q0 185 111 302t287 117zM530 735h-86 l102 118h140z" horiz-adv-x="793"/>
<glyph glyph-name="Ocircumflex" unicode="Ô" d="M390 102q54 0 98 27.5t70.5 71.5t40.5 95.5t14 104.5q0 85 -42 136t-118 51q-72 0 -124.5 -47.5t-75.5 -113.5t-23 -138q0 -85 42 -136t118 -51zM462 704q149 0 233 -84t84 -215q0 -185 -111 -302t-287 -117q-149 0 -233 84t-84 215q0 185 111 302t287 117zM460 735h-94 l84 118h127l42 -118h-94l-20 68z" horiz-adv-x="793"/>
<glyph glyph-name="Otilde" unicode="Õ" d="M390 102q54 0 98 27.5t70.5 71.5t40.5 95.5t14 104.5q0 85 -42 136t-118 51q-72 0 -124.5 -47.5t-75.5 -113.5t-23 -138q0 -85 42 -136t118 -51zM462 704q149 0 233 -84t84 -215q0 -185 -111 -302t-287 -117q-149 0 -233 84t-84 215q0 185 111 302t287 117zM448 772 q-18 0 -22 -28h-82q11 64 32.5 91t61.5 27q34 0 78 -19q31 -12 46 -12t21 28h81q-11 -64 -32.5 -91t-61.5 -27q-34 0 -78 19q-28 12 -44 12z" horiz-adv-x="793"/>
<glyph glyph-name="Odieresis" unicode="Ö" d="M390 102q54 0 98 27.5t70.5 71.5t40.5 95.5t14 104.5q0 85 -42 136t-118 51q-72 0 -124.5 -47.5t-75.5 -113.5t-23 -138q0 -85 42 -136t118 -51zM462 704q149 0 233 -84t84 -215q0 -185 -111 -302t-287 -117q-149 0 -233 84t-84 215q0 185 111 302t287 117zM587 726 q-29 0 -45 14.5t-16 40.5q0 35 23.5 56t52.5 21q28 0 44 -14.5t16 -40.5q0 -34 -23 -55.5t-52 -21.5zM402 726q-29 0 -45 14.5t-16 40.5q0 35 23.5 56t52.5 21q28 0 44 -14.5t16 -40.5q0 -34 -23 -55.5t-52 -21.5z" horiz-adv-x="793"/>
<glyph glyph-name="multiply" unicode="×" d="M393 320l113 -137l-75 -63l-113 137l-167 -142l-61 73l168 143l-113 137l74 63l113 -137l167 141l61 -73z"/>
<glyph glyph-name="Oslash" unicode="Ø" d="M614 401q0 27 -5 55l-345 -292q43 -62 126 -62q72 0 124.5 47.5t76 113.5t23.5 138zM230 289q0 -23 3 -44l341 289q-43 54 -120 54q-72 0 -124.5 -47.5t-76 -113.5t-23.5 -138zM818 634l-80 -68q42 -69 42 -161q0 -185 -111 -302t-288 -117q-145 0 -230 82l-88 -75 l-52 63l90 76q-37 69 -37 153q0 185 111 302t288 117q138 0 223 -75l80 68z" horiz-adv-x="789"/>
<glyph glyph-name="Ugrave" unicode="Ù" d="M738 690l-67 -384q-10 -57 -20 -96q-26 -108 -100.5 -166t-216.5 -58q-131 0 -198 54.5t-67 145.5q0 43 15 129l66 375h156l-74 -420q-7 -39 -7 -65q0 -49 33.5 -76t87.5 -27q62 0 98.5 27.5t53.5 92.5q1 4 10 46l74 422h156zM506 735h-86l-116 118h140z" horiz-adv-x="710"/>
<glyph glyph-name="Uacute" unicode="Ú" d="M738 690l-67 -384q-10 -57 -20 -96q-26 -108 -100.5 -166t-216.5 -58q-131 0 -198 54.5t-67 145.5q0 43 15 129l66 375h156l-74 -420q-7 -39 -7 -65q0 -49 33.5 -76t87.5 -27q62 0 98.5 27.5t53.5 92.5q1 4 10 46l74 422h156zM489 735h-86l102 118h140z" horiz-adv-x="710"/>
<glyph glyph-name="Ucircumflex" unicode="Û" d="M738 690l-67 -384q-10 -57 -20 -96q-26 -108 -100.5 -166t-216.5 -58q-131 0 -198 54.5t-67 145.5q0 43 15 129l66 375h156l-74 -420q-7 -39 -7 -65q0 -49 33.5 -76t87.5 -27q62 0 98.5 27.5t53.5 92.5q1 4 10 46l74 422h156zM420 735h-94l84 118h127l42 -118h-94l-20 68 z" horiz-adv-x="710"/>
<glyph glyph-name="Udieresis" unicode="Ü" d="M738 690l-67 -384q-10 -57 -20 -96q-26 -108 -100.5 -166t-216.5 -58q-131 0 -198 54.5t-67 145.5q0 43 15 129l66 375h156l-74 -420q-7 -39 -7 -65q0 -49 33.5 -76t87.5 -27q62 0 98.5 27.5t53.5 92.5q1 4 10 46l74 422h156zM562 858q28 0 44 -14.5t16 -40.5 q0 -34 -23 -55.5t-52 -21.5t-45 14.5t-16 40.5q0 35 23.5 56t52.5 21zM377 858q28 0 44 -14.5t16 -40.5q0 -34 -23 -55.5t-52 -21.5t-45 14.5t-16 40.5q0 35 23.5 56t52.5 21z" horiz-adv-x="710"/>
<glyph glyph-name="Yacute" unicode="Ý" d="M422 261l-46 -261h-157l47 266l-168 424h167l104 -292l197 292h175zM465 735h-86l102 118h140z" horiz-adv-x="658"/>
<glyph glyph-name="Thorn" unicode="Þ" d="M475 393q2 14 2 19q0 57 -67 65q-13 2 -54 2h-86l-31 -173h87q25 0 55 2q79 10 94 85zM494 597q67 -8 108 -48t41 -110q0 -25 -4 -46q-16 -91 -75.5 -143t-141.5 -62q-45 -5 -104 -5h-101l-32 -183h-156l122 690h156l-16 -88h100q59 0 103 -5z" horiz-adv-x="638"/>
<glyph glyph-name="germandbls" unicode="ß" d="M410 754q107 0 165 -46.5t58 -120.5q0 -62 -47 -121q-38 -18 -54.5 -36.5t-16.5 -44.5q0 -37 37 -78q57 -61 57 -133q0 -77 -59.5 -127.5t-171.5 -50.5q-75 0 -126 12l21 117q50 -13 88 -13q40 0 61 19t21 49q0 36 -35 78q-30 37 -43 64t-13 62q0 78 96 130q19 30 19 58 q0 66 -80 66q-57 0 -88.5 -44t-49.5 -143l-79 -451h-157l78 443q14 79 34 133t56 96t92.5 62t136.5 20z" horiz-adv-x="631"/>
<glyph glyph-name="agrave" unicode="à" d="M347 194l7 41q-28 2 -39 2q-63 0 -101.5 -23t-38.5 -65q0 -55 63 -55q35 0 68 26.5t41 71.5v2zM333 547q105 0 153.5 -38.5t48.5 -105.5q0 -31 -14 -109l-28 -159q-10 -57 -14 -135h-153l2 77l-33 -53q-53 -38 -134 -38q-65 0 -107 36.5t-42 105.5q0 92 84 145.5 t232 53.5q28 0 43 -1l1 6q5 30 5 52q0 55 -60 55q-79 0 -99 -83h-150q17 89 90 140t175 51zM316 572l-116 121h140l62 -121h-86z" horiz-adv-x="568"/>
<glyph glyph-name="aacute" unicode="á" d="M347 194l7 41q-28 2 -39 2q-63 0 -101.5 -23t-38.5 -65q0 -55 63 -55q35 0 68 26.5t41 71.5v2zM333 547q105 0 153.5 -38.5t48.5 -105.5q0 -31 -14 -109l-28 -159q-10 -57 -14 -135h-153l2 77l-33 -53q-53 -38 -134 -38q-65 0 -107 36.5t-42 105.5q0 92 84 145.5 t232 53.5q28 0 43 -1l1 6q5 30 5 52q0 55 -60 55q-79 0 -99 -83h-150q17 89 90 140t175 51zM379 572h-86l105 121h140z" horiz-adv-x="568"/>
<glyph glyph-name="acircumflex" unicode="â" d="M347 194l7 41q-28 2 -39 2q-63 0 -101.5 -23t-38.5 -65q0 -55 63 -55q35 0 68 26.5t41 71.5v2zM333 547q105 0 153.5 -38.5t48.5 -105.5q0 -31 -14 -109l-28 -159q-10 -57 -14 -135h-153l2 77l-33 -53q-53 -38 -134 -38q-65 0 -107 36.5t-42 105.5q0 92 84 145.5 t232 53.5q28 0 43 -1l1 6q5 30 5 52q0 55 -60 55q-79 0 -99 -83h-150q17 89 90 140t175 51zM313 572h-93l85 121h126l42 -121h-94l-20 72z" horiz-adv-x="568"/>
<glyph glyph-name="atilde" unicode="ã" d="M347 194l7 41q-28 2 -39 2q-63 0 -101.5 -23t-38.5 -65q0 -55 63 -55q35 0 68 26.5t41 71.5v2zM333 547q105 0 153.5 -38.5t48.5 -105.5q0 -31 -14 -109l-28 -159q-10 -57 -14 -135h-153l2 77l-33 -53q-53 -38 -134 -38q-65 0 -107 36.5t-42 105.5q0 92 84 145.5 t232 53.5q28 0 43 -1l1 6q5 30 5 52q0 55 -60 55q-79 0 -99 -83h-150q17 89 90 140t175 51zM298 607q-18 0 -22 -28h-82q11 64 32.5 91t61.5 27q34 0 78 -19q31 -12 46 -12t21 28h81q-11 -64 -32.5 -91t-61.5 -27q-34 0 -78 19q-28 12 -44 12z" horiz-adv-x="568"/>
<glyph glyph-name="adieresis" unicode="ä" d="M347 194l7 41q-28 2 -39 2q-63 0 -101.5 -23t-38.5 -65q0 -55 63 -55q35 0 68 26.5t41 71.5v2zM333 547q105 0 153.5 -38.5t48.5 -105.5q0 -31 -14 -109l-28 -159q-10 -57 -14 -135h-153l2 77l-33 -53q-53 -38 -134 -38q-65 0 -107 36.5t-42 105.5q0 92 84 145.5 t232 53.5q28 0 43 -1l1 6q5 30 5 52q0 55 -60 55q-79 0 -99 -83h-150q17 89 90 140t175 51zM435 573q-29 0 -44.5 14.5t-15.5 40.5q0 34 23.5 55.5t52.5 21.5q28 0 44 -14.5t16 -40.5q0 -35 -23.5 -56t-52.5 -21zM249 573q-61 0 -61 55q0 34 23.5 55.5t52.5 21.5 q28 0 44 -14.5t16 -40.5q0 -35 -23 -56t-52 -21z" horiz-adv-x="568"/>
<glyph glyph-name="aring" unicode="å" d="M347 194l7 41q-28 2 -39 2q-63 0 -101.5 -23t-38.5 -65q0 -55 63 -55q35 0 68 26.5t41 71.5v2zM333 547q105 0 153.5 -38.5t48.5 -105.5q0 -31 -14 -109l-28 -159q-10 -57 -14 -135h-153l2 77l-33 -53q-53 -38 -134 -38q-65 0 -107 36.5t-42 105.5q0 92 84 145.5 t232 53.5q28 0 43 -1l1 6q5 30 5 52q0 55 -60 55q-79 0 -99 -83h-150q17 89 90 140t175 51zM366 711q-22 0 -33.5 -17t-11.5 -37q0 -32 31 -32q22 0 33.5 17t11.5 37q0 32 -31 32zM344 567q-46 0 -72.5 23t-26.5 63q0 50 36.5 83t94.5 33q45 0 71 -23t26 -63 q0 -51 -36 -83.5t-93 -32.5z" horiz-adv-x="568"/>
<glyph glyph-name="ae" unicode="æ" d="M371 206l4 20q-16 1 -43 1q-79 0 -117 -19.5t-38 -63.5q0 -50 70 -50q46 0 80.5 31t43.5 81zM694 436q-91 0 -128 -111h210v12q0 99 -82 99zM918 226h-374q-2 -18 -2 -24q0 -108 90 -108q42 0 72.5 21t43.5 59h155q-37 -91 -114.5 -139.5t-177.5 -48.5q-148 0 -195 112 l-60 -69q-67 -43 -159 -43q-86 0 -135.5 37t-49.5 102q0 87 80 143.5t248 56.5h49q5 30 5 45q0 66 -71 66q-38 0 -65.5 -22t-37.5 -61h-150q17 89 92.5 140t177.5 51q141 0 172 -89q79 89 215 89q101 0 155 -59t54 -152q0 -53 -18 -107z" horiz-adv-x="958"/>
<glyph glyph-name="ccedilla" unicode="ç" d="M273 94q88 0 122 95h156q-70 -193 -268 -202l-20 -29q80 -12 80 -70q0 -48 -43 -73t-108 -25q-54 0 -78 7l12 62q22 -7 55 -7q66 0 66 34q0 29 -63 29q-18 0 -28 -1l50 76q-85 13 -134.5 68t-49.5 152q0 142 89 238t234 96q115 0 172 -57.5t57 -153.5h-153 q-1 103 -89 103q-65 0 -104.5 -66t-39.5 -161q0 -55 23.5 -85t61.5 -30z" horiz-adv-x="587"/>
<glyph glyph-name="egrave" unicode="è" d="M324 439q-44 0 -76 -30.5t-49 -83.5h213q1 8 1 18q0 45 -23 70.5t-66 25.5zM181 226v-21q0 -111 90 -111q41 0 71.5 21t43.5 59h155q-31 -91 -105 -139.5t-177 -48.5q-105 0 -171 54.5t-66 164.5q0 148 88 245t229 97q113 0 173 -60.5t60 -154.5q0 -52 -18 -106h-373z M330 572l-116 121h140l62 -121h-86z" horiz-adv-x="594"/>
<glyph glyph-name="eacute" unicode="é" d="M324 439q-44 0 -76 -30.5t-49 -83.5h213q1 8 1 18q0 45 -23 70.5t-66 25.5zM181 226v-21q0 -111 90 -111q41 0 71.5 21t43.5 59h155q-31 -91 -105 -139.5t-177 -48.5q-105 0 -171 54.5t-66 164.5q0 148 88 245t229 97q113 0 173 -60.5t60 -154.5q0 -52 -18 -106h-373z M393 572h-86l105 121h140z" horiz-adv-x="594"/>
<glyph glyph-name="ecircumflex" unicode="ê" d="M324 439q-44 0 -76 -30.5t-49 -83.5h213q1 8 1 18q0 45 -23 70.5t-66 25.5zM181 226v-21q0 -111 90 -111q41 0 71.5 21t43.5 59h155q-31 -91 -105 -139.5t-177 -48.5q-105 0 -171 54.5t-66 164.5q0 148 88 245t229 97q113 0 173 -60.5t60 -154.5q0 -52 -18 -106h-373z M326 572h-93l85 121h126l42 -121h-94l-20 72z" horiz-adv-x="594"/>
<glyph glyph-name="edieresis" unicode="ë" d="M324 439q-44 0 -76 -30.5t-49 -83.5h213q1 8 1 18q0 45 -23 70.5t-66 25.5zM181 226v-21q0 -111 90 -111q41 0 71.5 21t43.5 59h155q-31 -91 -105 -139.5t-177 -48.5q-105 0 -171 54.5t-66 164.5q0 148 88 245t229 97q113 0 173 -60.5t60 -154.5q0 -52 -18 -106h-373z M449 573q-29 0 -44.5 14.5t-15.5 40.5q0 34 23.5 55.5t52.5 21.5q28 0 44 -14.5t16 -40.5q0 -35 -23.5 -56t-52.5 -21zM263 573q-61 0 -61 55q0 34 23.5 55.5t52.5 21.5q28 0 44 -14.5t16 -40.5q0 -35 -23 -56t-52 -21z" horiz-adv-x="594"/>
<glyph glyph-name="igrave" unicode="ì" d="M170 0h-157l95 533h156zM254 572h-86l-116 121h140z" horiz-adv-x="276"/>
<glyph glyph-name="iacute" unicode="í" d="M170 0h-157l95 533h156zM231 572h-86l105 121h140z" horiz-adv-x="276"/>
<glyph glyph-name="icircumflex" unicode="î" d="M108 533h156l-94 -533h-157zM165 572h-93l85 121h126l42 -121h-94l-20 72z" horiz-adv-x="276"/>
<glyph glyph-name="idieresis" unicode="ï" d="M170 0h-157l95 533h156zM303 705q28 0 44 -14.5t16 -40.5q0 -35 -23.5 -56t-52.5 -21t-44.5 14.5t-15.5 40.5q0 34 23.5 55.5t52.5 21.5zM116 705q28 0 44 -14.5t16 -40.5q0 -35 -23 -56t-52 -21q-61 0 -61 55q0 34 23.5 55.5t52.5 21.5z" horiz-adv-x="276"/>
<glyph glyph-name="eth" unicode="ð" d="M286 102q44 0 76.5 21.5t49 55.5t24.5 69t8 70q0 51 -28 82.5t-72 31.5q-43 0 -75 -21t-49.5 -54.5t-25.5 -68t-8 -68.5q0 -118 100 -118zM640 636l-76 -17q43 -96 43 -241q0 -58 -11 -112t-36 -105.5t-62.5 -90t-94.5 -61.5t-128 -23q-120 0 -186 62t-66 162 q0 62 18.5 120.5t54 107.5t95 79t133.5 30q58 0 101 -29l36 -59q-4 79 -32 130l-124 -27l-13 64l92 21q-28 26 -67 48l133 50q45 -21 79 -66l97 22z" horiz-adv-x="651"/>
<glyph glyph-name="ntilde" unicode="ñ" d="M436 547q79 0 120 -37.5t41 -99.5q0 -39 -12 -104l-55 -306h-156l49 274q10 63 10 85q0 80 -79 80q-106 -2 -142 -195l-42 -244h-157l94 533h156l-14 -79l56 59q57 34 131 34zM326 607q-18 0 -22 -28h-82q11 64 32.5 91t61.5 27q34 0 78 -19q31 -12 46 -12t21 28h81 q-11 -64 -32.5 -91t-61.5 -27q-34 0 -78 19q-28 12 -44 12z" horiz-adv-x="631"/>
<glyph glyph-name="ograve" unicode="ò" d="M290 94q69 0 108 63.5t39 149.5q0 59 -25 95.5t-75 36.5q-69 0 -108 -63t-39 -149q0 -60 25.5 -96.5t74.5 -36.5zM350 547q123 0 188 -65.5t65 -171.5q0 -85 -34.5 -157t-110.5 -119.5t-180 -47.5q-124 0 -189 65.5t-65 171.5q0 134 85.5 229t240.5 95zM341 572l-116 121 h140l62 -121h-86z" horiz-adv-x="626"/>
<glyph glyph-name="oacute" unicode="ó" d="M290 94q69 0 108 63.5t39 149.5q0 59 -25 95.5t-75 36.5q-69 0 -108 -63t-39 -149q0 -60 25.5 -96.5t74.5 -36.5zM350 547q123 0 188 -65.5t65 -171.5q0 -85 -34.5 -157t-110.5 -119.5t-180 -47.5q-124 0 -189 65.5t-65 171.5q0 134 85.5 229t240.5 95zM404 572h-86 l105 121h140z" horiz-adv-x="626"/>
<glyph glyph-name="ocircumflex" unicode="ô" d="M290 94q69 0 108 63.5t39 149.5q0 59 -25 95.5t-75 36.5q-69 0 -108 -63t-39 -149q0 -60 25.5 -96.5t74.5 -36.5zM350 547q123 0 188 -65.5t65 -171.5q0 -85 -34.5 -157t-110.5 -119.5t-180 -47.5q-124 0 -189 65.5t-65 171.5q0 134 85.5 229t240.5 95zM338 572h-93 l85 121h126l42 -121h-94l-20 72z" horiz-adv-x="626"/>
<glyph glyph-name="otilde" unicode="õ" d="M290 94q69 0 108 63.5t39 149.5q0 59 -25 95.5t-75 36.5q-69 0 -108 -63t-39 -149q0 -60 25.5 -96.5t74.5 -36.5zM350 547q123 0 188 -65.5t65 -171.5q0 -85 -34.5 -157t-110.5 -119.5t-180 -47.5q-124 0 -189 65.5t-65 171.5q0 134 85.5 229t240.5 95zM323 607 q-18 0 -22 -28h-82q11 64 32.5 91t61.5 27q34 0 78 -19q31 -12 46 -12t21 28h81q-11 -64 -32.5 -91t-61.5 -27q-34 0 -78 19q-28 12 -44 12z" horiz-adv-x="626"/>
<glyph glyph-name="odieresis" unicode="ö" d="M290 94q69 0 108 63.5t39 149.5q0 59 -25 95.5t-75 36.5q-69 0 -108 -63t-39 -149q0 -60 25.5 -96.5t74.5 -36.5zM350 547q123 0 188 -65.5t65 -171.5q0 -85 -34.5 -157t-110.5 -119.5t-180 -47.5q-124 0 -189 65.5t-65 171.5q0 134 85.5 229t240.5 95zM460 573 q-29 0 -44.5 14.5t-15.5 40.5q0 34 23.5 55.5t52.5 21.5q28 0 44 -14.5t16 -40.5q0 -35 -23.5 -56t-52.5 -21zM274 573q-61 0 -61 55q0 34 23.5 55.5t52.5 21.5q28 0 44 -14.5t16 -40.5q0 -35 -23 -56t-52 -21z" horiz-adv-x="626"/>
<glyph glyph-name="divide" unicode="÷" d="M308 210q28 0 45 -17t17 -43q0 -36 -26.5 -62t-61.5 -26q-27 0 -44.5 17t-17.5 43q0 36 26.5 62t61.5 26zM556 275h-473l15 86h472zM372 572q27 0 44.5 -17t17.5 -43q0 -36 -26.5 -62t-61.5 -26q-27 0 -44.5 17t-17.5 43q0 36 26.5 62t61.5 26z"/>
<glyph glyph-name="oslash" unicode="ø" d="M442 307l-1 10l-220 -187q26 -36 75 -36q69 0 107.5 63.5t38.5 149.5zM196 227v-11l221 187q-27 36 -74 36q-69 0 -108 -63t-39 -149zM653 497l-74 -63q29 -53 29 -124q0 -85 -34.5 -157t-110.5 -119.5t-180 -47.5q-105 0 -172 51l-78 -67l-52 63l78 66q-29 52 -29 124 q0 85 34.5 157t110.5 119.5t180 47.5q105 0 171 -50l75 63z" horiz-adv-x="639"/>
<glyph glyph-name="ugrave" unicode="ù" d="M614 533l-94 -533h-156l14 79l-56 -59q-57 -34 -131 -34q-79 0 -120 37.5t-41 99.5q0 38 12 105l55 305h157l-50 -274q-10 -62 -10 -85q0 -79 76 -79h3q50 0 87.5 48t54.5 146l43 244h156zM353 572l-116 121h140l62 -121h-86z" horiz-adv-x="626"/>
<glyph glyph-name="uacute" unicode="ú" d="M614 533l-94 -533h-156l14 79l-56 -59q-57 -34 -131 -34q-79 0 -120 37.5t-41 99.5q0 38 12 105l55 305h157l-50 -274q-10 -62 -10 -85q0 -79 76 -79h3q50 0 87.5 48t54.5 146l43 244h156zM416 572h-86l105 121h140z" horiz-adv-x="626"/>
<glyph glyph-name="ucircumflex" unicode="û" d="M614 533l-94 -533h-156l14 79l-56 -59q-57 -34 -131 -34q-79 0 -120 37.5t-41 99.5q0 38 12 105l55 305h157l-50 -274q-10 -62 -10 -85q0 -79 76 -79h3q50 0 87.5 48t54.5 146l43 244h156zM350 572h-93l85 121h126l42 -121h-94l-20 72z" horiz-adv-x="626"/>
<glyph glyph-name="udieresis" unicode="ü" d="M614 533l-94 -533h-156l14 79l-56 -59q-57 -34 -131 -34q-79 0 -120 37.5t-41 99.5q0 38 12 105l55 305h157l-50 -274q-10 -62 -10 -85q0 -79 76 -79h3q50 0 87.5 48t54.5 146l43 244h156zM472 573q-29 0 -44.5 14.5t-15.5 40.5q0 34 23.5 55.5t52.5 21.5q28 0 44 -14.5 t16 -40.5q0 -35 -23.5 -56t-52.5 -21zM286 573q-61 0 -61 55q0 34 23.5 55.5t52.5 21.5q28 0 44 -14.5t16 -40.5q0 -35 -23 -56t-52 -21z" horiz-adv-x="626"/>
<glyph glyph-name="yacute" unicode="ý" d="M622 533l-301 -533q-67 -118 -126.5 -164t-146.5 -46q-30 0 -67 5l17 103q23 -3 46 -3q64 0 100 69l6 11l-118 558h175l50 -404l193 404h172zM364 572h-86l105 121h140z" horiz-adv-x="562"/>
<glyph glyph-name="thorn" unicode="þ" d="M317 94q71 0 117 63t46 155q0 62 -27 94.5t-78 32.5q-57 0 -99 -40t-58 -126l-4 -24q-3 -21 -3 -40q0 -115 106 -115zM436 547q99 0 153 -58.5t54 -161.5q0 -142 -82.5 -241.5t-233.5 -99.5q-80 0 -118 31l-26 58l-48 -271h-157l166 931h157l-50 -281l50 58q50 35 135 35 z" horiz-adv-x="664"/>
</font>
</defs>
</svg>
